<?xml version="1.0" encoding="utf-8"?>
<!-- Generator: Adobe Illustrator 16.0.4, SVG Export Plug-In . SVG Version: 6.00 Build 0)  -->
<!DOCTYPE svg PUBLIC "-//W3C//DTD SVG 1.1//EN" "http://www.w3.org/Graphics/SVG/1.1/DTD/svg11.dtd">
<svg version="1.1" xmlns="http://www.w3.org/2000/svg" xmlns:xlink="http://www.w3.org/1999/xlink" x="0px" y="0px" width="100px"
	 height="100px" viewBox="0 0 100 100" enable-background="new 0 0 100 100" xml:space="preserve">
<g id="Layer_1">
	<g>
		<g enable-background="new    ">
			<g>
				<rect x="31.803" y="21.695" fill="#2E73B7" width="48.532" height="9.428"/>
			</g>
			<g>
				<rect x="31.803" y="31.123" fill="#19486F" width="48.532" height="2.494"/>
			</g>
		</g>
		<g enable-background="new    ">
			<g>
				<rect x="19.664" y="36.061" fill="#2E73B7" width="8.604" height="11.098"/>
			</g>
			<g>
				<rect x="19.664" y="47.158" fill="#19486F" width="8.604" height="2.494"/>
			</g>
		</g>
		<g enable-background="new    ">
			<g>
				<rect x="19.664" y="52.109" fill="#2E73B7" width="8.604" height="9.412"/>
			</g>
			<g>
				<rect x="19.664" y="61.521" fill="#19486F" width="8.604" height="2.494"/>
			</g>
		</g>
		<g enable-background="new    ">
			<g>
				<rect x="19.664" y="66.461" fill="#2E73B7" width="8.604" height="9.348"/>
			</g>
			<g>
				<rect x="19.664" y="75.809" fill="#19486F" width="8.604" height="2.496"/>
			</g>
		</g>
		<g enable-background="new    ">
			<g>
				<rect x="31.803" y="36.061" fill="#2E73B7" width="48.532" height="11.098"/>
			</g>
			<g>
				<rect x="31.803" y="47.158" fill="#19486F" width="48.532" height="2.494"/>
			</g>
		</g>
		<g enable-background="new    ">
			<g>
				<rect x="31.803" y="66.461" fill="#2E73B7" width="48.532" height="9.348"/>
			</g>
			<g>
				<rect x="31.803" y="75.809" fill="#19486F" width="48.532" height="2.496"/>
			</g>
		</g>
		<g enable-background="new    ">
			<g>
				<rect x="31.803" y="52.109" fill="#2E73B7" width="48.532" height="9.412"/>
			</g>
			<g>
				<rect x="31.803" y="61.521" fill="#19486F" width="48.532" height="2.494"/>
			</g>
		</g>
		<g enable-background="new    ">
			<g>
				<rect x="19.664" y="21.695" fill="#2E73B7" width="8.604" height="9.428"/>
			</g>
			<g>
				<rect x="19.664" y="31.123" fill="#19486F" width="8.604" height="2.494"/>
			</g>
		</g>
	</g>
</g>
<g id="nyt_x5F_exporter_x5F_info" display="none">
</g>
</svg>
