<?xml version="1.0" encoding="utf-8"?>
<!-- Generator: Adobe Illustrator 16.0.4, SVG Export Plug-In . SVG Version: 6.00 Build 0)  -->
<!DOCTYPE svg PUBLIC "-//W3C//DTD SVG 1.1//EN" "http://www.w3.org/Graphics/SVG/1.1/DTD/svg11.dtd">
<svg version="1.1" xmlns="http://www.w3.org/2000/svg" xmlns:xlink="http://www.w3.org/1999/xlink" x="0px" y="0px" width="100px"
	 height="100px" viewBox="0 0 100 100" enable-background="new 0 0 100 100" xml:space="preserve">
<g id="Layer_1">
	<g>
		<g>
			<g enable-background="new    ">
				<g>
					<path fill="#2E73B7" d="M48.993,76.203h-25.17V61.205h25.17V76.203z"/>
				</g>
				<g>
					<rect x="23.823" y="76.203" fill="#19486F" width="25.17" height="2.24"/>
				</g>
			</g>
			<g enable-background="new    ">
				<g>
					<rect x="52.171" y="61.205" fill="#2E73B7" width="24.006" height="14.998"/>
				</g>
				<g>
					<rect x="52.171" y="76.203" fill="#19486F" width="24.006" height="2.24"/>
				</g>
			</g>
			<g enable-background="new    ">
				<g>
					<path fill="#2E73B7" d="M48.993,56.754h-25.17V41.951h25.17V56.754z"/>
				</g>
				<g>
					<rect x="23.823" y="56.754" fill="#19486F" width="25.17" height="2.242"/>
				</g>
			</g>
			<g enable-background="new    ">
				<g>
					<path fill="#2E73B7" d="M48.993,37.504h-25.17V21.557h25.17V37.504z"/>
				</g>
				<g>
					<rect x="23.823" y="37.504" fill="#19486F" width="25.17" height="2.242"/>
				</g>
			</g>
			<g enable-background="new    ">
				<g>
					<rect x="52.171" y="41.951" fill="#2E73B7" width="24.006" height="14.803"/>
				</g>
				<g>
					<rect x="52.171" y="56.754" fill="#19486F" width="24.006" height="2.242"/>
				</g>
			</g>
			<g enable-background="new    ">
				<g>
					<rect x="52.171" y="21.557" fill="#2E73B7" width="24.006" height="15.947"/>
				</g>
				<g>
					<rect x="52.171" y="37.504" fill="#19486F" width="24.006" height="2.242"/>
				</g>
			</g>
		</g>
		<ellipse fill="#F6F7F7" cx="36.827" cy="29.898" rx="4.92" ry="4.887"/>
		<ellipse fill="#F6F7F7" cx="36.827" cy="49.225" rx="4.92" ry="4.887"/>
		<path fill="#F6F7F7" d="M41.747,68.771c0,2.699-2.199,4.887-4.92,4.887c-2.717,0-4.92-2.188-4.92-4.887
			c0-2.697,2.203-4.887,4.92-4.887C39.548,63.885,41.747,66.074,41.747,68.771z"/>
	</g>
</g>
<g id="nyt_x5F_exporter_x5F_info" display="none">
</g>
</svg>
