<?xml version="1.0" encoding="utf-8"?>
<!-- Generator: Adobe Illustrator 16.0.4, SVG Export Plug-In . SVG Version: 6.00 Build 0)  -->
<!DOCTYPE svg PUBLIC "-//W3C//DTD SVG 1.1//EN" "http://www.w3.org/Graphics/SVG/1.1/DTD/svg11.dtd">
<svg version="1.1" xmlns="http://www.w3.org/2000/svg" xmlns:xlink="http://www.w3.org/1999/xlink" x="0px" y="0px" width="100px"
	 height="100px" viewBox="0 0 100 100" enable-background="new 0 0 100 100" xml:space="preserve">
<g id="Layer_1">
	<g>
		<g>
			<g enable-background="new    ">
				<g>
					<path fill="#2E73B7" d="M51.011,61.24h25.25v15.045h-25.25V61.24z"/>
				</g>
				<g>
					<rect x="51.011" y="76.285" fill="#19486F" width="25.25" height="2.25"/>
				</g>
			</g>
			<g enable-background="new    ">
				<g>
					<rect x="23.739" y="61.24" fill="#2E73B7" width="24.084" height="15.045"/>
				</g>
				<g>
					<rect x="23.739" y="76.285" fill="#19486F" width="24.084" height="2.25"/>
				</g>
			</g>
			<g enable-background="new    ">
				<g>
					<path fill="#2E73B7" d="M51.011,41.926h25.25v14.85h-25.25V41.926z"/>
				</g>
				<g>
					<rect x="51.011" y="56.775" fill="#19486F" width="25.25" height="2.248"/>
				</g>
			</g>
			<g enable-background="new    ">
				<g>
					<path fill="#2E73B7" d="M51.011,21.465h25.25v15.997h-25.25V21.465z"/>
				</g>
				<g>
					<rect x="51.011" y="37.462" fill="#19486F" width="25.25" height="2.249"/>
				</g>
			</g>
			<g enable-background="new    ">
				<g>
					<rect x="23.739" y="41.926" fill="#2E73B7" width="24.084" height="14.85"/>
				</g>
				<g>
					<rect x="23.739" y="56.775" fill="#19486F" width="24.084" height="2.248"/>
				</g>
			</g>
			<g enable-background="new    ">
				<g>
					<rect x="23.739" y="21.465" fill="#2E73B7" width="24.084" height="15.997"/>
				</g>
				<g>
					<rect x="23.739" y="37.462" fill="#19486F" width="24.084" height="2.249"/>
				</g>
			</g>
		</g>
		<ellipse fill="#F6F7F7" cx="63.26" cy="29.834" rx="4.936" ry="4.902"/>
		<ellipse fill="#F6F7F7" cx="63.26" cy="49.221" rx="4.936" ry="4.902"/>
		<ellipse fill="#F6F7F7" cx="63.26" cy="68.83" rx="4.936" ry="4.904"/>
	</g>
</g>
<g id="nyt_x5F_exporter_x5F_info" display="none">
</g>
</svg>
