<?xml version="1.0" encoding="utf-8"?>
<!-- Generator: Adobe Illustrator 16.0.4, SVG Export Plug-In . SVG Version: 6.00 Build 0)  -->
<!DOCTYPE svg PUBLIC "-//W3C//DTD SVG 1.1//EN" "http://www.w3.org/Graphics/SVG/1.1/DTD/svg11.dtd">
<svg version="1.1" xmlns="http://www.w3.org/2000/svg" xmlns:xlink="http://www.w3.org/1999/xlink" x="0px" y="0px" width="100px"
	 height="100px" viewBox="0 0 100 100" enable-background="new 0 0 100 100" xml:space="preserve">
<g id="Layer_1">
	<g>
		<g>
			<g enable-background="new    ">
				<g enable-background="new    ">
					<defs>
						<path id="SVGID_43_" enable-background="new    " d="M76.354,67.883v2.615c0,4.137-3.381,7.494-7.549,7.494v-2.615
							C72.973,75.377,76.354,72.02,76.354,67.883z"/>
					</defs>
					<use xlink:href="#SVGID_43_"  overflow="visible" fill="#19486F"/>
					<clipPath id="SVGID_2_">
						<use xlink:href="#SVGID_43_"  overflow="visible"/>
					</clipPath>
					<g clip-path="url(#SVGID_2_)" enable-background="new    ">
						<path fill="#19486F" d="M76.354,67.883v2.615c0,0.363-0.025,0.721-0.074,1.07v-2.613
							C76.328,68.604,76.354,68.248,76.354,67.883"/>
						<path fill="#19486F" d="M76.279,68.955v2.613c-0.062,0.414-0.156,0.818-0.279,1.207v-2.613
							C76.123,69.771,76.217,69.367,76.279,68.955"/>
						<path fill="#19486F" d="M76,70.162v2.613c-0.146,0.459-0.34,0.9-0.57,1.316v-2.613C75.66,71.061,75.854,70.621,76,70.162"/>
					</g>
				</g>
				<g>
					<polygon fill="#19486F" points="69.943,74.576 68.805,77.992 31.184,77.992 31.184,75.377 					"/>
				</g>
				<g enable-background="new    ">
					<defs>
						<path id="SVGID_45_" enable-background="new    " d="M31.184,75.377v2.615c-4.166,0-7.537-3.357-7.537-7.494v-2.615
							C23.646,72.02,27.018,75.377,31.184,75.377z"/>
					</defs>
					<use xlink:href="#SVGID_45_"  overflow="visible" fill="#19486F"/>
					<clipPath id="SVGID_4_">
						<use xlink:href="#SVGID_45_"  overflow="visible"/>
					</clipPath>
				</g>
				<g>
					<path fill="#2E73B7" d="M68.805,22.008c4.168,0,7.549,3.342,7.549,7.48v38.395c0,4.137-3.381,7.494-7.549,7.494H31.184
						c-4.166,0-7.537-3.357-7.537-7.494V29.488c0-4.139,3.371-7.48,7.537-7.48H68.805z"/>
				</g>
			</g>
		</g>
		<g>
			<path fill="#FFFFFF" d="M37.783,35.742v0.232c0,2.002-0.812,3.957-3.439,3.957c-2.812,0-3.688-1.799-3.688-5.758
				c0-3.957,0.875-5.758,3.705-5.758c3.172,0,3.357,2.328,3.357,3.477v0.201h-1.779v-0.186c0-1.023-0.314-2.203-1.596-2.156
				c-1.311,0-1.904,0.807-1.904,4.375c0,3.57,0.594,4.471,1.904,4.471c1.486,0,1.66-1.646,1.66-2.67v-0.186H37.783z"/>
			<path fill="#FFFFFF" d="M41.141,28.635h2.281l2.936,11.08H44.5l-0.689-2.717h-3.264l-0.721,2.717h-1.857L41.141,28.635z
				 M43.514,35.586l-1.281-5.461h-0.031l-1.328,5.461H43.514z"/>
			<path fill="#FFFFFF" d="M53.996,35.742v0.232c0,2.002-0.812,3.957-3.438,3.957c-2.812,0-3.688-1.799-3.688-5.758
				c0-3.957,0.875-5.758,3.705-5.758c3.172,0,3.359,2.328,3.359,3.477v0.201H52.15v-0.186c0-1.023-0.311-2.203-1.592-2.156
				c-1.314,0-1.906,0.807-1.906,4.375c0,3.57,0.592,4.471,1.906,4.471c1.486,0,1.656-1.646,1.656-2.67v-0.186H53.996z"/>
			<path fill="#FFFFFF" d="M55.242,28.635h1.783v4.438h3.281v-4.438h1.779v11.08h-1.779v-5.152h-3.281v5.152h-1.783V28.635z"/>
			<path fill="#FFFFFF" d="M63.928,28.635h6.033v1.49h-4.25v3.072h3.998v1.49h-3.998v3.537h4.373v1.49h-6.156V28.635z"/>
		</g>
	</g>
</g>
<g id="nyt_x5F_exporter_x5F_info" display="none">
</g>
</svg>
