<?xml version="1.0" encoding="utf-8"?>
<!-- Generator: Adobe Illustrator 16.0.4, SVG Export Plug-In . SVG Version: 6.00 Build 0)  -->
<!DOCTYPE svg PUBLIC "-//W3C//DTD SVG 1.1//EN" "http://www.w3.org/Graphics/SVG/1.1/DTD/svg11.dtd">
<svg version="1.1" xmlns="http://www.w3.org/2000/svg" xmlns:xlink="http://www.w3.org/1999/xlink" x="0px" y="0px" width="100px"
	 height="100px" viewBox="0 0 100 100" enable-background="new 0 0 100 100" xml:space="preserve">
<g id="Layer_1">
	<g>
		<polygon fill="#99BCE3" points="79.808,62.657 49.999,58.951 20.192,62.657 49.999,71.601 		"/>
		<polygon fill="#1A476F" points="79.808,37.343 49.999,41.049 20.192,37.343 49.999,28.4 		"/>
		<polygon fill="#205B98" points="50,14 20.192,28.904 20.192,37.343 50,28.4 		"/>
		<polygon fill="#205B98" points="50,71.6 20.192,62.658 20.192,71.096 50,86 		"/>
		<polygon fill="#205B98" points="50,60.888 37.399,58.983 37.399,41.162 50,39.287 		"/>
		<polygon fill="#5294CF" points="50,14 79.808,28.904 79.808,37.343 50,28.4 		"/>
		<polygon fill="#5294CF" points="50,71.6 79.808,62.658 79.808,71.096 50,86 		"/>
		<polygon fill="#5294CF" points="50,60.888 62.601,58.983 62.601,41.162 50,39.287 		"/>
	</g>
</g>
<g id="nyt_x5F_exporter_x5F_info" display="none">
	<text transform="matrix(1 0 0 1 -534 0)" display="inline"><tspan x="0" y="0" font-family="'MyriadPro-Regular'" font-size="12">&lt;nyt_prefs&gt;</tspan><tspan x="0" y="14.4" font-family="'MyriadPro-Regular'" font-size="12">  &lt;nyt_prefix&gt;&lt;/nyt_prefix&gt;</tspan><tspan x="0" y="28.8" font-family="'MyriadPro-Regular'" font-size="12">  &lt;nyt_suffix&gt;&lt;/nyt_suffix&gt;</tspan><tspan x="0" y="43.2" font-family="'MyriadPro-Regular'" font-size="12">  &lt;nyt_base_path&gt;~/Desktop/wip/Architecture%20Icons%20-%20Update%20all%20customer-facing%20files%20/AWS-Simple-Icons%202/Database/EPS&lt;/nyt_base_path&gt;</tspan><tspan x="0" y="57.6" font-family="'MyriadPro-Regular'" font-size="12">  &lt;nyt_scaling&gt;100&lt;/nyt_scaling&gt;</tspan><tspan x="0" y="72" font-family="'MyriadPro-Regular'" font-size="12">  &lt;nyt_transparency&gt;true&lt;/nyt_transparency&gt;</tspan><tspan x="0" y="86.4" font-family="'MyriadPro-Regular'" font-size="12">  &lt;nyt_format&gt;EPS&lt;/nyt_format&gt;</tspan><tspan x="0" y="100.8" font-family="'MyriadPro-Regular'" font-size="12">  &lt;nyt_export_code&gt;artboards&lt;/nyt_export_code&gt;</tspan><tspan x="0" y="115.2" font-family="'MyriadPro-Regular'" font-size="12">&lt;/nyt_prefs&gt;</tspan></text>
</g>
</svg>
