<?xml version="1.0" encoding="utf-8"?>
<!-- Generator: Adobe Illustrator 16.0.4, SVG Export Plug-In . SVG Version: 6.00 Build 0)  -->
<!DOCTYPE svg PUBLIC "-//W3C//DTD SVG 1.1//EN" "http://www.w3.org/Graphics/SVG/1.1/DTD/svg11.dtd">
<svg version="1.1" xmlns="http://www.w3.org/2000/svg" xmlns:xlink="http://www.w3.org/1999/xlink" x="0px" y="0px" width="100px"
	 height="100px" viewBox="0 0 100 100" enable-background="new 0 0 100 100" xml:space="preserve">
<g id="Layer_1">
	<g>
		<g>
			<g>
				<g>
					<polygon fill="#19486F" points="28.035,33.853 28.035,33.915 28.008,33.876 					"/>
				</g>
			</g>
			<g enable-background="new    ">
				<g>
					<defs>
						<path id="SVGID_1_" d="M71.992,27.196v2.316c0,3.096-9.826,5.627-21.953,5.627c-12.115,0-21.951-2.531-21.951-5.627v-2.316
							c0,3.102,9.836,5.631,21.951,5.631C62.166,32.827,71.992,30.298,71.992,27.196z"/>
					</defs>
					<use xlink:href="#SVGID_1_"  overflow="visible" fill="#19486F"/>
					<clipPath id="SVGID_2_">
						<use xlink:href="#SVGID_1_"  overflow="visible"/>
					</clipPath>
					<g clip-path="url(#SVGID_2_)" enable-background="new    ">
						<path fill="#19486F" d="M71.992,27.196v2.316c0,0.074-0.004,0.148-0.016,0.223v-2.312
							C71.988,27.349,71.992,27.274,71.992,27.196"/>
						<path fill="#19486F" d="M71.977,27.423v2.312c-0.014,0.086-0.035,0.176-0.066,0.27v-2.316
							C71.941,27.603,71.963,27.511,71.977,27.423"/>
						<path fill="#19486F" d="M71.91,27.688v2.316c-0.041,0.115-0.092,0.234-0.16,0.348V28.04
							C71.818,27.921,71.869,27.808,71.91,27.688"/>
						<path fill="#19486F" d="M71.75,28.04v2.312c-1.59,2.701-10.703,4.787-21.711,4.787c-12.115,0-21.951-2.531-21.951-5.627
							v-2.316c0,3.102,9.836,5.631,21.951,5.631C61.047,32.827,70.16,30.741,71.75,28.04"/>
					</g>
				</g>
				<g>
					<path fill="#2E73B7" d="M50.039,21.567c12.127,0,21.953,2.514,21.953,5.629c0,3.102-9.826,5.631-21.953,5.631
						c-12.115,0-21.951-2.529-21.951-5.631C28.088,24.081,37.924,21.567,50.039,21.567z"/>
				</g>
				<g>
					<defs>
						<path id="SVGID_3_" d="M71.945,69.665v2.312c-0.021,3.576-9.857,6.455-21.977,6.455c-12.125,0-21.955-2.879-21.955-6.424
							V69.69c0,3.551,9.83,6.424,21.955,6.424C62.088,76.114,71.924,73.241,71.945,69.665z"/>
					</defs>
					<use xlink:href="#SVGID_3_"  overflow="visible" fill="#19486F"/>
					<clipPath id="SVGID_4_">
						<use xlink:href="#SVGID_3_"  overflow="visible"/>
					</clipPath>
					<g clip-path="url(#SVGID_4_)" enable-background="new    ">
						<path fill="#19486F" d="M71.945,69.665v2.312c0,0.094-0.008,0.188-0.021,0.283v-2.318
							C71.938,69.853,71.945,69.755,71.945,69.665"/>
						<path fill="#19486F" d="M71.924,69.942v2.318c-0.021,0.121-0.051,0.244-0.092,0.363v-2.318
							C71.873,70.19,71.902,70.065,71.924,69.942"/>
						<path fill="#19486F" d="M71.832,70.306v2.318c-0.051,0.143-0.115,0.289-0.199,0.432v-2.312
							C71.717,70.599,71.781,70.458,71.832,70.306"/>
						<path fill="#19486F" d="M71.633,70.743v2.312c-1.764,3.059-10.797,5.377-21.664,5.377c-12.125,0-21.955-2.879-21.955-6.424
							V69.69c0,3.551,9.83,6.424,21.955,6.424C60.836,76.114,69.869,73.802,71.633,70.743"/>
					</g>
				</g>
			</g>
		</g>
		<path fill="#2E73B7" d="M71.928,31.763c-1.232,3.383-9.834,5.404-21.959,5.404c-12.078,0-20.338-2.299-21.934-5.568L28.014,69.69
			c0,3.551,9.83,6.424,21.955,6.424c12.119,0,21.955-2.873,21.977-6.449L71.928,31.763z"/>
		<g>
			<path fill="#FFFFFF" d="M35.654,43.483H43.9l6.229,18.193h0.076l5.896-18.193h8.246v26.459h-5.484v-18.75h-0.076l-6.529,18.75
				h-4.516l-6.527-18.564h-0.078v18.564h-5.482V43.483z"/>
		</g>
	</g>
</g>
<g id="nyt_x5F_exporter_x5F_info" display="none">
</g>
</svg>
