<?xml version="1.0" encoding="utf-8"?>
<!-- Generator: Adobe Illustrator 16.0.4, SVG Export Plug-In . SVG Version: 6.00 Build 0)  -->
<!DOCTYPE svg PUBLIC "-//W3C//DTD SVG 1.1//EN" "http://www.w3.org/Graphics/SVG/1.1/DTD/svg11.dtd">
<svg version="1.1" xmlns="http://www.w3.org/2000/svg" xmlns:xlink="http://www.w3.org/1999/xlink" x="0px" y="0px" width="100px"
	 height="100px" viewBox="0 0 100 100" enable-background="new 0 0 100 100" xml:space="preserve">
<g id="Layer_1">
	<g>
		<g>
			<g>
				<g enable-background="new    ">
					<g>
						<path fill="#2E73B7" d="M49.958,21.463c4.514,0,8.372,0.359,11.544,0.936c6.796,1.205,10.422,3.289,10.422,4.568
							c0,1.277-3.626,3.377-10.422,4.586c-3.172,0.561-7.03,0.934-11.544,0.934c-14.201,0-21.952-3.65-21.952-5.52
							C28.006,25.1,35.757,21.463,49.958,21.463z"/>
					</g>
					<g enable-background="new    ">
						<defs>
							<path id="SVGID_5_" enable-background="new    " d="M71.924,26.967v2.789c0,1.277-3.626,3.377-10.422,4.582
								c-3.172,0.561-7.03,0.938-11.544,0.938c-14.201,0-21.952-3.65-21.952-5.52v-2.789c0,1.869,7.751,5.52,21.952,5.52
								c4.514,0,8.372-0.373,11.544-0.934C68.298,30.344,71.924,28.244,71.924,26.967z"/>
						</defs>
						<use xlink:href="#SVGID_5_"  overflow="visible" fill="#19486F"/>
						<clipPath id="SVGID_2_">
							<use xlink:href="#SVGID_5_"  overflow="visible"/>
						</clipPath>
						<g clip-path="url(#SVGID_2_)" enable-background="new    ">
							<path fill="#19486F" d="M71.924,26.967v2.789c0,0.037-0.003,0.078-0.009,0.115v-2.787
								C71.921,27.045,71.924,27.008,71.924,26.967"/>
							<path fill="#19486F" d="M71.915,27.084v2.787c-0.01,0.051-0.023,0.104-0.042,0.158v-2.791
								C71.892,27.188,71.905,27.135,71.915,27.084"/>
							<path fill="#19486F" d="M71.873,27.238v2.791c-0.027,0.076-0.063,0.152-0.112,0.232v-2.789
								C71.81,27.393,71.846,27.314,71.873,27.238"/>
							<path fill="#19486F" d="M71.761,27.473v2.789c-0.775,1.275-4.299,3.02-10.259,4.076c-3.172,0.561-7.03,0.938-11.544,0.938
								c-14.201,0-21.952-3.65-21.952-5.52v-2.789c0,1.869,7.751,5.52,21.952,5.52c4.514,0,8.372-0.373,11.544-0.934
								C67.462,30.494,70.985,28.748,71.761,27.473"/>
						</g>
					</g>
					<g enable-background="new    ">
						<defs>
							<path id="SVGID_7_" enable-background="new    " d="M33.288,73.477v2.789c-2.922-1.037-5.016-2.17-5.249-3.049V70.43
								C28.272,71.307,30.366,72.441,33.288,73.477z"/>
						</defs>
						<use xlink:href="#SVGID_7_"  overflow="visible" fill="#19486F"/>
						<clipPath id="SVGID_4_">
							<use xlink:href="#SVGID_7_"  overflow="visible"/>
						</clipPath>
					</g>
					<g enable-background="new    ">
						<defs>
							<path id="SVGID_9_" enable-background="new    " d="M71.962,70.271v2.789c0,1.91-6.08,5.477-20.702,5.477
								c-8.001,0-14.048-1.02-17.972-2.271l-0.516-3.113c3.925,1.25,10.486,2.596,18.487,2.596
								C65.882,75.748,71.962,72.184,71.962,70.271z"/>
						</defs>
						<use xlink:href="#SVGID_9_"  overflow="visible" fill="#19486F"/>
						<clipPath id="SVGID_6_">
							<use xlink:href="#SVGID_9_"  overflow="visible"/>
						</clipPath>
						<g clip-path="url(#SVGID_6_)" enable-background="new    ">
							<path fill="#19486F" d="M71.962,70.271v2.789c0,0.053-0.004,0.104-0.013,0.154v-2.787
								C71.958,70.375,71.962,70.322,71.962,70.271"/>
							<path fill="#19486F" d="M71.949,70.428v2.787c-0.012,0.066-0.028,0.135-0.054,0.207v-2.789
								C71.921,70.564,71.938,70.496,71.949,70.428"/>
							<path fill="#19486F" d="M71.896,70.633v2.789c-0.033,0.096-0.08,0.193-0.141,0.293V70.93
								C71.815,70.826,71.862,70.729,71.896,70.633"/>
							<path fill="#19486F" d="M71.755,70.93v2.785c-1.174,1.969-7.418,4.822-20.495,4.822c-8.001,0-14.048-1.02-17.972-2.271
								l-0.641-3.281c3.925,1.25,10.611,2.764,18.612,2.764C64.337,75.748,70.581,72.898,71.755,70.93"/>
						</g>
					</g>
				</g>
			</g>
			<path fill="#2E73B7" d="M61.235,36.035c-0.604,0.115-1.209,0.201-1.813,0.291c-0.312,0.039-0.622,0.1-0.946,0.127
				c-0.559,0.072-1.133,0.129-1.709,0.186c-0.372,0.031-0.744,0.072-1.117,0.088c-0.729,0.057-1.474,0.1-2.221,0.127l-0.372,0.014
				c-0.867,0.047-1.752,0.061-2.669,0.074c-0.186,0-0.371,0-0.572,0c-8.725,0-17.509-1.496-21.776-4.354V70.43
				c0.233,0.877,2.312,2.012,5.214,3.047c3.928,1.25,9.98,2.271,17.99,2.271c14.635,0,20.719-3.564,20.719-5.477l0.032-38.029
				C69.712,33.838,66.018,35.201,61.235,36.035z"/>
		</g>
		<g>
			<path fill="#FFFFFF" d="M44.29,60.43c0,3.629,2.846,5.041,6.076,5.041c2.114,0,5.344-0.609,5.344-3.398
				c0-2.939-4.113-3.436-8.151-4.506c-4.077-1.072-8.19-2.637-8.19-7.754c0-5.576,5.305-8.25,10.266-8.25c5.73,0,11,2.484,11,8.785
				h-5.846c-0.192-3.285-2.539-4.123-5.424-4.123c-1.922,0-4.152,0.803-4.152,3.094c0,2.098,1.309,2.369,8.19,4.125
				c2.001,0.498,8.154,1.756,8.154,7.941c0,5.004-3.961,8.748-11.422,8.748c-6.075,0-11.769-2.98-11.691-9.703H44.29z"/>
		</g>
	</g>
</g>
<g id="nyt_x5F_exporter_x5F_info" display="none">
</g>
</svg>
