<?xml version="1.0" encoding="utf-8"?>
<!-- Generator: Adobe Illustrator 16.0.4, SVG Export Plug-In . SVG Version: 6.00 Build 0)  -->
<!DOCTYPE svg PUBLIC "-//W3C//DTD SVG 1.1//EN" "http://www.w3.org/Graphics/SVG/1.1/DTD/svg11.dtd">
<svg version="1.1" xmlns="http://www.w3.org/2000/svg" xmlns:xlink="http://www.w3.org/1999/xlink" x="0px" y="0px" width="100px"
	 height="100px" viewBox="0 0 100 100" enable-background="new 0 0 100 100" xml:space="preserve">
<g id="Layer_1">
	<g>
		<g>
			<g>
				<g enable-background="new    ">
					<g>
						<path fill="#2E73B7" d="M49.994,21.527c4.473,0,8.295,0.373,11.438,0.932c6.732,1.205,10.307,3.297,10.307,4.574
							s-3.574,3.367-10.307,4.57c-3.143,0.561-6.965,0.934-11.438,0.934c-14.068,0-21.744-3.641-21.744-5.504
							S35.926,21.527,49.994,21.527z"/>
					</g>
					<g enable-background="new    ">
						<defs>
							<path id="SVGID_11_" enable-background="new    " d="M71.738,27.033v2.783c0,1.273-3.574,3.367-10.307,4.57
								c-3.143,0.561-6.965,0.932-11.438,0.932c-14.068,0-21.744-3.641-21.744-5.502v-2.783c0,1.863,7.676,5.504,21.744,5.504
								c4.473,0,8.295-0.373,11.438-0.934C68.164,30.4,71.738,28.311,71.738,27.033z"/>
						</defs>
						<use xlink:href="#SVGID_11_"  overflow="visible" fill="#19486F"/>
						<clipPath id="SVGID_2_">
							<use xlink:href="#SVGID_11_"  overflow="visible"/>
						</clipPath>
						<g clip-path="url(#SVGID_2_)" enable-background="new    ">
							<path fill="#19486F" d="M71.738,27.033v2.783c0,0.035-0.004,0.074-0.01,0.113V27.15
								C71.734,27.109,71.738,27.07,71.738,27.033"/>
							<path fill="#19486F" d="M71.729,27.15v2.779c-0.008,0.053-0.021,0.104-0.039,0.158v-2.781
								C71.707,27.254,71.721,27.199,71.729,27.15"/>
							<path fill="#19486F" d="M71.689,27.307v2.781c-0.029,0.078-0.066,0.154-0.113,0.234v-2.781
								C71.623,27.461,71.66,27.383,71.689,27.307"/>
							<path fill="#19486F" d="M71.576,27.541v2.781c-0.768,1.273-4.244,3.01-10.145,4.064c-3.143,0.561-6.965,0.932-11.438,0.932
								c-14.068,0-21.744-3.641-21.744-5.502v-2.783c0,1.863,7.676,5.504,21.744,5.504c4.473,0,8.295-0.373,11.438-0.934
								C67.332,30.549,70.809,28.812,71.576,27.541"/>
						</g>
					</g>
					<g enable-background="new    ">
						<defs>
							<path id="SVGID_13_" enable-background="new    " d="M33.48,73.424v2.783c-2.895-1.033-4.969-2.164-5.201-3.039v-2.783
								C28.512,71.262,30.586,72.393,33.48,73.424z"/>
						</defs>
						<use xlink:href="#SVGID_13_"  overflow="visible" fill="#19486F"/>
						<clipPath id="SVGID_4_">
							<use xlink:href="#SVGID_13_"  overflow="visible"/>
						</clipPath>
					</g>
					<g enable-background="new    ">
						<defs>
							<path id="SVGID_15_" enable-background="new    " d="M71.721,70.229v2.781c0,1.908-6.01,5.463-20.471,5.463
								c-7.91,0-13.891-1.033-17.77-2.266l-0.357-3.357c3.879,1.234,10.217,2.842,18.127,2.842
								C65.711,75.691,71.721,72.135,71.721,70.229z"/>
						</defs>
						<use xlink:href="#SVGID_15_"  overflow="visible" fill="#19486F"/>
						<clipPath id="SVGID_6_">
							<use xlink:href="#SVGID_15_"  overflow="visible"/>
						</clipPath>
						<g clip-path="url(#SVGID_6_)" enable-background="new    ">
							<path fill="#19486F" d="M71.721,70.229v2.781c0,0.049-0.004,0.105-0.012,0.156v-2.783
								C71.717,70.33,71.721,70.279,71.721,70.229"/>
							<path fill="#19486F" d="M71.709,70.383v2.783c-0.012,0.066-0.029,0.137-0.053,0.207v-2.785
								C71.68,70.52,71.697,70.449,71.709,70.383"/>
							<path fill="#19486F" d="M71.656,70.588v2.785c-0.033,0.092-0.08,0.191-0.141,0.293v-2.783
								C71.576,70.783,71.623,70.682,71.656,70.588"/>
							<path fill="#19486F" d="M71.516,70.883v2.783c-1.162,1.963-7.336,4.807-20.266,4.807c-7.91,0-13.891-1.033-17.77-2.266
								l-1.107-3.65c3.879,1.234,10.967,3.135,18.877,3.135C64.18,75.691,70.354,72.846,71.516,70.883"/>
						</g>
					</g>
				</g>
			</g>
			<path fill="#2E73B7" d="M61.113,36.08c-0.598,0.111-1.197,0.197-1.795,0.285c-0.322,0.041-0.613,0.086-0.938,0.129
				c-0.553,0.07-1.121,0.129-1.688,0.172c-0.369,0.043-0.738,0.07-1.107,0.1c-0.719,0.057-1.457,0.102-2.209,0.129l-0.352,0.016
				c-0.861,0.041-1.734,0.059-2.656,0.059c-0.186,0-0.369,0.016-0.553,0.016c-8.627,0-17.314-1.492-21.537-4.359v37.76
				c0.23,0.877,2.289,2.008,5.158,3.039c3.885,1.234,9.871,2.268,17.791,2.268c14.475,0,20.492-3.557,20.492-5.463l0.029-37.936
				C69.494,33.885,65.842,35.248,61.113,36.08z"/>
		</g>
		<g>
			<path fill="#FFFFFF" d="M39.229,42.477h13.484c4.484,0,7.322,3.098,7.322,6.855c0,2.92-1.191,5.111-3.959,6.227v0.07
				c2.699,0.693,3.469,3.303,3.646,5.809c0.102,1.564,0.066,4.488,1.049,5.879h-5.5c-0.666-1.566-0.596-3.965-0.877-5.947
				c-0.383-2.607-1.398-3.76-4.168-3.76h-5.5v9.707h-5.498V42.477z M44.727,53.713h6.027c2.449,0,3.783-1.041,3.783-3.551
				c0-2.396-1.334-3.441-3.783-3.441h-6.027V53.713z"/>
		</g>
	</g>
</g>
<g id="nyt_x5F_exporter_x5F_info" display="none">
</g>
</svg>
