<?xml version="1.0" encoding="utf-8"?>
<!-- Generator: Adobe Illustrator 16.0.4, SVG Export Plug-In . SVG Version: 6.00 Build 0)  -->
<!DOCTYPE svg PUBLIC "-//W3C//DTD SVG 1.1//EN" "http://www.w3.org/Graphics/SVG/1.1/DTD/svg11.dtd">
<svg version="1.1" xmlns="http://www.w3.org/2000/svg" xmlns:xlink="http://www.w3.org/1999/xlink" x="0px" y="0px" width="100px"
	 height="100px" viewBox="0 0 100 100" enable-background="new 0 0 100 100" xml:space="preserve">
<g id="Layer_1">
	<g>
		<g>
			<g>
				<line fill="#19486F" x1="76.418" y1="25.543" x2="76.418" y2="28.145"/>
			</g>
			<g>
				<defs>
					<path id="SVGID_17_" d="M76.096,47.799c-3.736-1.236-7.826-1.4-11.305-1.4c-5.078,0-11.492,1.166-12.74,2.891l-0.047-2.377
						c0.459-2.094,6.449-3.871,11.727-3.871c1.789,0,9.818,0.812,12.387,2.145"/>
				</defs>
				<use xlink:href="#SVGID_17_"  overflow="visible" fill="#19486F"/>
				<clipPath id="SVGID_2_">
					<use xlink:href="#SVGID_17_"  overflow="visible"/>
				</clipPath>
				<g clip-path="url(#SVGID_2_)" enable-background="new    ">
					<path fill="#19486F" d="M52.252,46.5v2.602c-0.053,0.09-0.092,0.184-0.127,0.279v-2.604
						C52.16,46.682,52.199,46.588,52.252,46.5"/>
					<path fill="#19486F" d="M52.125,46.777v2.604c-0.014,0.045-0.025,0.094-0.037,0.141v-2.605
						C52.1,46.869,52.111,46.822,52.125,46.777"/>
				</g>
			</g>
			<g>
				<path fill="#2E73B7" d="M65.586,48.768c2.195,0,4.057,0.176,5.6,0.42c3.301,0.549,5.045,1.486,5.045,2.066
					c0,0.576-1.744,1.512-5.045,2.049c-1.543,0.258-3.404,0.416-5.6,0.416c-6.893,0-10.646-1.631-10.646-2.465
					C54.939,50.414,58.693,48.768,65.586,48.768z"/>
			</g>
			<g>
				<defs>
					<path id="SVGID_19_" d="M76.23,51.254v2.797c0,0.58-1.744,1.518-5.045,2.049c-1.543,0.264-3.404,0.42-5.6,0.42
						c-6.893,0-10.646-1.629-10.646-2.469v-2.797c0,0.834,3.754,2.465,10.646,2.465c2.195,0,4.057-0.158,5.6-0.416
						C74.486,52.766,76.23,51.83,76.23,51.254z"/>
				</defs>
				<use xlink:href="#SVGID_19_"  overflow="visible" fill="#19486F"/>
				<clipPath id="SVGID_4_">
					<use xlink:href="#SVGID_19_"  overflow="visible"/>
				</clipPath>
				<g clip-path="url(#SVGID_4_)" enable-background="new    ">
					<path fill="#19486F" d="M76.23,51.254v2.797c0,0.016,0,0.033-0.002,0.049v-2.801C76.23,51.283,76.23,51.268,76.23,51.254"/>
					<path fill="#19486F" d="M76.229,51.299V54.1c-0.004,0.018-0.008,0.035-0.016,0.057v-2.801
						C76.221,51.336,76.225,51.316,76.229,51.299"/>
					<path fill="#19486F" d="M76.213,51.355v2.801c-0.008,0.025-0.021,0.053-0.035,0.086v-2.805
						C76.191,51.412,76.205,51.383,76.213,51.355"/>
					<path fill="#19486F" d="M76.178,51.438v2.805c-0.32,0.576-2.031,1.379-4.992,1.857c-1.543,0.264-3.404,0.42-5.6,0.42
						c-6.893,0-10.646-1.629-10.646-2.469v-2.797c0,0.834,3.754,2.465,10.646,2.465c2.195,0,4.057-0.158,5.6-0.416
						C74.146,52.82,75.857,52.018,76.178,51.438"/>
				</g>
			</g>
			<g>
				<g enable-background="new    ">
					<path fill="#19486F" d="M76.406,73.189v2.803c0,0.02-0.002,0.041-0.006,0.062v-2.803
						C76.404,73.234,76.406,73.213,76.406,73.189"/>
					<path fill="#19486F" d="M76.4,73.252v2.803c-0.002,0.025-0.01,0.049-0.02,0.072v-2.799
						C76.391,73.303,76.398,73.279,76.4,73.252"/>
					<path fill="#19486F" d="M76.381,73.328v2.799c-0.01,0.041-0.027,0.08-0.053,0.121v-2.803
						C76.354,73.408,76.371,73.367,76.381,73.328"/>
				</g>
				<path fill="#19486F" d="M66.338,75.551c-3.895,0-6.889-0.351-9.02-1l0.002-1.082c-1.324-0.643-2.26-1.371-2.367-1.918
					l0.01,4.578c0.211,0.326,0.68,0.666,2.346,1.227V77.35c2.133,0.653,5.076,1.109,8.977,1.109c7.154,0,10.121-1.6,10.121-2.467
					v-2.803C76.406,74.059,73.492,75.551,66.338,75.551z"/>
			</g>
			<g>
				<defs>
					<path id="SVGID_21_" d="M27.756,74.479v2.605c-2.219,0-4.018-1.787-4.018-4.002l-0.129-2.545
						C23.609,72.748,25.537,74.479,27.756,74.479z"/>
				</defs>
				<use xlink:href="#SVGID_21_"  overflow="visible" fill="#19486F"/>
				<clipPath id="SVGID_6_">
					<use xlink:href="#SVGID_21_"  overflow="visible"/>
				</clipPath>
			</g>
			<g>
				<polygon fill="#19486F" points="53.602,74.451 53.602,77.055 27.756,77.084 27.191,73.662 				"/>
			</g>
			<g>
				<path fill="#2E73B7" d="M76.133,45.518c-3.807-1.332-10.055-1.381-11.842-1.355c-5.215,0.07-11.16,1.309-12.156,2.85
					l-0.041,0.309l0.014,0.953l-0.014,24.822c0,0.455,0.979,1.064,1.51,1.361L27.6,74.479c-2.217,0-4.018-1.789-4.018-4V25.529
					c0-2.201,1.801-3.986,4.018-3.986l44.67-0.002c2.223,0,4.02,1.785,4.02,4.002"/>
			</g>
			<g>
				<path fill="#2E73B7" d="M76.418,56.1l-0.012,17.09c0,0.869-2.967,2.473-10.121,2.473c-3.912,0-6.863-0.465-8.787-1.027
					c-1.424-0.463-2.428-0.98-2.543-1.371V56.262c2.082,1.287,6.371,1.959,10.631,1.959h0.277c0.449-0.014,0.871-0.014,1.307-0.027
					l0.176-0.012c0.379-0.016,0.729-0.031,1.092-0.061c0.188-0.012,0.361-0.027,0.537-0.043c0.289-0.027,0.566-0.043,0.842-0.07
					c0.162-0.031,0.307-0.045,0.453-0.074c0.305-0.029,0.596-0.07,0.9-0.111C73.496,57.443,75.299,56.824,76.418,56.1z"/>
			</g>
		</g>
		<polygon fill="#FFFFFF" points="35.998,34.439 35.973,34.439 34.258,27.291 31.836,27.291 31.836,36.936 33.305,36.936 
			33.305,28.91 33.332,28.91 35.291,36.936 36.596,36.936 38.559,28.91 38.584,28.91 38.584,36.936 40.055,36.936 40.055,27.291 
			37.686,27.291 		"/>
		<path fill="#FFFFFF" d="M44.172,35.129h-0.025l-1.264-5.461h-1.58l2.082,7.436l-0.189,0.59c-0.164,0.463-0.49,0.57-0.994,0.57
			c-0.166,0-0.312-0.027-0.477-0.055v1.162c0.191,0.025,0.395,0.055,0.584,0.055c1.512,0.027,1.986-0.23,2.559-2.219l2.016-7.539
			h-1.539L44.172,35.129z"/>
		<path fill="#FFFFFF" d="M51.969,31.668l-1.045-0.379c-1.035-0.391-1.457-0.811-1.457-1.637c0-1.023,0.641-1.391,1.307-1.391
			c0.967,0,1.359,0.514,1.359,1.391v0.203h1.549v-0.217c0-0.998-0.254-2.537-2.746-2.537c-1.822,0-3.02,0.971-3.02,2.727
			c0,1.381,0.611,2.109,2.027,2.648l1.061,0.367c0.871,0.258,1.387,0.701,1.387,1.719c0,0.713-0.488,1.404-1.467,1.404
			c-1.078,0-1.594-0.598-1.594-1.771v-0.244h-1.551v0.232c0,1.352,0.543,2.939,2.951,2.939c1.961,0,3.213-0.848,3.213-2.9
			C53.943,32.898,53.346,32.152,51.969,31.668z"/>
		<path fill="#FFFFFF" d="M60.037,36.803l0.994,1l0.922-0.824l-0.99-1.037c0.434-0.709,0.76-2.047,0.76-3.828
			c0-3.443-0.979-5.012-3.211-5.012s-3.209,1.568-3.209,5.012c0,3.445,0.977,5.01,3.209,5.01
			C59.127,37.123,59.643,37.033,60.037,36.803z M56.854,32.074c0-3.244,0.732-3.812,1.658-3.812c0.928,0,1.662,0.568,1.662,3.812
			c0,1.354-0.096,2.256-0.314,2.838l-0.639-0.633l-0.885,0.875l0.736,0.715c-0.18,0.072-0.355,0.098-0.561,0.098
			C57.586,35.967,56.854,35.398,56.854,32.074z"/>
		<polygon fill="#FFFFFF" points="68.568,35.639 64.812,35.639 64.812,27.291 63.26,27.291 63.26,36.936 68.568,36.936 		"/>
		<polygon fill="#FFFFFF" points="65.725,69.797 65.689,69.797 63.416,60.311 60.201,60.311 60.201,73.113 62.148,73.113 
			62.148,62.465 62.184,62.465 64.785,73.113 66.52,73.113 69.121,62.465 69.156,62.465 69.156,73.113 71.104,73.113 71.104,60.311 
			67.963,60.311 		"/>
	</g>
</g>
<g id="nyt_x5F_exporter_x5F_info" display="none">
</g>
</svg>
