<?xml version="1.0" encoding="utf-8"?>
<!-- Generator: Adobe Illustrator 16.0.4, SVG Export Plug-In . SVG Version: 6.00 Build 0)  -->
<!DOCTYPE svg PUBLIC "-//W3C//DTD SVG 1.1//EN" "http://www.w3.org/Graphics/SVG/1.1/DTD/svg11.dtd">
<svg version="1.1" xmlns="http://www.w3.org/2000/svg" xmlns:xlink="http://www.w3.org/1999/xlink" x="0px" y="0px" width="100px"
	 height="100px" viewBox="0 0 100 100" enable-background="new 0 0 100 100" xml:space="preserve">
<g id="Layer_1">
	<g>
		<g>
			<line fill="#19486F" x1="76.345" y1="25.607" x2="76.345" y2="28.207"/>
		</g>
		<g>
			<defs>
				<path id="SVGID_33_" d="M76.024,47.803c-3.727-1.23-7.805-1.395-11.274-1.395c-5.062,0-11.462,1.164-12.706,2.885l-0.047-2.371
					c0.459-2.09,6.432-3.861,11.697-3.861c1.783,0,9.791,0.811,12.352,2.137"/>
			</defs>
			<use xlink:href="#SVGID_33_"  overflow="visible" fill="#19486F"/>
			<clipPath id="SVGID_2_">
				<use xlink:href="#SVGID_33_"  overflow="visible"/>
			</clipPath>
			<g clip-path="url(#SVGID_2_)" enable-background="new    ">
				<path fill="#19486F" d="M52.248,46.51v2.596c-0.052,0.088-0.094,0.182-0.126,0.277v-2.596
					C52.154,46.691,52.196,46.598,52.248,46.51"/>
				<path fill="#19486F" d="M52.122,46.787v2.596c-0.016,0.047-0.027,0.094-0.039,0.139v-2.596
					C52.095,46.879,52.106,46.83,52.122,46.787"/>
			</g>
		</g>
		<g>
			<path fill="#2E73B7" d="M65.545,48.773c2.188,0,4.046,0.172,5.581,0.416c3.293,0.547,5.035,1.484,5.035,2.061
				c0,0.574-1.742,1.51-5.035,2.041c-1.535,0.262-3.393,0.42-5.581,0.42c-6.877,0-10.618-1.627-10.618-2.461
				C54.927,50.412,58.668,48.773,65.545,48.773z"/>
		</g>
		<g>
			<defs>
				<path id="SVGID_35_" d="M76.161,51.25v2.791c0,0.576-1.742,1.51-5.035,2.043c-1.535,0.264-3.393,0.42-5.581,0.42
					c-6.877,0-10.618-1.625-10.618-2.463V51.25c0,0.834,3.741,2.461,10.618,2.461c2.188,0,4.046-0.158,5.581-0.42
					C74.419,52.76,76.161,51.824,76.161,51.25z"/>
			</defs>
			<use xlink:href="#SVGID_35_"  overflow="visible" fill="#19486F"/>
			<clipPath id="SVGID_4_">
				<use xlink:href="#SVGID_35_"  overflow="visible"/>
			</clipPath>
			<g clip-path="url(#SVGID_4_)" enable-background="new    ">
				<path fill="#19486F" d="M76.161,51.25v2.791c0,0.014-0.003,0.029-0.003,0.043v-2.791C76.158,51.277,76.161,51.262,76.161,51.25"
					/>
				<path fill="#19486F" d="M76.158,51.293v2.791c-0.003,0.021-0.009,0.043-0.015,0.061v-2.793
					C76.149,51.332,76.155,51.312,76.158,51.293"/>
				<path fill="#19486F" d="M76.144,51.352v2.793c-0.01,0.029-0.024,0.055-0.039,0.086v-2.795
					C76.119,51.406,76.134,51.381,76.144,51.352"/>
				<path fill="#19486F" d="M76.104,51.436v2.795c-0.317,0.576-2.023,1.377-4.979,1.854c-1.535,0.264-3.393,0.42-5.581,0.42
					c-6.877,0-10.618-1.625-10.618-2.463V51.25c0,0.834,3.741,2.461,10.618,2.461c2.188,0,4.046-0.158,5.581-0.42
					C74.081,52.814,75.787,52.014,76.104,51.436"/>
			</g>
		</g>
		<g>
			<defs>
				<path id="SVGID_37_" d="M57.3,73.406l-0.01,3.871c-1.662-0.553-2.154-0.928-2.363-1.254l0.014-4.531
					C55.046,72.037,55.978,72.762,57.3,73.406z"/>
			</defs>
			<use xlink:href="#SVGID_37_"  overflow="visible" fill="#19486F"/>
			<clipPath id="SVGID_6_">
				<use xlink:href="#SVGID_37_"  overflow="visible"/>
			</clipPath>
		</g>
		<g>
			<defs>
				<path id="SVGID_39_" d="M76.335,73.127v2.793c0,0.865-2.962,2.461-10.094,2.461c-3.902,0-6.846-0.457-8.973-1.113v-2.791
					c2.127,0.652,5.07,1.113,8.973,1.113C73.373,75.59,76.335,73.992,76.335,73.127z"/>
			</defs>
			<use xlink:href="#SVGID_39_"  overflow="visible" fill="#19486F"/>
			<clipPath id="SVGID_8_">
				<use xlink:href="#SVGID_39_"  overflow="visible"/>
			</clipPath>
			<g clip-path="url(#SVGID_8_)" enable-background="new    ">
				<path fill="#19486F" d="M76.335,73.127v2.793c0,0.021-0.004,0.043-0.007,0.064v-2.795C76.331,73.17,76.335,73.15,76.335,73.127"
					/>
				<path fill="#19486F" d="M76.328,73.189v2.795c-0.002,0.021-0.008,0.049-0.017,0.072v-2.793
					C76.32,73.238,76.326,73.217,76.328,73.189"/>
				<path fill="#19486F" d="M76.312,73.264v2.793c-0.012,0.041-0.03,0.078-0.053,0.119v-2.793
					C76.281,73.342,76.3,73.303,76.312,73.264"/>
				<path fill="#19486F" d="M76.259,73.359v2.791c-0.504,0.891-3.539,2.209-10.018,2.209c-3.902,0-7.057-0.506-8.973-1.066v-2.795
					c1.916,0.561,5.07,1.07,8.973,1.07C72.72,75.568,75.755,74.248,76.259,73.359"/>
			</g>
		</g>
		<g>
			<defs>
				<path id="SVGID_41_" d="M27.816,74.414v2.596c-2.213,0-4.009-1.781-4.009-3.992v-2.596
					C23.808,72.629,25.604,74.414,27.816,74.414z"/>
			</defs>
			<use xlink:href="#SVGID_41_"  overflow="visible" fill="#19486F"/>
			<clipPath id="SVGID_10_">
				<use xlink:href="#SVGID_41_"  overflow="visible"/>
			</clipPath>
			<g clip-path="url(#SVGID_10_)" enable-background="new    ">
				<path fill="#19486F" d="M27.816,74.414v2.596c-2.213,0-4.009-1.781-4.009-3.992v-2.596
					C23.808,72.629,25.604,74.414,27.816,74.414"/>
			</g>
		</g>
		<g>
			<polygon fill="#19486F" points="53.591,74.383 53.591,76.982 27.816,77.01 27.816,74.414 			"/>
		</g>
		<g>
			<path fill="#2E73B7" d="M76.061,45.529c-3.794-1.326-10.026-1.373-11.81-1.35c-5.2,0.07-11.128,1.303-12.121,2.842l-0.041,0.311
				l0.015,0.945l-0.015,24.754c0,0.457,0.961,0.953,1.363,1.352l-25.789,0.031c-2.213,0-4.008-1.785-4.008-3.992V25.598
				c0-2.195,1.795-3.977,4.008-3.977l44.547-0.002c2.215,0,4.01,1.781,4.01,3.988"/>
		</g>
		<g>
			<path fill="#2E73B7" d="M76.345,56.084l-0.01,17.043c0,0.865-2.962,2.463-10.094,2.463c-3.902,0-6.846-0.461-8.761-1.021
				c-1.423-0.459-2.425-0.979-2.538-1.369V56.246c2.075,1.279,6.352,1.955,10.603,1.955h0.274c0.447-0.016,0.869-0.016,1.305-0.027
				l0.173-0.016c0.38-0.014,0.726-0.029,1.093-0.057c0.185-0.014,0.358-0.029,0.533-0.045c0.291-0.025,0.565-0.043,0.838-0.072
				c0.163-0.027,0.307-0.043,0.451-0.07c0.307-0.029,0.596-0.07,0.898-0.115C73.433,57.424,75.229,56.803,76.345,56.084z"/>
		</g>
		<polygon fill="#FFFFFF" points="65.663,69.746 65.628,69.746 63.358,60.287 60.153,60.287 60.153,73.053 62.095,73.053 
			62.095,62.43 62.134,62.43 64.726,73.053 66.452,73.053 69.048,62.43 69.083,62.43 69.083,73.053 71.028,73.053 71.028,60.287 
			67.893,60.287 		"/>
		<g>
			<path fill="#FFFFFF" d="M30.38,26.445h2.864l1.364,6.744h0.027l1.378-6.744h2.851V36h-1.767v-7.628h-0.026L35.372,36h-1.499
				l-1.7-7.628h-0.026V36H30.38V26.445z"/>
			<path fill="#FFFFFF" d="M41.799,33.016v0.281c0,0.896,0.254,1.472,1.271,1.472c0.588,0,1.15-0.374,1.15-1.178
				c0-0.869-0.441-1.19-1.713-1.632c-1.713-0.589-2.502-1.299-2.502-2.891c0-1.86,1.137-2.811,2.957-2.811
				c1.713,0,2.957,0.736,2.957,2.569v0.268h-1.847c0-0.896-0.308-1.418-1.044-1.418c-0.869,0-1.097,0.548-1.097,1.11
				c0,0.589,0.174,0.95,0.99,1.298l1.485,0.643c1.445,0.629,1.819,1.365,1.819,2.529c0,2.021-1.23,2.931-3.318,2.931
				c-2.182,0-3.038-1.018-3.038-2.783v-0.389H41.799z"/>
			<path fill="#FFFFFF" d="M51.96,33.016v0.281c0,0.896,0.254,1.472,1.271,1.472c0.588,0,1.15-0.374,1.15-1.178
				c0-0.869-0.441-1.19-1.713-1.632c-1.713-0.589-2.503-1.299-2.503-2.891c0-1.86,1.138-2.811,2.958-2.811
				c1.713,0,2.957,0.736,2.957,2.569v0.268h-1.847c0-0.896-0.308-1.418-1.044-1.418c-0.869,0-1.097,0.548-1.097,1.11
				c0,0.589,0.174,0.95,0.99,1.298l1.485,0.643c1.445,0.629,1.819,1.365,1.819,2.529c0,2.021-1.23,2.931-3.318,2.931
				c-2.182,0-3.038-1.018-3.038-2.783v-0.389H51.96z"/>
			<path fill="#FFFFFF" d="M62.815,37.178L61.678,36c-0.174,0.067-0.374,0.12-0.589,0.147c-0.2,0.026-0.428,0.04-0.683,0.04
				c-2.89,0-3.251-2.061-3.251-4.965s0.361-4.965,3.251-4.965c2.891,0,3.252,2.061,3.252,4.965c0,1.619-0.106,2.971-0.735,3.881
				l1.03,1.044L62.815,37.178z M60.406,34.769c1.138,0,1.325-0.977,1.325-3.546c0-2.556-0.188-3.546-1.325-3.546
				c-1.137,0-1.324,0.99-1.324,3.546C59.082,33.792,59.27,34.769,60.406,34.769z"/>
			<path fill="#FFFFFF" d="M64.799,36v-9.555h1.927v7.976h3.413V36H64.799z"/>
		</g>
	</g>
</g>
<g id="nyt_x5F_exporter_x5F_info" display="none">
</g>
</svg>
