<?xml version="1.0" encoding="utf-8"?>
<!-- Generator: Adobe Illustrator 16.0.4, SVG Export Plug-In . SVG Version: 6.00 Build 0)  -->
<!DOCTYPE svg PUBLIC "-//W3C//DTD SVG 1.1//EN" "http://www.w3.org/Graphics/SVG/1.1/DTD/svg11.dtd">
<svg version="1.1" xmlns="http://www.w3.org/2000/svg" xmlns:xlink="http://www.w3.org/1999/xlink" x="0px" y="0px" width="100px"
	 height="100px" viewBox="0 0 100 100" enable-background="new 0 0 100 100" xml:space="preserve">
<g id="Layer_1">
	<g>
		<g>
			<g>
				<line fill="#19486F" x1="76.345" y1="25.607" x2="76.345" y2="28.207"/>
			</g>
			<g>
				<defs>
					<path id="SVGID_23_" d="M76.024,47.803c-3.727-1.23-7.805-1.395-11.274-1.395c-5.062,0-11.462,1.164-12.706,2.885l-0.047-2.371
						c0.459-2.09,6.432-3.861,11.697-3.861c1.783,0,9.791,0.811,12.352,2.137"/>
				</defs>
				<use xlink:href="#SVGID_23_"  overflow="visible" fill="#19486F"/>
				<clipPath id="SVGID_2_">
					<use xlink:href="#SVGID_23_"  overflow="visible"/>
				</clipPath>
				<g clip-path="url(#SVGID_2_)" enable-background="new    ">
					<path fill="#19486F" d="M52.248,46.51v2.596c-0.052,0.088-0.094,0.182-0.126,0.277v-2.596
						C52.154,46.691,52.196,46.598,52.248,46.51"/>
					<path fill="#19486F" d="M52.122,46.787v2.596c-0.016,0.047-0.027,0.094-0.039,0.139v-2.596
						C52.095,46.879,52.106,46.83,52.122,46.787"/>
				</g>
			</g>
			<g>
				<path fill="#2E73B7" d="M65.545,48.773c2.188,0,4.046,0.172,5.581,0.416c3.293,0.547,5.035,1.484,5.035,2.061
					c0,0.574-1.742,1.51-5.035,2.041c-1.535,0.262-3.393,0.42-5.581,0.42c-6.877,0-10.618-1.627-10.618-2.461
					C54.927,50.412,58.668,48.773,65.545,48.773z"/>
			</g>
			<g>
				<defs>
					<path id="SVGID_25_" d="M76.161,51.25v2.791c0,0.576-1.742,1.51-5.035,2.043c-1.535,0.264-3.393,0.42-5.581,0.42
						c-6.877,0-10.618-1.625-10.618-2.463V51.25c0,0.834,3.741,2.461,10.618,2.461c2.188,0,4.046-0.158,5.581-0.42
						C74.419,52.76,76.161,51.824,76.161,51.25z"/>
				</defs>
				<use xlink:href="#SVGID_25_"  overflow="visible" fill="#19486F"/>
				<clipPath id="SVGID_4_">
					<use xlink:href="#SVGID_25_"  overflow="visible"/>
				</clipPath>
				<g clip-path="url(#SVGID_4_)" enable-background="new    ">
					<path fill="#19486F" d="M76.161,51.25v2.791c0,0.014-0.003,0.029-0.003,0.043v-2.791C76.158,51.277,76.161,51.262,76.161,51.25
						"/>
					<path fill="#19486F" d="M76.158,51.293v2.791c-0.003,0.021-0.009,0.043-0.015,0.061v-2.793
						C76.149,51.332,76.155,51.312,76.158,51.293"/>
					<path fill="#19486F" d="M76.144,51.352v2.793c-0.01,0.029-0.024,0.055-0.039,0.086v-2.795
						C76.119,51.406,76.134,51.381,76.144,51.352"/>
					<path fill="#19486F" d="M76.104,51.436v2.795c-0.317,0.576-2.023,1.377-4.979,1.854c-1.535,0.264-3.393,0.42-5.581,0.42
						c-6.877,0-10.618-1.625-10.618-2.463V51.25c0,0.834,3.741,2.461,10.618,2.461c2.188,0,4.046-0.158,5.581-0.42
						C74.081,52.814,75.787,52.014,76.104,51.436"/>
				</g>
			</g>
			<g>
				<defs>
					<path id="SVGID_27_" d="M57.3,73.406l-0.01,3.871c-1.662-0.553-2.154-0.928-2.363-1.254l0.014-4.531
						C55.046,72.037,55.978,72.762,57.3,73.406z"/>
				</defs>
				<use xlink:href="#SVGID_27_"  overflow="visible" fill="#19486F"/>
				<clipPath id="SVGID_6_">
					<use xlink:href="#SVGID_27_"  overflow="visible"/>
				</clipPath>
			</g>
			<g>
				<defs>
					<path id="SVGID_29_" d="M76.335,73.127v2.793c0,0.865-2.962,2.461-10.094,2.461c-3.902,0-6.846-0.457-8.973-1.113v-2.791
						c2.127,0.652,5.07,1.113,8.973,1.113C73.373,75.59,76.335,73.992,76.335,73.127z"/>
				</defs>
				<use xlink:href="#SVGID_29_"  overflow="visible" fill="#19486F"/>
				<clipPath id="SVGID_8_">
					<use xlink:href="#SVGID_29_"  overflow="visible"/>
				</clipPath>
				<g clip-path="url(#SVGID_8_)" enable-background="new    ">
					<path fill="#19486F" d="M76.335,73.127v2.793c0,0.021-0.004,0.043-0.007,0.064v-2.795C76.331,73.17,76.335,73.15,76.335,73.127
						"/>
					<path fill="#19486F" d="M76.328,73.189v2.795c-0.002,0.021-0.008,0.049-0.017,0.072v-2.793
						C76.32,73.238,76.326,73.217,76.328,73.189"/>
					<path fill="#19486F" d="M76.312,73.264v2.793c-0.012,0.041-0.03,0.078-0.053,0.119v-2.793
						C76.281,73.342,76.3,73.303,76.312,73.264"/>
					<path fill="#19486F" d="M76.259,73.359v2.791c-0.504,0.891-3.539,2.209-10.018,2.209c-3.902,0-7.057-0.506-8.973-1.066v-2.795
						c1.916,0.561,5.07,1.07,8.973,1.07C72.72,75.568,75.755,74.248,76.259,73.359"/>
				</g>
			</g>
			<g>
				<defs>
					<path id="SVGID_31_" d="M27.816,74.414v2.596c-2.213,0-4.009-1.781-4.009-3.992v-2.596
						C23.808,72.629,25.604,74.414,27.816,74.414z"/>
				</defs>
				<use xlink:href="#SVGID_31_"  overflow="visible" fill="#19486F"/>
				<clipPath id="SVGID_10_">
					<use xlink:href="#SVGID_31_"  overflow="visible"/>
				</clipPath>
				<g clip-path="url(#SVGID_10_)" enable-background="new    ">
					<path fill="#19486F" d="M27.816,74.414v2.596c-2.213,0-4.009-1.781-4.009-3.992v-2.596
						C23.808,72.629,25.604,74.414,27.816,74.414"/>
				</g>
			</g>
			<g>
				<polygon fill="#19486F" points="53.591,74.383 53.591,76.982 27.816,77.01 27.816,74.414 				"/>
			</g>
			<g>
				<path fill="#2E73B7" d="M76.061,45.529c-3.794-1.326-10.026-1.373-11.81-1.35c-5.2,0.07-11.128,1.303-12.121,2.842l-0.041,0.311
					l0.015,0.945l-0.015,24.754c0,0.457,0.961,0.953,1.363,1.352l-25.789,0.031c-2.213,0-4.008-1.785-4.008-3.992V25.598
					c0-2.195,1.795-3.977,4.008-3.977l44.547-0.002c2.215,0,4.01,1.781,4.01,3.988"/>
			</g>
			<g>
				<path fill="#2E73B7" d="M76.345,56.084l-0.01,17.043c0,0.865-2.962,2.463-10.094,2.463c-3.902,0-6.846-0.461-8.761-1.021
					c-1.423-0.459-2.425-0.979-2.538-1.369V56.246c2.075,1.279,6.352,1.955,10.603,1.955h0.274c0.447-0.016,0.869-0.016,1.305-0.027
					l0.173-0.016c0.38-0.014,0.726-0.029,1.093-0.057c0.185-0.014,0.358-0.029,0.533-0.045c0.291-0.025,0.565-0.043,0.838-0.072
					c0.163-0.027,0.307-0.043,0.451-0.07c0.307-0.029,0.596-0.07,0.898-0.115C73.433,57.424,75.229,56.803,76.345,56.084z"/>
			</g>
		</g>
		<polygon fill="#FFFFFF" points="65.663,69.746 65.628,69.746 63.358,60.287 60.153,60.287 60.153,73.053 62.095,73.053 
			62.095,62.43 62.134,62.43 64.726,73.053 66.452,73.053 69.048,62.43 69.083,62.43 69.083,73.053 71.028,73.053 71.028,60.287 
			67.893,60.287 		"/>
		<path fill="#FFFFFF" d="M32.188,25.693c-2.225,0-3.203,1.561-3.203,5c0,3.436,0.979,4.996,3.203,4.996s3.199-1.561,3.199-4.996
			C35.388,27.254,34.413,25.693,32.188,25.693z M32.188,34.533c-0.922,0-1.656-0.566-1.656-3.881c0-3.236,0.734-3.803,1.656-3.803
			s1.656,0.566,1.656,3.803C33.845,33.967,33.11,34.533,32.188,34.533z"/>
		<path fill="#FFFFFF" d="M42.866,34.666c-0.027-0.578-0.041-1.334-0.053-1.951c-0.057-1.352-0.561-1.877-1.521-1.969v-0.025
			c1.06-0.166,1.615-1.121,1.615-2.363c0-1.803-1.102-2.479-2.457-2.479h-3.421V35.5h1.547v-4.174h1.265
			c1.058,0,1.382,0.455,1.412,1.508c0.025,0.701,0.012,1.24,0.066,1.818c0.039,0.377,0.105,0.676,0.258,0.848h1.749
			C43.124,35.367,42.894,35.139,42.866,34.666z M39.814,30.168h-1.238v-3.129h1.316c1.021,0,1.466,0.539,1.466,1.564
			C41.358,29.574,40.804,30.168,39.814,30.168z"/>
		<path fill="#FFFFFF" d="M46.421,25.879L43.665,35.5h1.615l0.625-2.355h2.836l0.596,2.355h1.615l-2.553-9.621H46.421z
			 M46.187,31.916l1.156-4.744h0.029l1.11,4.744H46.187z"/>
		<path fill="#FFFFFF" d="M57.858,32.053h-1.548v0.16c0,0.891-0.149,2.32-1.442,2.32c-1.139,0-1.652-0.781-1.652-3.881
			c0-3.102,0.514-3.803,1.652-3.803c1.115-0.039,1.387,0.986,1.387,1.877v0.158h1.547v-0.176c0-0.996-0.162-3.016-2.917-3.016
			c-2.457,0-3.215,1.561-3.215,5c0,3.436,0.758,4.996,3.198,4.996c2.283,0,2.99-1.697,2.99-3.436V32.053z"/>
		<polygon fill="#FFFFFF" points="64.328,34.209 60.583,34.209 60.583,25.879 59.036,25.879 59.036,35.5 64.328,35.5 		"/>
		<polygon fill="#FFFFFF" points="70.854,34.209 67.054,34.209 67.054,31.139 70.526,31.139 70.526,29.844 67.054,29.844 
			67.054,27.172 70.745,27.172 70.745,25.879 65.507,25.879 65.507,35.5 70.854,35.5 		"/>
	</g>
</g>
<g id="nyt_x5F_exporter_x5F_info" display="none">
</g>
</svg>
