<?xml version="1.0" encoding="utf-8"?>
<!-- Generator: Adobe Illustrator 16.0.4, SVG Export Plug-In . SVG Version: 6.00 Build 0)  -->
<!DOCTYPE svg PUBLIC "-//W3C//DTD SVG 1.1//EN" "http://www.w3.org/Graphics/SVG/1.1/DTD/svg11.dtd">
<svg version="1.1" xmlns="http://www.w3.org/2000/svg" xmlns:xlink="http://www.w3.org/1999/xlink" x="0px" y="0px" width="100px"
	 height="100px" viewBox="0 0 100 100" enable-background="new 0 0 100 100" xml:space="preserve">
<g id="Layer_1">
	<g>
		<g>
			<g>
				<rect x="32.081" y="52.203" fill="#19486F" width="46" height="2.494"/>
			</g>
			<rect x="21.919" y="52.203" fill="#19486F" width="8" height="2.494"/>
			<g>
				<rect x="21.919" y="45.203" fill="#2E73B7" width="8" height="7"/>
				<rect x="32.081" y="45.203" fill="#2E73B7" width="46" height="7"/>
			</g>
		</g>
		<g>
			<g>
				<rect x="32.081" y="75.744" fill="#19486F" width="46" height="2.494"/>
			</g>
			<rect x="21.919" y="75.744" fill="#19486F" width="8" height="2.494"/>
			<g>
				<rect x="21.919" y="68.744" fill="#2E73B7" width="8" height="7"/>
				<rect x="32.081" y="68.744" fill="#2E73B7" width="46" height="7"/>
			</g>
		</g>
		<g>
			<g>
				<rect x="32.081" y="28.562" fill="#19486F" width="46" height="2.494"/>
			</g>
			<rect x="21.919" y="28.562" fill="#19486F" width="8" height="2.494"/>
			<g>
				<rect x="21.919" y="21.762" fill="#2E73B7" width="8" height="7"/>
				<rect x="32.081" y="21.762" fill="#2E73B7" width="46" height="7"/>
			</g>
		</g>
		<g>
			<g>
				<rect x="32.081" y="63.974" fill="#19486F" width="46" height="2.494"/>
			</g>
			<rect x="21.919" y="63.974" fill="#19486F" width="8" height="2.494"/>
			<g>
				<rect x="21.919" y="56.974" fill="#2E73B7" width="8" height="7"/>
				<rect x="32.081" y="56.974" fill="#2E73B7" width="46" height="7"/>
			</g>
		</g>
		<g>
			<g>
				<rect x="32.081" y="40.433" fill="#19486F" width="46" height="2.494"/>
			</g>
			<rect x="21.919" y="40.433" fill="#19486F" width="8" height="2.494"/>
			<g>
				<rect x="32.081" y="33.433" fill="#2E73B7" width="46" height="7"/>
				<rect x="21.919" y="33.433" fill="#2E73B7" width="8" height="7"/>
			</g>
		</g>
	</g>
</g>
<g id="nyt_x5F_exporter_x5F_info" display="none">
</g>
</svg>
