<?xml version="1.0" encoding="utf-8"?>
<!-- Generator: Adobe Illustrator 16.0.4, SVG Export Plug-In . SVG Version: 6.00 Build 0)  -->
<!DOCTYPE svg PUBLIC "-//W3C//DTD SVG 1.1//EN" "http://www.w3.org/Graphics/SVG/1.1/DTD/svg11.dtd">
<svg version="1.1" xmlns="http://www.w3.org/2000/svg" xmlns:xlink="http://www.w3.org/1999/xlink" x="0px" y="0px" width="100px"
	 height="100px" viewBox="0 0 100 100" enable-background="new 0 0 100 100" xml:space="preserve">
<g id="Amazon_CloudSearch">
	<g>
		<g>
			<path fill="#D9A741" d="M86,34.837c0,0,0,0,0,39.871c0,0,0,0-63.131,0c0,0,0-0.012,0-24.496c0.971,0.193,1.977,0.293,2.994,0.293
				c4.629,0,8.762-2.072,11.523-5.324c3.521,2.289,8.775,5.697,16.643,10.814L86,34.837z"/>
		</g>
		<g>
			<defs>
				<path id="SVGID_1_" d="M86,74.708v2.363c0,0,0,0-63.131,0v-2.363C86,74.708,86,74.708,86,74.708z"/>
			</defs>
			<use xlink:href="#SVGID_1_"  overflow="visible" fill="#876929"/>
			<clipPath id="SVGID_2_">
				<use xlink:href="#SVGID_1_"  overflow="visible"/>
			</clipPath>
			<g clip-path="url(#SVGID_2_)" enable-background="new    ">
				<path fill="#876929" d="M86,74.708v2.363c0,0,0,0-63.131,0v-2.363C86,74.708,86,74.708,86,74.708"/>
			</g>
		</g>
		<g enable-background="new    ">
			<defs>
				<path id="SVGID_3_" enable-background="new    " d="M40.922,32.854v2.363c0-0.521-0.025-1.047-0.086-1.545V31.31
					C40.896,31.808,40.922,32.331,40.922,32.854z"/>
			</defs>
			<use xlink:href="#SVGID_3_"  overflow="visible" fill="#503C78"/>
			<clipPath id="SVGID_4_">
				<use xlink:href="#SVGID_3_"  overflow="visible"/>
			</clipPath>
			<g clip-path="url(#SVGID_4_)" enable-background="new    ">
				<path fill="#503C78" d="M40.922,32.854v2.363c0-0.521-0.025-1.047-0.086-1.545V31.31C40.896,31.808,40.922,32.331,40.922,32.854
					"/>
			</g>
		</g>
		<g>
			<path fill="#D9A741" d="M40.836,31.31c6.568,0,19.037,0,42.699,0L54.018,50.833c-0.002,0-0.121-0.074-15.502-9.889
				c1.51-2.34,2.406-5.105,2.406-8.09C40.922,32.331,40.896,31.808,40.836,31.31z"/>
		</g>
		<g>
			<polygon fill="#876929" points="83.535,31.31 83.535,33.673 54.018,53.2 54.018,50.833 			"/>
		</g>
		<g>
			<defs>
				<path id="SVGID_5_" d="M54.018,50.833V53.2c-0.002,0-0.121-0.08-15.502-9.895v-2.361C53.896,50.759,54.016,50.833,54.018,50.833
					z"/>
			</defs>
			<use xlink:href="#SVGID_5_"  overflow="visible" fill="#876929"/>
			<clipPath id="SVGID_6_">
				<use xlink:href="#SVGID_5_"  overflow="visible"/>
			</clipPath>
			<g clip-path="url(#SVGID_6_)" enable-background="new    ">
				<path fill="#876929" d="M54.018,50.833V53.2c-0.002,0-0.121-0.08-15.502-9.895v-2.361
					C53.896,50.759,54.016,50.833,54.018,50.833"/>
			</g>
		</g>
		<g>
			<g enable-background="new    ">
				<g enable-background="new    ">
					<defs>
						<path id="SVGID_7_" enable-background="new    " d="M29.904,33.405c0,0.215-0.002,0.432-0.002,0.652v2.363
							c0-0.219,0.002-0.438,0.002-0.652C29.904,35.062,29.904,34.112,29.904,33.405z"/>
					</defs>
					<use xlink:href="#SVGID_7_"  overflow="visible" fill="#D9A741"/>
					<clipPath id="SVGID_8_">
						<use xlink:href="#SVGID_7_"  overflow="visible"/>
					</clipPath>
					<g clip-path="url(#SVGID_8_)" enable-background="new    ">
						<path fill="#D9A741" d="M29.904,33.405v2.363c0,0.215-0.002,0.434-0.002,0.652v-2.363
							C29.902,33.837,29.904,33.62,29.904,33.405"/>
					</g>
				</g>
				<g enable-background="new    ">
					<defs>
						<path id="SVGID_9_" enable-background="new    " d="M26.918,36.249v2.363c0-0.045,0-0.086,0-0.133v-2.361
							C26.918,36.161,26.918,36.204,26.918,36.249z"/>
					</defs>
					<use xlink:href="#SVGID_9_"  overflow="visible" fill="#D9A741"/>
					<clipPath id="SVGID_10_">
						<use xlink:href="#SVGID_9_"  overflow="visible"/>
					</clipPath>
					<g clip-path="url(#SVGID_10_)" enable-background="new    ">
						<path fill="#D9A741" d="M26.918,36.249v2.363c0-0.045,0-0.086,0-0.133v-2.361C26.918,36.161,26.918,36.204,26.918,36.249"/>
					</g>
				</g>
				<g>
					<path fill="#D9A741" d="M36.494,28.382c1.645,3.094,1.568,6.516,0.479,9.66c-0.602,1.568-1.672,3.178-3.525,4.066
						c-0.541,0.307-1.156,0.441-1.781,0.441c-1.576,0-3.217-0.859-3.938-2.061c-0.123-0.182-0.232-0.354-0.393-0.572
						c-1.166,1.18-1.988,1.535-3.51,1.535c-1.793,0-3.189-1.096-3.189-3.301c0-1.707,0.941-2.873,2.271-3.449
						c1.162-0.498,2.771-0.596,4.01-0.73V33.69c0-0.498,0.039-1.092-0.256-1.531c-0.271-0.393-0.764-0.551-1.205-0.551
						c-0.809,0-1.533,0.414-1.707,1.271c-0.035,0.189-0.172,0.375-0.365,0.385l-2.072-0.219c-0.176-0.039-0.367-0.182-0.32-0.438
						c0.479-2.486,2.734-3.238,4.773-3.238c1.029,0,2.381,0.279,3.203,1.061c1.029,0.947,0.934,2.238,0.934,3.627v3.303
						c0,0.975,0.404,1.412,0.783,1.928c0.248,0.186,0.529,0.275,0.822,0.275c0.986,0,2.141-0.986,2.762-2.58
						c0.861-2.266,0.955-5.217-0.184-7.311c-1.445-2.699-4.881-4.223-8.244-4.223c-1.947,0-3.871,0.514-5.365,1.604
						c-4.332,2.973-5.621,9.682-2.531,14.068c1.883,2.963,5.287,4.539,8.748,4.539c1.936,0,3.889-0.492,5.604-1.516
						c0.17-0.1,0.32-0.135,0.467-0.135c0.318,0,0.627,0.162,0.795,0.461c0.246,0.43,0.088,0.977-0.355,1.219
						c-1.986,1.262-4.332,1.873-6.689,1.873c-4.006,0-8.043-1.775-10.32-5.258c-3.816-5.289-2.518-13.328,2.857-17.203
						c1.949-1.51,4.48-2.174,6.912-2.174c0.83,0,1.65,0.078,2.428,0.227C31.508,23.63,34.824,25.302,36.494,28.382z M26.514,38.358
						c0.416-0.73,0.404-1.414,0.404-2.24v-0.453c-1.543,0-3.168,0.318-3.168,2.119c0,0.916,0.469,1.535,1.291,1.535
						C25.643,39.319,26.182,38.956,26.514,38.358"/>
				</g>
			</g>
		</g>
	</g>
</g>
<g id="nyt_x5F_exporter_x5F_info" display="none">
</g>
</svg>
