<?xml version="1.0" encoding="utf-8"?>
<!-- Generator: Adobe Illustrator 16.0.4, SVG Export Plug-In . SVG Version: 6.00 Build 0)  -->
<!DOCTYPE svg PUBLIC "-//W3C//DTD SVG 1.1//EN" "http://www.w3.org/Graphics/SVG/1.1/DTD/svg11.dtd">
<svg version="1.1" xmlns="http://www.w3.org/2000/svg" xmlns:xlink="http://www.w3.org/1999/xlink" x="0px" y="0px" width="100px"
	 height="100px" viewBox="0 0 100 100" enable-background="new 0 0 100 100" xml:space="preserve">
<g id="Amazon_CloudSearch">
	<g>
		<g>
			<defs>
				<path id="SVGID_11_" d="M27.594,31.115v2.494c0-1.748-0.35-3.414-0.969-4.955v-2.488C27.244,27.703,27.594,29.371,27.594,31.115
					z"/>
			</defs>
			<use xlink:href="#SVGID_11_"  overflow="visible" fill="#876929"/>
			<clipPath id="SVGID_2_">
				<use xlink:href="#SVGID_11_"  overflow="visible"/>
			</clipPath>
			<g clip-path="url(#SVGID_2_)">
				<path fill="#876929" d="M27.594,31.115v2.494c0-1.748-0.35-3.414-0.969-4.955v-2.488C27.244,27.703,27.594,29.371,27.594,31.115
					"/>
			</g>
		</g>
		<g>
			<path fill="#EA2227" d="M14.395,21.992c5.105,0,9.23,4.107,9.23,9.164c0,5.07-4.125,9.162-9.23,9.162
				c-5.096,0-9.23-4.092-9.23-9.162C5.164,26.1,9.299,21.992,14.395,21.992z"/>
		</g>
		<g enable-background="new    ">
			<defs>
				<path id="SVGID_13_" enable-background="new    " d="M23.625,31.156v2.488c0,5.07-4.125,9.164-9.23,9.164
					c-5.096,0-9.23-4.094-9.23-9.164v-2.488c0,5.07,4.135,9.162,9.23,9.162C19.5,40.318,23.625,36.227,23.625,31.156z"/>
			</defs>
			<use xlink:href="#SVGID_13_"  overflow="visible" fill="#8D090A"/>
			<clipPath id="SVGID_4_">
				<use xlink:href="#SVGID_13_"  overflow="visible"/>
			</clipPath>
			<g clip-path="url(#SVGID_4_)" enable-background="new    ">
				<path fill="#8D090A" d="M23.625,31.156v2.488c0,0.447-0.033,0.887-0.094,1.316v-2.486
					C23.592,32.041,23.625,31.604,23.625,31.156"/>
				<path fill="#8D090A" d="M23.531,32.475v2.486c-0.074,0.508-0.188,1.002-0.342,1.479v-2.486
					C23.344,33.475,23.457,32.98,23.531,32.475"/>
				<path fill="#8D090A" d="M23.461,33.277l-0.271,3.162c-0.182,0.564-0.414,1.104-0.695,1.613v-2.49
					c0.281-0.514,0.514-1.047,0.695-1.609"/>
				<path fill="#8D090A" d="M22.494,38.053c-1.568,2.834-4.604,4.756-8.1,4.756c-5.096,0-9.23-4.094-9.23-9.164v-2.488
					c0,5.07,4.135,9.162,9.23,9.162c3.496,0,6.748-3.08,8.316-5.916"/>
			</g>
		</g>
		<g>
			<path fill="#D9A741" d="M94.836,26.166v15.027H22.9c2.871-2.426,4.693-6.033,4.693-10.078c0-1.744-0.35-3.412-0.969-4.949H94.836
				z"/>
		</g>
		<g>
			<rect x="22.9" y="41.193" fill="#876929" width="71.936" height="2.49"/>
		</g>
		<g>
			<path fill="#D9A741" d="M12.947,45.645h81.889v12.523H12.947V45.645z M92.184,55.527v-7.236H15.609v7.236H92.184"/>
		</g>
		<g>
			<rect x="12.947" y="58.168" fill="#876929" width="81.889" height="2.49"/>
		</g>
		<g>
			<path fill="#D9A741" d="M12.947,62.994h81.889v12.523H12.947V62.994z M92.184,72.887v-7.25H15.609v7.25H92.184"/>
		</g>
		<g>
			<rect x="12.947" y="75.518" fill="#876929" width="81.889" height="2.49"/>
		</g>
		<g>
			<path fill="#FFFFFF" d="M49.182,28.355v1.678H45.52v2.396h3.447v1.684H45.52v2.738h3.807v1.682h-5.875V28.355H49.182z"/>
			<path fill="#FFFFFF" d="M50.305,30.861h1.895v0.785h0.031c0.498-0.697,1.115-0.98,1.951-0.98c0.904,0,1.564,0.438,1.779,1.223
				h0.027c0.305-0.811,1.02-1.223,1.953-1.223c1.311,0,1.924,0.809,1.924,2.289v5.578h-1.98v-5.361c0-0.641-0.217-0.998-0.775-0.998
				c-0.631,0-1.033,0.428-1.033,1.314v5.045h-1.982v-5.361c0-0.641-0.215-0.998-0.775-0.998c-0.631,0-1.031,0.428-1.031,1.314v5.045
				h-1.982V30.861z"/>
			<path fill="#FFFFFF" d="M61.18,33.215v-0.184c0-1.771,1.217-2.365,2.713-2.365c2.354,0,2.801,0.971,2.801,2.35v4.037
				c0,0.711,0.041,1.041,0.244,1.48h-1.895c-0.131-0.242-0.188-0.541-0.246-0.799h-0.029c-0.457,0.799-1.02,1-1.967,1
				c-1.375,0-1.863-1.172-1.863-2.197c0-1.439,0.586-2.023,1.949-2.396l1.121-0.297c0.588-0.16,0.789-0.383,0.789-0.898
				c0-0.584-0.26-0.939-0.918-0.939c-0.604,0-0.918,0.398-0.918,0.996v0.213H61.18z M64.797,34.697
				c-0.273,0.199-0.604,0.326-0.848,0.387c-0.803,0.17-1.119,0.555-1.119,1.24c0,0.586,0.215,1.07,0.746,1.07
				s1.221-0.342,1.221-1.184V34.697z"/>
			<path fill="#FFFFFF" d="M68.176,28.238h1.979v1.68h-1.979V28.238z M68.176,30.861h1.979v7.672h-1.979V30.861z"/>
			<path fill="#FFFFFF" d="M71.621,28.355h1.982v10.178h-1.982V28.355z"/>
		</g>
	</g>
</g>
<g id="nyt_x5F_exporter_x5F_info" display="none">
</g>
</svg>
