<?xml version="1.0" encoding="utf-8"?>
<!-- Generator: Adobe Illustrator 16.0.4, SVG Export Plug-In . SVG Version: 6.00 Build 0)  -->
<!DOCTYPE svg PUBLIC "-//W3C//DTD SVG 1.1//EN" "http://www.w3.org/Graphics/SVG/1.1/DTD/svg11.dtd">
<svg version="1.1" xmlns="http://www.w3.org/2000/svg" xmlns:xlink="http://www.w3.org/1999/xlink" x="0px" y="0px" width="100px"
	 height="100px" viewBox="0 0 100 100" enable-background="new 0 0 100 100" xml:space="preserve">
<g id="Layer_1">
	<g>
		<g>
			<g enable-background="new    ">
				<g>
					<defs>
						<path id="SVGID_1_" d="M85.245,58.712v2.615c0,5.863-6.395,11.791-14.256,11.791v-2.613
							C78.851,70.505,85.245,64.575,85.245,58.712z"/>
					</defs>
					<use xlink:href="#SVGID_1_"  overflow="visible" fill="#9D5125"/>
					<clipPath id="SVGID_2_">
						<use xlink:href="#SVGID_1_"  overflow="visible"/>
					</clipPath>
					<g clip-path="url(#SVGID_2_)" enable-background="new    ">
						<path fill="#9D5125" d="M85.245,58.712v2.615c0,0.4-0.029,0.799-0.086,1.193v-2.613
							C85.216,59.511,85.245,59.112,85.245,58.712"/>
						<path fill="#9D5125" d="M85.159,59.907v2.613c-0.074,0.5-0.189,0.996-0.346,1.486v-2.613
							C84.97,60.901,85.085,60.407,85.159,59.907"/>
						<path fill="#9D5125" d="M84.813,61.394v2.613c-0.205,0.633-0.477,1.258-0.812,1.861v-2.613
							C84.337,62.649,84.608,62.026,84.813,61.394"/>
						<path fill="#9D5125" d="M84.001,63.255v2.613c-2.23,4.035-7.223,7.25-13.012,7.25v-2.613
							C76.778,70.505,81.771,67.288,84.001,63.255"/>
					</g>
				</g>
				<g>
					<polygon fill="#9D5125" points="71.695,70.052 70.989,73.118 29.009,73.118 28.278,70.01 					"/>
				</g>
				<g>
					<defs>
						<path id="SVGID_3_" d="M29.009,70.505v2.613c-7.875,0-14.254-5.928-14.254-11.791v-2.615
							C14.755,64.575,21.134,70.505,29.009,70.505z"/>
					</defs>
					<use xlink:href="#SVGID_3_"  overflow="visible" fill="#9D5125"/>
					<clipPath id="SVGID_4_">
						<use xlink:href="#SVGID_3_"  overflow="visible"/>
					</clipPath>
					<g clip-path="url(#SVGID_4_)" enable-background="new    ">
						<path fill="#9D5125" d="M29.009,70.505v2.613c-7.875,0-14.254-5.928-14.254-11.791v-2.615
							C14.755,64.575,21.134,70.505,29.009,70.505"/>
					</g>
				</g>
				<g>
					<path fill="#F58535" d="M41.88,26.882c7.318,0,13.617,4.352,16.443,10.578c1.465-0.998,3.246-1.592,5.17-1.592
						c4.945,0,8.963,3.896,9.113,8.775c7.113,0.594,12.639,7.439,12.639,12.885v1.184c0,5.863-6.395,11.793-14.256,11.793h-41.98
						c-7.875,0-14.254-5.93-14.254-11.793v-1.184c0-4.502,3.801-10.717,9.137-12.238c-0.016-0.174-0.027-0.35-0.027-0.525
						C23.864,34.886,31.929,26.882,41.88,26.882z"/>
				</g>
			</g>
		</g>
		<g>
			<path fill="#FFFFFF" d="M32.419,47.812l-4.707,16.447h2.76l1.064-4.029h4.848l1.023,4.029h2.758l-4.359-16.447H32.419z
				 M32.026,58.134l1.973-8.111h0.043l1.902,8.111H32.026z"/>
			<polygon fill="#FFFFFF" points="51.995,60.663 51.948,60.663 49.722,47.812 46.938,47.812 44.761,60.595 44.712,60.595 
				42.536,47.812 39.868,47.812 43.065,64.259 46.128,64.259 48.239,51.868 48.288,51.868 50.421,64.259 53.479,64.259 
				56.771,47.812 54.149,47.812 			"/>
			<path fill="#FFFFFF" d="M65.282,55.276l-1.785-0.648c-1.762-0.666-2.48-1.381-2.48-2.783c0-1.754,1.09-2.375,2.223-2.375
				c1.646,0,2.32,0.875,2.32,2.375v0.346h2.646v-0.373c0-1.701-0.441-4.328-4.684-4.328c-3.107,0-5.148,1.66-5.148,4.658
				c0,2.346,1.041,3.59,3.453,4.508l1.809,0.627c1.488,0.434,2.367,1.197,2.367,2.922c0,1.221-0.838,2.398-2.506,2.398
				c-1.828,0-2.711-1.016-2.711-3.018v-0.418H58.14v0.393c0,2.305,0.93,5.02,5.031,5.02c3.34,0,5.477-1.449,5.477-4.947
				C68.647,57.372,67.624,56.103,65.282,55.276z"/>
		</g>
	</g>
</g>
<g id="nyt_x5F_exporter_x5F_info" display="none">
	<text display="inline"><tspan x="0" y="0" font-family="'MyriadPro-Regular'" font-size="12">&lt;nyt_prefs&gt;</tspan><tspan x="0" y="14.4" font-family="'MyriadPro-Regular'" font-size="12">  &lt;nyt_prefix&gt;&lt;/nyt_prefix&gt;</tspan><tspan x="0" y="28.8" font-family="'MyriadPro-Regular'" font-size="12">  &lt;nyt_suffix&gt;&lt;/nyt_suffix&gt;</tspan><tspan x="0" y="43.2" font-family="'MyriadPro-Regular'" font-size="12">  &lt;nyt_base_path&gt;~/Desktop/wip/Architecture%20Icons%20-%20Update%20all%20customer-facing%20files%20/AWS-Simple-Icons%202/Non-Service%20Specific/EPS&lt;/nyt_base_path&gt;</tspan><tspan x="0" y="57.6" font-family="'MyriadPro-Regular'" font-size="12">  &lt;nyt_scaling&gt;200&lt;/nyt_scaling&gt;</tspan><tspan x="0" y="72" font-family="'MyriadPro-Regular'" font-size="12">  &lt;nyt_transparency&gt;true&lt;/nyt_transparency&gt;</tspan><tspan x="0" y="86.4" font-family="'MyriadPro-Regular'" font-size="12">  &lt;nyt_format&gt;EPS&lt;/nyt_format&gt;</tspan><tspan x="0" y="100.8" font-family="'MyriadPro-Regular'" font-size="12">  &lt;nyt_export_code&gt;artboards&lt;/nyt_export_code&gt;</tspan><tspan x="0" y="115.2" font-family="'MyriadPro-Regular'" font-size="12">&lt;/nyt_prefs&gt;</tspan></text>
</g>
</svg>
