<?xml version="1.0" encoding="utf-8"?>
<!-- Generator: Adobe Illustrator 16.0.4, SVG Export Plug-In . SVG Version: 6.00 Build 0)  -->
<!DOCTYPE svg PUBLIC "-//W3C//DTD SVG 1.1//EN" "http://www.w3.org/Graphics/SVG/1.1/DTD/svg11.dtd">
<svg version="1.1" xmlns="http://www.w3.org/2000/svg" xmlns:xlink="http://www.w3.org/1999/xlink" x="0px" y="0px" width="100px"
	 height="100px" viewBox="0 0 100 100" enable-background="new 0 0 100 100" xml:space="preserve">
<g id="Layer_1">
	<g>
		<g enable-background="new    ">
			<g>
				<defs>
					<path id="SVGID_5_" d="M26.04,75.87v2.461c-2.375,0-4.307-1.926-4.307-4.289v-2.459C21.733,73.942,23.665,75.87,26.04,75.87z"
						/>
				</defs>
				<use xlink:href="#SVGID_5_"  overflow="visible" fill="#9D5125"/>
				<clipPath id="SVGID_2_">
					<use xlink:href="#SVGID_5_"  overflow="visible"/>
				</clipPath>
				<g clip-path="url(#SVGID_2_)" enable-background="new    ">
					<path fill="#9D5125" d="M26.04,75.87v2.461c-2.375,0-4.307-1.926-4.307-4.289v-2.459C21.733,73.942,23.665,75.87,26.04,75.87"
						/>
				</g>
			</g>
			<g>
				<defs>
					<path id="SVGID_7_" d="M78.29,71.583v2.459c0,2.363-1.93,4.289-4.316,4.289V75.87C76.36,75.87,78.29,73.942,78.29,71.583z"/>
				</defs>
				<use xlink:href="#SVGID_7_"  overflow="visible" fill="#9D5125"/>
				<clipPath id="SVGID_4_">
					<use xlink:href="#SVGID_7_"  overflow="visible"/>
				</clipPath>
				<g clip-path="url(#SVGID_4_)" enable-background="new    ">
					<path fill="#9D5125" d="M78.29,71.583v2.459c0,0.209-0.014,0.412-0.043,0.613v-2.461C78.276,71.993,78.29,71.79,78.29,71.583"
						/>
					<path fill="#9D5125" d="M78.247,72.194v2.461c-0.033,0.234-0.086,0.471-0.158,0.691v-2.461
						C78.161,72.659,78.214,72.429,78.247,72.194"/>
					<path fill="#9D5125" d="M78.089,72.886v2.461c-0.086,0.26-0.195,0.514-0.328,0.752v-2.463
						C77.894,73.399,78.003,73.149,78.089,72.886"/>
					<path fill="#9D5125" d="M77.761,73.636v2.463c-0.732,1.326-2.152,2.232-3.787,2.232V75.87
						C75.608,75.87,77.028,74.966,77.761,73.636"/>
				</g>
			</g>
			<g>
				<polygon fill="#9D5125" points="74.421,75.653 73.974,78.331 26.04,78.331 25.702,75.622 				"/>
			</g>
			<g>
				<path fill="#F58535" d="M73.95,63.853c2.389,0,4.318,1.914,4.318,4.287v3.463c0,2.363-1.93,4.289-4.318,4.289H26.019
					c-2.377,0-4.309-1.926-4.309-4.289V68.14c0-2.373,1.932-4.287,4.309-4.287H73.95z M72.046,71.591
					c0.957,0,1.725-0.771,1.725-1.725c0-0.939-0.768-1.715-1.725-1.715h-17.92c-0.961,0-1.725,0.775-1.725,1.715
					c0,0.953,0.764,1.725,1.725,1.725H72.046"/>
			</g>
		</g>
		<g enable-background="new    ">
			<g>
				<defs>
					<path id="SVGID_9_" d="M28.304,58.933v2.459c-3.604,0-6.535-2.916-6.535-6.494v-2.461C21.769,56.015,24.7,58.933,28.304,58.933
						z"/>
				</defs>
				<use xlink:href="#SVGID_9_"  overflow="visible" fill="#9D5125"/>
				<clipPath id="SVGID_6_">
					<use xlink:href="#SVGID_9_"  overflow="visible"/>
				</clipPath>
				<g clip-path="url(#SVGID_6_)" enable-background="new    ">
					<path fill="#9D5125" d="M28.304,58.933v2.459c-3.604,0-6.535-2.916-6.535-6.494v-2.461
						C21.769,56.015,24.7,58.933,28.304,58.933"/>
				</g>
			</g>
			<g>
				<defs>
					<path id="SVGID_11_" d="M78.202,52.437v2.461c0,3.578-2.938,6.494-6.547,6.494v-2.459
						C75.265,58.933,78.202,56.015,78.202,52.437z"/>
				</defs>
				<use xlink:href="#SVGID_11_"  overflow="visible" fill="#9D5125"/>
				<clipPath id="SVGID_8_">
					<use xlink:href="#SVGID_11_"  overflow="visible"/>
				</clipPath>
				<g clip-path="url(#SVGID_8_)" enable-background="new    ">
					<path fill="#9D5125" d="M78.202,52.437v2.461c0,0.311-0.02,0.619-0.066,0.92v-2.461C78.183,53.058,78.202,52.747,78.202,52.437
						"/>
					<path fill="#9D5125" d="M78.136,53.356v2.461c-0.049,0.359-0.133,0.709-0.24,1.045v-2.461
						C78.003,54.063,78.087,53.716,78.136,53.356"/>
					<path fill="#9D5125" d="M77.896,54.401v2.461c-0.127,0.398-0.293,0.779-0.49,1.141v-2.459
						C77.603,55.181,77.769,54.8,77.896,54.401"/>
					<path fill="#9D5125" d="M77.405,55.544v2.459c-1.115,2.018-3.275,3.389-5.75,3.389v-2.459
						C74.13,58.933,76.29,57.56,77.405,55.544"/>
				</g>
			</g>
			<g>
				<polygon fill="#9D5125" points="72.171,58.747 71.655,61.392 28.304,61.392 27.577,58.497 				"/>
			</g>
			<g>
				<path fill="#F58535" d="M71.655,21.669c3.609,0,6.547,2.918,6.547,6.496v24.271c0,3.578-2.938,6.496-6.547,6.496H28.304
					c-3.604,0-6.535-2.918-6.535-6.496V28.165c0-3.578,2.932-6.496,6.535-6.496H71.655z M73.628,52.437V28.165
					c0-1.078-0.883-1.951-1.973-1.951H28.304c-1.076,0-1.955,0.873-1.955,1.951v24.271c0,1.076,0.879,1.949,1.955,1.949h43.352
					C72.745,54.386,73.628,53.513,73.628,52.437"/>
			</g>
		</g>
	</g>
</g>
<g id="nyt_x5F_exporter_x5F_info" display="none">
	<text transform="matrix(1 0 0 1 -145 0)" display="inline"><tspan x="0" y="0" font-family="'MyriadPro-Regular'" font-size="12">&lt;nyt_prefs&gt;</tspan><tspan x="0" y="14.4" font-family="'MyriadPro-Regular'" font-size="12">  &lt;nyt_prefix&gt;&lt;/nyt_prefix&gt;</tspan><tspan x="0" y="28.8" font-family="'MyriadPro-Regular'" font-size="12">  &lt;nyt_suffix&gt;&lt;/nyt_suffix&gt;</tspan><tspan x="0" y="43.2" font-family="'MyriadPro-Regular'" font-size="12">  &lt;nyt_base_path&gt;~/Desktop/wip/Architecture%20Icons%20-%20Update%20all%20customer-facing%20files%20/AWS-Simple-Icons%202/Non-Service%20Specific/EPS&lt;/nyt_base_path&gt;</tspan><tspan x="0" y="57.6" font-family="'MyriadPro-Regular'" font-size="12">  &lt;nyt_scaling&gt;200&lt;/nyt_scaling&gt;</tspan><tspan x="0" y="72" font-family="'MyriadPro-Regular'" font-size="12">  &lt;nyt_transparency&gt;true&lt;/nyt_transparency&gt;</tspan><tspan x="0" y="86.4" font-family="'MyriadPro-Regular'" font-size="12">  &lt;nyt_format&gt;EPS&lt;/nyt_format&gt;</tspan><tspan x="0" y="100.8" font-family="'MyriadPro-Regular'" font-size="12">  &lt;nyt_export_code&gt;artboards&lt;/nyt_export_code&gt;</tspan><tspan x="0" y="115.2" font-family="'MyriadPro-Regular'" font-size="12">&lt;/nyt_prefs&gt;</tspan></text>
</g>
</svg>
