<?xml version="1.0" encoding="utf-8"?>
<!-- Generator: Adobe Illustrator 16.0.4, SVG Export Plug-In . SVG Version: 6.00 Build 0)  -->
<!DOCTYPE svg PUBLIC "-//W3C//DTD SVG 1.1//EN" "http://www.w3.org/Graphics/SVG/1.1/DTD/svg11.dtd">
<svg version="1.1" xmlns="http://www.w3.org/2000/svg" xmlns:xlink="http://www.w3.org/1999/xlink" x="0px" y="0px" width="100px"
	 height="100px" viewBox="0 0 100 100" enable-background="new 0 0 100 100" xml:space="preserve">
<g id="Layer_1">
	<g>
		<g enable-background="new    ">
			<g>
				<defs>
					<path id="SVGID_13_" d="M26.438,75.429v2.42c-2.336,0-4.234-1.895-4.234-4.229V71.2C22.204,73.534,24.103,75.429,26.438,75.429
						z"/>
				</defs>
				<use xlink:href="#SVGID_13_"  overflow="visible" fill="#737678"/>
				<clipPath id="SVGID_2_">
					<use xlink:href="#SVGID_13_"  overflow="visible"/>
				</clipPath>
				<g clip-path="url(#SVGID_2_)" enable-background="new    ">
					<path fill="#737678" d="M26.438,75.429v2.42c-2.336,0-4.234-1.895-4.234-4.229V71.2C22.204,73.534,24.103,75.429,26.438,75.429
						"/>
				</g>
			</g>
			<g>
				<defs>
					<path id="SVGID_15_" d="M77.796,71.2v2.42c0,2.334-1.896,4.229-4.246,4.229v-2.42C75.899,75.429,77.796,73.534,77.796,71.2z"/>
				</defs>
				<use xlink:href="#SVGID_15_"  overflow="visible" fill="#737678"/>
				<clipPath id="SVGID_4_">
					<use xlink:href="#SVGID_15_"  overflow="visible"/>
				</clipPath>
				<g clip-path="url(#SVGID_4_)" enable-background="new    ">
					<path fill="#737678" d="M77.796,71.2v2.42c0,0.207-0.014,0.408-0.043,0.604v-2.416C77.782,71.608,77.796,71.405,77.796,71.2"/>
					<path fill="#737678" d="M77.753,71.808v2.416c-0.035,0.238-0.088,0.465-0.158,0.686v-2.418
						C77.665,72.272,77.718,72.04,77.753,71.808"/>
					<path fill="#737678" d="M77.595,72.491v2.418c-0.08,0.262-0.189,0.51-0.32,0.744v-2.42
						C77.405,72.999,77.515,72.749,77.595,72.491"/>
					<path fill="#737678" d="M77.274,73.233v2.42c-0.723,1.307-2.119,2.195-3.725,2.195v-2.42
						C75.155,75.429,76.552,74.542,77.274,73.233"/>
				</g>
			</g>
			<g>
				<polygon fill="#737678" points="74.413,75.072 73.55,77.849 26.438,77.849 25.871,74.781 				"/>
			</g>
			<g>
				<path fill="#C5C6C7" d="M73.55,63.595c2.35,0,4.246,1.881,4.246,4.215V71.2c0,2.334-1.896,4.229-4.246,4.229H26.438
					c-2.336,0-4.234-1.895-4.234-4.229V67.81c0-2.334,1.898-4.215,4.234-4.215H73.55z M71.679,71.2c0.943,0,1.695-0.758,1.695-1.695
					c0-0.922-0.752-1.686-1.695-1.686H54.065c-0.943,0-1.707,0.764-1.707,1.686c0,0.938,0.764,1.695,1.707,1.695H71.679"/>
			</g>
		</g>
		<g enable-background="new    ">
			<g>
				<defs>
					<path id="SVGID_17_" d="M28.663,58.78v2.416c-3.543,0-6.42-2.867-6.42-6.383v-2.42C22.243,55.911,25.12,58.78,28.663,58.78z"/>
				</defs>
				<use xlink:href="#SVGID_17_"  overflow="visible" fill="#737678"/>
				<clipPath id="SVGID_6_">
					<use xlink:href="#SVGID_17_"  overflow="visible"/>
				</clipPath>
				<g clip-path="url(#SVGID_6_)" enable-background="new    ">
					<path fill="#737678" d="M28.663,58.78v2.416c-3.543,0-6.42-2.867-6.42-6.383v-2.42C22.243,55.911,25.12,58.78,28.663,58.78"/>
				</g>
			</g>
			<g>
				<defs>
					<path id="SVGID_19_" d="M77.71,52.394v2.42c0,3.516-2.891,6.383-6.434,6.383V58.78C74.819,58.78,77.71,55.911,77.71,52.394z"/>
				</defs>
				<use xlink:href="#SVGID_19_"  overflow="visible" fill="#737678"/>
				<clipPath id="SVGID_8_">
					<use xlink:href="#SVGID_19_"  overflow="visible"/>
				</clipPath>
				<g clip-path="url(#SVGID_8_)" enable-background="new    ">
					<path fill="#737678" d="M77.71,52.394v2.42c0,0.309-0.023,0.609-0.064,0.904V53.3C77.687,53.003,77.71,52.7,77.71,52.394"/>
					<path fill="#737678" d="M77.646,53.3v2.418c-0.051,0.354-0.131,0.695-0.236,1.027v-2.422
						C77.515,53.995,77.595,53.651,77.646,53.3"/>
					<path fill="#737678" d="M77.409,54.323v2.422c-0.129,0.391-0.289,0.77-0.486,1.123v-2.42
						C77.12,55.091,77.28,54.716,77.409,54.323"/>
					<path fill="#737678" d="M76.923,55.448v2.42c-1.094,1.98-3.219,3.328-5.646,3.328V58.78
						C73.704,58.78,75.829,57.427,76.923,55.448"/>
				</g>
			</g>
			<g>
				<polygon fill="#737678" points="72.621,58.238 71.276,61.196 28.663,61.196 27.912,58.113 				"/>
			</g>
			<g>
				<path fill="#C5C6C7" d="M71.276,22.151c3.543,0,6.434,2.869,6.434,6.385v23.857c0,3.518-2.891,6.387-6.434,6.387H28.663
					c-3.543,0-6.42-2.869-6.42-6.387V28.536c0-3.516,2.877-6.385,6.42-6.385H71.276z M73.21,52.394V28.536
					c0-1.059-0.863-1.918-1.934-1.918H28.663c-1.057,0-1.922,0.859-1.922,1.918v23.857c0,1.061,0.865,1.922,1.922,1.922h42.613
					C72.347,54.315,73.21,53.454,73.21,52.394"/>
			</g>
		</g>
	</g>
</g>
<g id="nyt_x5F_exporter_x5F_info" display="none">
</g>
</svg>
