<?xml version="1.0" encoding="utf-8"?>
<!-- Generator: Adobe Illustrator 16.0.4, SVG Export Plug-In . SVG Version: 6.00 Build 0)  -->
<!DOCTYPE svg PUBLIC "-//W3C//DTD SVG 1.1//EN" "http://www.w3.org/Graphics/SVG/1.1/DTD/svg11.dtd">
<svg version="1.1" xmlns="http://www.w3.org/2000/svg" xmlns:xlink="http://www.w3.org/1999/xlink" x="0px" y="0px" width="100px"
	 height="100px" viewBox="0 0 100 100" enable-background="new 0 0 100 100" xml:space="preserve">
<g id="Layer_1">
	<g>
		<g>
			<g enable-background="new    ">
				<g>
					<defs>
						<path id="SVGID_49_" d="M70.547,72.613v2.521c0,1.666-1.361,3.004-3.023,3.004v-2.523
							C69.186,75.615,70.547,74.277,70.547,72.613z"/>
					</defs>
					<use xlink:href="#SVGID_49_"  overflow="visible" fill="#484A4B"/>
					<clipPath id="SVGID_2_">
						<use xlink:href="#SVGID_49_"  overflow="visible"/>
					</clipPath>
					<g clip-path="url(#SVGID_2_)" enable-background="new    ">
						<path fill="#484A4B" d="M70.547,72.613v2.521c0,0.146-0.012,0.289-0.031,0.428v-2.52C70.535,72.9,70.547,72.76,70.547,72.613"
							/>
						<path fill="#484A4B" d="M70.516,73.043v2.52c-0.021,0.166-0.061,0.33-0.111,0.484v-2.521
							C70.455,73.371,70.494,73.209,70.516,73.043"/>
						<path fill="#484A4B" d="M70.404,73.525v2.521c-0.059,0.186-0.135,0.361-0.229,0.527v-2.523
							C70.27,73.887,70.346,73.711,70.404,73.525"/>
						<path fill="#484A4B" d="M70.176,74.051v2.523c-0.516,0.934-1.514,1.564-2.652,1.564v-2.523
							C68.662,75.615,69.66,74.984,70.176,74.051"/>
					</g>
				</g>
				<g>
					<polygon fill="#484A4B" points="67.523,75.615 67.523,78.139 32.477,78.139 31.785,75.463 					"/>
				</g>
				<g>
					<defs>
						<path id="SVGID_51_" d="M32.477,75.615v2.523c-1.676,0-3.023-1.338-3.023-3.004v-2.521
							C29.453,74.277,30.801,75.615,32.477,75.615z"/>
					</defs>
					<use xlink:href="#SVGID_51_"  overflow="visible" fill="#484A4B"/>
					<clipPath id="SVGID_4_">
						<use xlink:href="#SVGID_51_"  overflow="visible"/>
					</clipPath>
					<g clip-path="url(#SVGID_4_)" enable-background="new    ">
						<path fill="#484A4B" d="M32.477,75.615v2.523c-1.676,0-3.023-1.338-3.023-3.004v-2.521
							C29.453,74.277,30.801,75.615,32.477,75.615"/>
					</g>
				</g>
				<g>
					<path fill="#6D6F71" d="M67.523,21.861c1.662,0,3.023,1.342,3.023,3.006v47.746c0,1.664-1.361,3.002-3.023,3.002H32.477
						c-1.676,0-3.023-1.338-3.023-3.002V24.867c0-1.664,1.348-3.006,3.023-3.006H67.523z"/>
				</g>
			</g>
		</g>
		<g>
			<path fill="#FFFFFF" d="M57.16,28.672h8.301v3.34H57.16V28.672z M45.783,28.672h8.305v3.34h-8.305V28.672z M34.408,28.672h8.303
				v3.34h-8.303V28.672z M34.408,34.428h8.303v3.34h-8.303V34.428z M34.461,40.178h8.303v3.344h-8.303V40.178z M42.781,45.936v3.342
				H34.48v-3.342H42.781z M34.48,51.691h8.301v3.34H34.48V51.691z M42.834,60.787h-8.305v-3.34h8.305V60.787z M45.783,34.428h8.305
				v3.34h-8.305V34.428z M45.838,40.178h8.301v3.344h-8.301V40.178z M54.156,45.936v3.342h-8.305v-3.342H54.156z M45.852,51.691
				h8.305v3.34h-8.305V51.691z M54.209,60.787H45.91v-3.34h8.299V60.787z M57.16,34.428h8.301v3.34H57.16V34.428z M57.213,40.178
				h8.303v3.344h-8.303V40.178z M65.533,45.936v3.342H57.23v-3.342H65.533z M57.23,51.691h8.303v3.34H57.23V51.691z M65.588,60.787
				h-8.307v-3.34h8.307V60.787z"/>
		</g>
	</g>
</g>
<g id="nyt_x5F_exporter_x5F_info" display="none">
</g>
</svg>
