<?xml version="1.0" encoding="utf-8"?>
<!-- Generator: Adobe Illustrator 16.0.4, SVG Export Plug-In . SVG Version: 6.00 Build 0)  -->
<!DOCTYPE svg PUBLIC "-//W3C//DTD SVG 1.1//EN" "http://www.w3.org/Graphics/SVG/1.1/DTD/svg11.dtd">
<svg version="1.1" xmlns="http://www.w3.org/2000/svg" xmlns:xlink="http://www.w3.org/1999/xlink" x="0px" y="0px" width="100px"
	 height="100px" viewBox="0 0 100 100" enable-background="new 0 0 100 100" xml:space="preserve">
<g id="Layer_1">
	<g>
		<g>
			<path fill="#F58535" d="M88.238,84.267H11.762V70.632h76.477V84.267z M14.654,81.38h58.856v-7.877H14.654V81.38"/>
		</g>
		<g>
			<rect x="11.762" y="84.267" fill="#9D5125" width="76.477" height="2.508"/>
		</g>
		<g>
			<path fill="#F58535" d="M11.762,51.496h76.477v13.635H11.762V51.496z M85.346,62.244v-7.877H26.489v7.877H85.346"/>
		</g>
		<g>
			<rect x="11.762" y="65.131" fill="#9D5125" width="76.477" height="2.508"/>
		</g>
		<g>
			<path fill="#F58535" d="M88.238,45.996H11.762V32.361h76.477V45.996z M14.654,43.109h58.856v-7.877H14.654V43.109"/>
		</g>
		<g>
			<rect x="11.762" y="45.996" fill="#9D5125" width="76.477" height="2.508"/>
		</g>
		<g>
			<path fill="#F58535" d="M11.762,13.226h76.477V26.86H11.762V13.226z M85.346,23.974v-7.877H26.489v7.877H85.346"/>
		</g>
		<g>
			<rect x="11.762" y="26.86" fill="#9D5125" width="76.477" height="2.508"/>
		</g>
	</g>
</g>
<g id="nyt_x5F_exporter_x5F_info" display="none">
	<text transform="matrix(1 0 0 1 -448 0)" display="inline"><tspan x="0" y="0" font-family="'MyriadPro-Regular'" font-size="12">&lt;nyt_prefs&gt;</tspan><tspan x="0" y="14.4" font-family="'MyriadPro-Regular'" font-size="12">  &lt;nyt_prefix&gt;&lt;/nyt_prefix&gt;</tspan><tspan x="0" y="28.8" font-family="'MyriadPro-Regular'" font-size="12">  &lt;nyt_suffix&gt;&lt;/nyt_suffix&gt;</tspan><tspan x="0" y="43.2" font-family="'MyriadPro-Regular'" font-size="12">  &lt;nyt_base_path&gt;~/Desktop/wip/Architecture%20Icons%20-%20Update%20all%20customer-facing%20files%20/AWS-Simple-Icons%202/Non-Service%20Specific/EPS&lt;/nyt_base_path&gt;</tspan><tspan x="0" y="57.6" font-family="'MyriadPro-Regular'" font-size="12">  &lt;nyt_scaling&gt;200&lt;/nyt_scaling&gt;</tspan><tspan x="0" y="72" font-family="'MyriadPro-Regular'" font-size="12">  &lt;nyt_transparency&gt;true&lt;/nyt_transparency&gt;</tspan><tspan x="0" y="86.4" font-family="'MyriadPro-Regular'" font-size="12">  &lt;nyt_format&gt;EPS&lt;/nyt_format&gt;</tspan><tspan x="0" y="100.8" font-family="'MyriadPro-Regular'" font-size="12">  &lt;nyt_export_code&gt;artboards&lt;/nyt_export_code&gt;</tspan><tspan x="0" y="115.2" font-family="'MyriadPro-Regular'" font-size="12">&lt;/nyt_prefs&gt;</tspan></text>
</g>
</svg>
