<?xml version="1.0" encoding="utf-8"?>
<!-- Generator: Adobe Illustrator 16.0.4, SVG Export Plug-In . SVG Version: 6.00 Build 0)  -->
<!DOCTYPE svg PUBLIC "-//W3C//DTD SVG 1.1//EN" "http://www.w3.org/Graphics/SVG/1.1/DTD/svg11.dtd">
<svg version="1.1" xmlns="http://www.w3.org/2000/svg" xmlns:xlink="http://www.w3.org/1999/xlink" x="0px" y="0px" width="100px"
	 height="100px" viewBox="0 0 100 100" enable-background="new 0 0 100 100" xml:space="preserve">
<g id="Layer_1">
	<g>
		<g>
			<g enable-background="new    ">
				<g>
					<defs>
						<path id="SVGID_21_" d="M68.267,72.504v2.533c0,1.707-1.393,3.107-3.131,3.107v-2.533
							C66.874,75.611,68.267,74.215,68.267,72.504z"/>
					</defs>
					<use xlink:href="#SVGID_21_"  overflow="visible" fill="#737678"/>
					<clipPath id="SVGID_2_">
						<use xlink:href="#SVGID_21_"  overflow="visible"/>
					</clipPath>
					<g clip-path="url(#SVGID_2_)" enable-background="new    ">
						<path fill="#737678" d="M68.267,72.504v2.533c0,0.15-0.014,0.299-0.031,0.445v-2.533
							C68.253,72.805,68.267,72.658,68.267,72.504"/>
						<path fill="#737678" d="M68.235,72.949v2.533c-0.025,0.168-0.064,0.34-0.117,0.5v-2.533
							C68.171,73.289,68.21,73.121,68.235,72.949"/>
						<path fill="#737678" d="M68.118,73.449v2.533c-0.059,0.191-0.141,0.371-0.234,0.547v-2.531
							C67.978,73.824,68.06,73.641,68.118,73.449"/>
						<path fill="#737678" d="M67.884,73.998v2.531c-0.531,0.957-1.562,1.615-2.748,1.615v-2.533
							C66.321,75.611,67.353,74.957,67.884,73.998"/>
					</g>
				</g>
				<g>
					<polygon fill="#737678" points="65.711,75.324 65.136,78.145 34.864,78.145 34.211,74.907 					"/>
				</g>
				<g>
					<defs>
						<path id="SVGID_23_" d="M34.864,75.611v2.533c-1.723,0-3.131-1.4-3.131-3.107v-2.533
							C31.733,74.215,33.142,75.611,34.864,75.611z"/>
					</defs>
					<use xlink:href="#SVGID_23_"  overflow="visible" fill="#737678"/>
					<clipPath id="SVGID_4_">
						<use xlink:href="#SVGID_23_"  overflow="visible"/>
					</clipPath>
					<g clip-path="url(#SVGID_4_)" enable-background="new    ">
						<path fill="#737678" d="M34.864,75.611v2.533c-1.723,0-3.131-1.4-3.131-3.107v-2.533
							C31.733,74.215,33.142,75.611,34.864,75.611"/>
					</g>
				</g>
				<g>
					<path fill="#C5C6C7" d="M65.136,21.855c1.738,0,3.131,1.398,3.131,3.111v47.537c0,1.711-1.393,3.107-3.131,3.107H34.864
						c-1.723,0-3.131-1.396-3.131-3.107V24.967c0-1.713,1.408-3.111,3.131-3.111H65.136z"/>
				</g>
			</g>
		</g>
		<g>
			<path fill="#FFFFFF" d="M40.872,25.307h18.207c1.127,0,2.043,0.908,2.043,2.027c0,1.121-0.916,2.029-2.043,2.029H40.872
				c-1.129,0-2.047-0.908-2.047-2.029C38.825,26.215,39.743,25.307,40.872,25.307z M49.974,74.197c-1.969,0-3.562-1.588-3.562-3.545
				c0-1.955,1.594-3.541,3.562-3.541s3.564,1.586,3.564,3.541C53.538,72.609,51.942,74.197,49.974,74.197z M64.714,62.857
				c0,1.029-0.934,1.863-2.09,1.863H37.321c-1.15,0-2.086-0.834-2.086-1.863V34.58c0-1.025,0.936-1.855,2.086-1.855h25.303
				c1.156,0,2.09,0.83,2.09,1.855V62.857z"/>
		</g>
	</g>
</g>
<g id="nyt_x5F_exporter_x5F_info" display="none">
</g>
</svg>
