<?xml version="1.0" encoding="utf-8"?>
<!-- Generator: Adobe Illustrator 16.0.4, SVG Export Plug-In . SVG Version: 6.00 Build 0)  -->
<!DOCTYPE svg PUBLIC "-//W3C//DTD SVG 1.1//EN" "http://www.w3.org/Graphics/SVG/1.1/DTD/svg11.dtd">
<svg version="1.1" xmlns="http://www.w3.org/2000/svg" xmlns:xlink="http://www.w3.org/1999/xlink" x="0px" y="0px" width="100px"
	 height="100px" viewBox="0 0 100 100" enable-background="new 0 0 100 100" xml:space="preserve">
<g id="Layer_1">
	<g>
		<g>
			<g enable-background="new    ">
				<g>
					<defs>
						<path id="SVGID_25_" d="M79.187,71.701v2.525c0,2.16-1.771,3.904-3.947,3.904v-2.525
							C77.415,75.605,79.187,73.863,79.187,71.701z"/>
					</defs>
					<use xlink:href="#SVGID_25_"  overflow="visible" fill="#737678"/>
					<clipPath id="SVGID_2_">
						<use xlink:href="#SVGID_25_"  overflow="visible"/>
					</clipPath>
					<g clip-path="url(#SVGID_2_)" enable-background="new    ">
						<path fill="#737678" d="M79.187,71.701v2.525c0,0.188-0.016,0.375-0.041,0.557v-2.525
							C79.171,72.078,79.187,71.893,79.187,71.701"/>
						<path fill="#737678" d="M79.146,72.258v2.525c-0.029,0.215-0.078,0.424-0.145,0.629v-2.527
							C79.067,72.684,79.116,72.473,79.146,72.258"/>
						<path fill="#737678" d="M79.001,72.885v2.527c-0.076,0.236-0.176,0.467-0.295,0.682V73.57
							C78.825,73.354,78.925,73.123,79.001,72.885"/>
						<path fill="#737678" d="M78.706,73.57v2.523c-0.67,1.215-1.973,2.037-3.467,2.037v-2.525
							C76.733,75.605,78.036,74.783,78.706,73.57"/>
					</g>
				</g>
				<g>
					<polygon fill="#737678" points="76.405,74.863 75.239,78.131 24.749,78.131 23.78,74.988 					"/>
				</g>
				<g>
					<defs>
						<path id="SVGID_27_" d="M24.749,75.605v2.525c-2.164,0-3.936-1.744-3.936-3.904v-2.525
							C20.813,73.863,22.585,75.605,24.749,75.605z"/>
					</defs>
					<use xlink:href="#SVGID_27_"  overflow="visible" fill="#737678"/>
					<clipPath id="SVGID_4_">
						<use xlink:href="#SVGID_27_"  overflow="visible"/>
					</clipPath>
					<g clip-path="url(#SVGID_4_)" enable-background="new    ">
						<path fill="#737678" d="M24.749,75.605v2.525c-2.164,0-3.936-1.744-3.936-3.904v-2.525
							C20.813,73.863,22.585,75.605,24.749,75.605"/>
					</g>
				</g>
				<g>
					<path fill="#C5C6C7" d="M75.239,21.869c2.176,0,3.947,1.756,3.947,3.918v45.914c0,2.162-1.771,3.904-3.947,3.904h-50.49
						c-2.164,0-3.936-1.742-3.936-3.904V25.787c0-2.162,1.771-3.918,3.936-3.918H75.239z"/>
				</g>
			</g>
		</g>
		<g>
			<g>
				<g>
					<path fill="#FFFFFF" d="M66.466,26.41c0-0.9,0.73-1.625,1.633-1.625h6.285c0.908,0,1.637,0.725,1.637,1.625v2.604
						c0,0.895-0.729,1.623-1.637,1.623h-6.285c-0.902,0-1.633-0.729-1.633-1.623V26.41z M52.364,26.41
						c0-0.9,0.729-1.625,1.631-1.625h6.283c0.906,0,1.637,0.725,1.637,1.625v2.604c0,0.895-0.73,1.623-1.637,1.623h-6.283
						c-0.902,0-1.631-0.729-1.631-1.623V26.41z M38.263,26.41c0-0.9,0.727-1.625,1.631-1.625h6.281c0.904,0,1.637,0.725,1.637,1.625
						v2.604c0,0.895-0.732,1.623-1.637,1.623h-6.281c-0.904,0-1.631-0.729-1.631-1.623V26.41z M24.155,26.41
						c0-0.9,0.732-1.625,1.635-1.625h6.281c0.906,0,1.641,0.725,1.641,1.625v2.604c0,0.895-0.734,1.623-1.641,1.623H25.79
						c-0.902,0-1.635-0.729-1.635-1.623V26.41z M33.712,71.07c0,0.9-0.734,1.629-1.641,1.629H25.79
						c-0.902,0-1.635-0.729-1.635-1.629v-2.6c0-0.9,0.732-1.625,1.635-1.625h6.281c0.906,0,1.641,0.725,1.641,1.625V71.07z
						 M47.812,71.07c0,0.9-0.732,1.629-1.637,1.629h-6.281c-0.904,0-1.631-0.729-1.631-1.629v-2.6c0-0.9,0.727-1.625,1.631-1.625
						h6.281c0.904,0,1.637,0.725,1.637,1.625V71.07z M61.915,71.07c0,0.9-0.73,1.629-1.637,1.629h-6.283
						c-0.902,0-1.631-0.729-1.631-1.629v-2.6c0-0.9,0.729-1.625,1.631-1.625h6.283c0.906,0,1.637,0.725,1.637,1.625V71.07z
						 M76.021,71.07c0,0.9-0.729,1.629-1.637,1.629h-6.285c-0.902,0-1.633-0.729-1.633-1.629v-2.6c0-0.9,0.73-1.625,1.633-1.625
						h6.285c0.908,0,1.637,0.725,1.637,1.625V71.07z M75.2,64.225H24.812c-0.49,0-0.879-0.393-0.879-0.873s0.389-0.871,0.879-0.871
						H75.2c0.484,0,0.873,0.391,0.873,0.871S75.685,64.225,75.2,64.225z M42.214,47.852c0.408-3.654,3.314-6.539,7-6.947v6.947
						H42.214z M49.214,49.594v6.953c-3.686-0.412-6.592-3.295-7-6.953H49.214z M40.409,47.852h-1.506
						c0.426-5.459,4.807-9.811,10.311-10.236v1.496C44.534,39.539,40.833,43.211,40.409,47.852z M40.409,49.594
						c0.424,4.645,4.125,8.32,8.805,8.742v1.494c-5.504-0.422-9.885-4.773-10.311-10.236H40.409z M57.968,47.852h-7.004v-6.947
						C54.649,41.309,57.562,44.195,57.968,47.852z M50.964,39.111v-1.496c5.5,0.422,9.883,4.775,10.311,10.236h-1.502
						C59.349,43.211,55.644,39.529,50.964,39.111z M57.968,49.594c-0.406,3.66-3.318,6.547-7.004,6.953v-6.953H57.968z
						 M59.772,49.594h1.502c-0.428,5.463-4.811,9.816-10.311,10.236v-1.494C55.644,57.916,59.349,54.24,59.772,49.594z M75.2,34.695
						H24.812c-0.49,0-0.879-0.391-0.879-0.871c0-0.482,0.389-0.867,0.879-0.867H75.2c0.484,0,0.873,0.385,0.873,0.867
						C76.073,34.305,75.685,34.695,75.2,34.695z"/>
				</g>
			</g>
		</g>
	</g>
</g>
<g id="nyt_x5F_exporter_x5F_info" display="none">
</g>
</svg>
