<?xml version="1.0" encoding="utf-8"?>
<!-- Generator: Adobe Illustrator 16.0.4, SVG Export Plug-In . SVG Version: 6.00 Build 0)  -->
<!DOCTYPE svg PUBLIC "-//W3C//DTD SVG 1.1//EN" "http://www.w3.org/Graphics/SVG/1.1/DTD/svg11.dtd">
<svg version="1.1" xmlns="http://www.w3.org/2000/svg" xmlns:xlink="http://www.w3.org/1999/xlink" x="0px" y="0px" width="100px"
	 height="100px" viewBox="0 0 100 100" enable-background="new 0 0 100 100" xml:space="preserve">
<g id="Layer_1">
	<g>
		<rect x="16.829" y="47.626" fill="#484A4B" width="31.009" height="3.057"/>
		<rect x="52.155" y="48.155" fill="#484A4B" width="31.009" height="3.596"/>
		<path fill="#484A4B" d="M74.291,37.823c-7.74-3.663-16.985-0.357-20.648,7.386c-2.479,5.238-1.757,11.16,1.362,15.58
			c-3.603,0.907-7.15,0.986-11.421,0.961c0.724-0.704,0.938-0.965,1.514-1.798c1.729-2.499,2.744-5.528,2.744-8.797
			c0-8.564-6.943-15.506-15.506-15.506c-8.564,0-15.507,6.941-15.507,15.506s6.942,15.506,15.507,15.506
			c2.75,0,5.328-0.724,7.568-1.979c0.887,0.09,1.802,0.158,2.764,0.186c0,0,7.323,0.861,15.191-1.029
			c0.955,0.779,2.005,1.469,3.169,2.02c7.74,3.661,16.985,0.354,20.648-7.388C85.34,50.729,82.032,41.485,74.291,37.823z"/>
		<path fill="#6D6F71" d="M74.291,34.823c-7.74-3.663-16.985-0.357-20.648,7.386c-2.479,5.238-1.757,11.16,1.362,15.58
			c-3.603,0.907-7.592,1.499-11.862,1.474c2.895-2.816,4.699-6.749,4.699-11.107c0-8.564-6.943-15.506-15.506-15.506
			c-8.564,0-15.507,6.941-15.507,15.506s6.942,15.506,15.507,15.506c2.75,0,5.328-0.724,7.568-1.979
			c0.887,0.09,1.802,0.158,2.764,0.186c0,0,7.323,0.861,15.191-1.029c0.955,0.779,2.005,1.469,3.169,2.02
			c7.74,3.661,16.985,0.354,20.648-7.388C85.34,47.729,82.032,38.485,74.291,34.823z"/>
		<path fill="#FFFFFF" d="M28.854,51.857c-0.987-1.206-2.763-1.383-3.968-0.399l-2.185,1.786c-1.203,0.985-1.384,2.762-0.396,3.966
			l0.197,0.243c0.985,1.207,2.763,1.384,3.966,0.397l2.184-1.784c1.206-0.985,1.384-2.762,0.398-3.967L28.854,51.857z"/>
		<path fill="#FFFFFF" d="M46.042,48.917c0.022-1.557-1.224-2.836-2.783-2.857l-2.816-0.039c-1.558-0.02-2.835,1.226-2.857,2.781
			l-0.005,0.313c-0.021,1.556,1.226,2.837,2.78,2.858l2.819,0.037c1.558,0.021,2.837-1.224,2.857-2.779L46.042,48.917z"/>
		<path fill="#FFFFFF" d="M30.931,42.716c1.476-0.494,2.271-2.093,1.775-3.568l-0.894-2.674c-0.498-1.477-2.095-2.271-3.571-1.775
			l-0.296,0.099c-1.477,0.495-2.272,2.095-1.777,3.569l0.896,2.673c0.494,1.477,2.093,2.272,3.569,1.777L30.931,42.716z"/>
		<circle fill="#FFFFFF" cx="32.335" cy="48.155" r="2.193"/>
		<path fill="#FFFFFF" d="M69.516,53.57c-1.51,0.375-2.431,1.904-2.055,3.415l0.682,2.737c0.373,1.511,1.9,2.433,3.414,2.057
			l0.304-0.076c1.51-0.375,2.431-1.903,2.056-3.415l-0.681-2.736c-0.374-1.51-1.905-2.431-3.415-2.056L69.516,53.57z"/>
		<path fill="#FFFFFF" d="M74.21,36.777c-1.399-0.686-3.085-0.107-3.771,1.291L69.199,40.6c-0.686,1.398-0.109,3.087,1.29,3.772
			l0.282,0.138c1.396,0.685,3.087,0.106,3.772-1.292l1.24-2.53c0.686-1.4,0.106-3.089-1.292-3.772L74.21,36.777z"/>
		<path fill="#FFFFFF" d="M62.144,47.785c0.184-1.547-0.922-2.95-2.467-3.133l-2.8-0.335c-1.546-0.183-2.948,0.923-3.133,2.47
			l-0.037,0.309c-0.183,1.547,0.92,2.949,2.467,3.134l2.798,0.331c1.548,0.188,2.949-0.918,3.135-2.465L62.144,47.785z"/>
		<circle fill="#FFFFFF" cx="67.66" cy="48.839" r="2.193"/>
	</g>
</g>
<g id="nyt_x5F_exporter_x5F_info" display="none">
</g>
</svg>
