<?xml version="1.0" encoding="utf-8"?>
<!-- Generator: Adobe Illustrator 16.0.4, SVG Export Plug-In . SVG Version: 6.00 Build 0)  -->
<!DOCTYPE svg PUBLIC "-//W3C//DTD SVG 1.1//EN" "http://www.w3.org/Graphics/SVG/1.1/DTD/svg11.dtd">
<svg version="1.1" xmlns="http://www.w3.org/2000/svg" xmlns:xlink="http://www.w3.org/1999/xlink" x="0px" y="0px" width="100px"
	 height="100px" viewBox="0 0 100 100" enable-background="new 0 0 100 100" xml:space="preserve">
<g id="Layer_1">
	<g>
		<g enable-background="new    ">
			<g>
				<path fill="#C5C6C7" d="M65.15,21.893c4.389,0,7.967,3.65,7.967,8.143c0,4.506-3.578,8.156-7.967,8.156s-7.967-3.65-7.967-8.156
					C57.184,25.543,60.762,21.893,65.15,21.893z"/>
			</g>
			<g>
				<defs>
					<path id="SVGID_35_" d="M73.117,30.035v2.402c0,4.506-3.578,8.156-7.967,8.156s-7.967-3.65-7.967-8.156v-2.402
						c0,4.506,3.578,8.156,7.967,8.156S73.117,34.541,73.117,30.035z"/>
				</defs>
				<use xlink:href="#SVGID_35_"  overflow="visible" fill="#737678"/>
				<clipPath id="SVGID_2_">
					<use xlink:href="#SVGID_35_"  overflow="visible"/>
				</clipPath>
				<g clip-path="url(#SVGID_2_)" enable-background="new    ">
					<path fill="#737678" d="M73.117,30.035v2.402c0,0.408-0.027,0.811-0.086,1.199v-2.4C73.09,30.844,73.117,30.443,73.117,30.035"
						/>
					<path fill="#737678" d="M73.031,31.236v2.4c-0.066,0.461-0.17,0.91-0.311,1.342v-2.4
						C72.861,32.146,72.965,31.695,73.031,31.236"/>
					<path fill="#737678" d="M72.721,32.578v2.4c-0.162,0.512-0.375,1-0.627,1.463v-2.402C72.346,33.576,72.559,33.09,72.721,32.578
						"/>
					<path fill="#737678" d="M72.094,34.039v2.402c-1.371,2.477-3.971,4.152-6.943,4.152c-4.389,0-7.967-3.65-7.967-8.156v-2.402
						c0,4.506,3.578,8.156,7.967,8.156C68.123,38.191,70.723,36.518,72.094,34.039"/>
				</g>
			</g>
		</g>
		<g enable-background="new    ">
			<g>
				<path fill="#C5C6C7" d="M50,33.031c3.904,0,7.068,3.244,7.068,7.227c0,3.988-3.164,7.229-7.068,7.229
					c-3.891,0-7.057-3.24-7.057-7.229C42.943,36.275,46.109,33.031,50,33.031z"/>
			</g>
			<g>
				<defs>
					<path id="SVGID_37_" d="M57.068,40.258v2.402c0,3.986-3.164,7.229-7.068,7.229c-3.891,0-7.057-3.242-7.057-7.229v-2.402
						c0,3.988,3.166,7.229,7.057,7.229C53.904,47.486,57.068,44.246,57.068,40.258z"/>
				</defs>
				<use xlink:href="#SVGID_37_"  overflow="visible" fill="#737678"/>
				<clipPath id="SVGID_4_">
					<use xlink:href="#SVGID_37_"  overflow="visible"/>
				</clipPath>
				<g clip-path="url(#SVGID_4_)" enable-background="new    ">
					<path fill="#737678" d="M57.068,40.258v2.402c0,0.361-0.025,0.715-0.074,1.061v-2.402
						C57.043,40.973,57.068,40.619,57.068,40.258"/>
					<path fill="#737678" d="M56.994,41.318v2.402c-0.061,0.408-0.15,0.807-0.275,1.193v-2.402
						C56.844,42.127,56.934,41.729,56.994,41.318"/>
					<path fill="#737678" d="M56.719,42.512v2.402c-0.145,0.449-0.332,0.883-0.557,1.293v-2.4
						C56.387,43.398,56.574,42.963,56.719,42.512"/>
					<path fill="#737678" d="M56.162,43.807v2.4c-1.215,2.195-3.52,3.682-6.162,3.682c-3.891,0-7.057-3.242-7.057-7.229v-2.402
						c0,3.988,3.166,7.229,7.057,7.229C52.643,47.486,54.947,46,56.162,43.807"/>
				</g>
			</g>
			<g>
				<polygon fill="#737678" points="55.664,52.139 55.051,54.766 50.875,54.766 50.875,52.365 				"/>
			</g>
			<g>
				<polygon fill="#737678" points="49.129,52.365 49.129,54.766 44.951,54.766 44.164,52.139 				"/>
			</g>
			<g>
				<rect x="73.332" y="54.195" fill="#737678" width="1.309" height="2.402"/>
			</g>
			<g>
				<rect x="25.598" y="54.209" fill="#737678" width="1.299" height="2.402"/>
			</g>
			<g>
				<rect x="26.896" y="61.375" fill="#737678" width="7.145" height="2.4"/>
			</g>
			<g>
				<rect x="20.584" y="61.375" fill="#737678" width="5.014" height="2.4"/>
			</g>
			<g>
				<path fill="#C5C6C7" d="M70.188,42.486c5.438,0,9.229,3.418,9.229,8.295v10.594h-4.775v-7.18h-1.309v7.18h-7.373
					c-0.482-5.357-4.822-9.01-10.908-9.01h-4.176v-0.906c4.662-0.42,8.377-4.207,8.789-8.949c0.15-0.01,0.287-0.023,0.438-0.023
					H70.188z"/>
			</g>
			<g>
				<rect x="74.641" y="61.375" fill="#737678" width="4.775" height="2.4"/>
			</g>
			<g>
				<rect x="65.959" y="61.375" fill="#737678" width="7.373" height="2.4"/>
			</g>
			<g>
				<defs>
					<path id="SVGID_39_" d="M65.959,61.375v2.4c-0.482-5.357-4.822-9.01-10.908-9.01v-2.4
						C61.137,52.365,65.477,56.018,65.959,61.375z"/>
				</defs>
				<use xlink:href="#SVGID_39_"  overflow="visible" fill="#737678"/>
				<clipPath id="SVGID_6_">
					<use xlink:href="#SVGID_39_"  overflow="visible"/>
				</clipPath>
				<g clip-path="url(#SVGID_6_)" enable-background="new    ">
					<path fill="#737678" d="M65.959,61.375v2.4c-0.482-5.357-4.822-9.01-10.908-9.01v-2.4
						C61.137,52.365,65.477,56.018,65.959,61.375"/>
				</g>
			</g>
			<g>
				<path fill="#C5C6C7" d="M39.898,42.5c0.152,0,0.301,0.01,0.449,0.01c0.414,4.742,4.127,8.529,8.781,8.949v0.906h-4.178
					c-6.084,0-10.436,3.652-10.91,9.01h-7.145v-7.166h-1.299v7.166h-5.014V50.793c0-4.889,3.793-8.293,9.23-8.293H39.898z"/>
			</g>
			<g>
				<defs>
					<path id="SVGID_41_" d="M44.951,52.365v2.4c-6.084,0-10.436,3.652-10.91,9.01v-2.4C34.516,56.018,38.867,52.365,44.951,52.365z
						"/>
				</defs>
				<use xlink:href="#SVGID_41_"  overflow="visible" fill="#737678"/>
				<clipPath id="SVGID_8_">
					<use xlink:href="#SVGID_41_"  overflow="visible"/>
				</clipPath>
				<g clip-path="url(#SVGID_8_)" enable-background="new    ">
					<path fill="#737678" d="M44.951,52.365v2.4c-4.471,0-8.004,1.969-9.752,5.139V57.5C36.947,54.332,40.48,52.365,44.951,52.365"
						/>
					<path fill="#737678" d="M35.199,57.5v2.404c-0.289,0.52-0.529,1.076-0.717,1.66v-2.4C34.67,58.58,34.91,58.023,35.199,57.5"/>
					<path fill="#737678" d="M34.482,59.164v2.4c-0.166,0.523-0.293,1.066-0.375,1.631v-2.4
						C34.189,60.229,34.316,59.686,34.482,59.164"/>
					<path fill="#737678" d="M34.107,60.795v2.4c-0.027,0.189-0.047,0.383-0.066,0.58v-2.4C34.061,61.18,34.08,60.986,34.107,60.795
						"/>
				</g>
			</g>
			<g>
				<rect x="58.193" y="68.541" fill="#737678" width="1.297" height="2.398"/>
			</g>
			<g>
				<rect x="40.736" y="68.541" fill="#737678" width="1.309" height="2.398"/>
			</g>
			<g>
				<path fill="#C5C6C7" d="M55.051,56.83c5.438,0,9.229,3.418,9.229,8.293v10.586H59.49v-7.168h-1.297v7.168H42.045v-7.168h-1.309
					v7.168h-5.012V65.123c0-4.875,3.789-8.293,9.227-8.293H55.051z"/>
			</g>
			<g>
				<rect x="59.49" y="75.709" fill="#737678" width="4.789" height="2.398"/>
			</g>
			<g>
				<rect x="42.045" y="75.709" fill="#737678" width="16.148" height="2.398"/>
			</g>
			<g>
				<rect x="35.725" y="75.709" fill="#737678" width="5.012" height="2.398"/>
			</g>
		</g>
		<g enable-background="new    ">
			<g>
				<path fill="#C5C6C7" d="M34.852,21.893c4.4,0,7.98,3.664,7.98,8.143c0,4.506-3.58,8.156-7.98,8.156
					c-4.391,0-7.955-3.65-7.955-8.156C26.896,25.557,30.461,21.893,34.852,21.893z"/>
			</g>
			<g>
				<defs>
					<path id="SVGID_43_" d="M42.832,30.035v2.402c0,4.506-3.58,8.156-7.98,8.156c-4.391,0-7.955-3.65-7.955-8.156v-2.402
						c0,4.506,3.564,8.156,7.955,8.156C39.252,38.191,42.832,34.541,42.832,30.035z"/>
				</defs>
				<use xlink:href="#SVGID_43_"  overflow="visible" fill="#737678"/>
				<clipPath id="SVGID_10_">
					<use xlink:href="#SVGID_43_"  overflow="visible"/>
				</clipPath>
				<g clip-path="url(#SVGID_10_)" enable-background="new    ">
					<path fill="#737678" d="M42.832,30.035v2.402c0,0.408-0.031,0.809-0.086,1.199v-2.402
						C42.801,30.844,42.832,30.443,42.832,30.035"/>
					<path fill="#737678" d="M42.746,31.234v2.402c-0.066,0.461-0.172,0.91-0.312,1.342v-2.4
						C42.574,32.146,42.68,31.695,42.746,31.234"/>
					<path fill="#737678" d="M42.434,32.578v2.4c-0.162,0.51-0.373,0.998-0.627,1.459v-2.4
						C42.061,33.576,42.271,33.09,42.434,32.578"/>
					<path fill="#737678" d="M41.807,34.037v2.4c-1.371,2.48-3.975,4.156-6.955,4.156c-4.391,0-7.955-3.65-7.955-8.156v-2.402
						c0,4.506,3.564,8.156,7.955,8.156C37.832,38.191,40.436,36.518,41.807,34.037"/>
				</g>
			</g>
		</g>
	</g>
</g>
<g id="nyt_x5F_exporter_x5F_info" display="none">
</g>
</svg>
