<?xml version="1.0" encoding="utf-8"?>
<!-- Generator: Adobe Illustrator 16.0.4, SVG Export Plug-In . SVG Version: 6.00 Build 0)  -->
<!DOCTYPE svg PUBLIC "-//W3C//DTD SVG 1.1//EN" "http://www.w3.org/Graphics/SVG/1.1/DTD/svg11.dtd">
<svg version="1.1" xmlns="http://www.w3.org/2000/svg" xmlns:xlink="http://www.w3.org/1999/xlink" x="0px" y="0px" width="100px"
	 height="100px" viewBox="0 0 100 100" enable-background="new 0 0 100 100" xml:space="preserve">
<g id="Layer_1">
	<g>
		<polygon fill="#B7CA9D" points="81.819,63.545 50.011,58.872 18.181,63.551 49.991,74.833 		"/>
		<polygon fill="#759C3E" points="65.901,61.951 40.476,67.916 40.476,14 65.901,23.91 		"/>
		<polygon fill="#759C3E" points="48.964,61.337 29.927,64.681 29.927,25.858 48.964,30.14 		"/>
		<polygon fill="#4B612C" points="43.181,68.666 49.997,70.711 49.991,54.937 43.181,54.201 		"/>
		<polygon fill="#4B612C" points="40.476,67.855 33.056,65.629 33.056,17.711 40.476,14.001 		"/>
		<polygon fill="#4B612C" points="49.991,74.833 18.181,63.551 18.181,70.095 49.991,86 		"/>
		<polygon fill="#759C3E" points="81.819,70.087 49.991,86 49.991,74.833 81.819,63.545 		"/>
		<polygon fill="#4B612C" points="24.55,63 29.927,64.613 29.927,25.857 24.55,27.914 		"/>
		<polygon fill="#759C3E" points="72.88,52.703 49.991,54.936 49.997,70.711 72.88,63.822 		"/>
		<polygon fill="#B7CA9D" points="72.88,52.703 65.167,52.703 43.181,54.201 49.991,54.936 		"/>
	</g>
</g>
<g id="nyt_x5F_exporter_x5F_info" display="none">
	<text transform="matrix(1 0 0 1 -191 0)" display="inline"><tspan x="0" y="0" font-family="'MyriadPro-Regular'" font-size="12">&lt;nyt_prefs&gt;</tspan><tspan x="0" y="14.4" font-family="'MyriadPro-Regular'" font-size="12">  &lt;nyt_prefix&gt;&lt;/nyt_prefix&gt;</tspan><tspan x="0" y="28.8" font-family="'MyriadPro-Regular'" font-size="12">  &lt;nyt_suffix&gt;&lt;/nyt_suffix&gt;</tspan><tspan x="0" y="43.2" font-family="'MyriadPro-Regular'" font-size="12">  &lt;nyt_base_path&gt;~/Desktop/wip/Architecture%20Icons%20-%20Update%20all%20customer-facing%20files%20/AWS-Simple-Icons%202/Deployment%20&amp;amp;%20Management/EPS&lt;/nyt_base_path&gt;</tspan><tspan x="0" y="57.6" font-family="'MyriadPro-Regular'" font-size="12">  &lt;nyt_scaling&gt;100&lt;/nyt_scaling&gt;</tspan><tspan x="0" y="72" font-family="'MyriadPro-Regular'" font-size="12">  &lt;nyt_transparency&gt;true&lt;/nyt_transparency&gt;</tspan><tspan x="0" y="86.4" font-family="'MyriadPro-Regular'" font-size="12">  &lt;nyt_format&gt;EPS&lt;/nyt_format&gt;</tspan><tspan x="0" y="100.8" font-family="'MyriadPro-Regular'" font-size="12">  &lt;nyt_export_code&gt;artboards&lt;/nyt_export_code&gt;</tspan><tspan x="0" y="115.2" font-family="'MyriadPro-Regular'" font-size="12">&lt;/nyt_prefs&gt;</tspan></text>
</g>
</svg>
