<?xml version="1.0" encoding="utf-8"?>
<!-- Generator: Adobe Illustrator 16.0.4, SVG Export Plug-In . SVG Version: 6.00 Build 0)  -->
<!DOCTYPE svg PUBLIC "-//W3C//DTD SVG 1.1//EN" "http://www.w3.org/Graphics/SVG/1.1/DTD/svg11.dtd">
<svg version="1.1" xmlns="http://www.w3.org/2000/svg" xmlns:xlink="http://www.w3.org/1999/xlink" x="0px" y="0px" width="100px"
	 height="100px" viewBox="0 0 100 100" enable-background="new 0 0 100 100" xml:space="preserve">
<g id="Layer_1">
	<g>
		<polygon fill="#B7CA9D" points="24.238,63.795 50.135,71.564 50.25,67.102 32.465,62.639 		"/>
		<polygon fill="#3C4929" points="50.25,33.214 32.465,37.359 24.238,36.204 50.135,28.435 		"/>
		<polygon fill="#B7CA9D" points="75.762,63.795 49.865,71.564 49.75,67.102 67.535,62.639 		"/>
		<polygon fill="#3C4929" points="49.75,33.214 67.535,37.359 75.762,36.204 49.865,28.435 		"/>
		<polygon fill="#759C3E" points="32.465,62.639 24.238,63.795 24.238,36.204 32.465,37.36 		"/>
		<path fill="#4B612C" d="M49.965,14L20.428,28.909l0.014,42.19L49.965,86V14z M41.328,68.924l-17.09-5.129V36.204l17.09-5.127
			V68.924z"/>
		<polygon fill="#4B612C" points="67.535,62.639 75.762,63.795 75.762,36.204 67.535,37.36 		"/>
		<path fill="#759C3E" d="M49.965,86l29.594-14.9l0.014-42.19L49.965,14V86z M58.672,31.077l17.09,5.127v27.591l-17.09,5.129V31.077
			z"/>
	</g>
</g>
<g id="nyt_x5F_exporter_x5F_info" display="none">
	<text transform="matrix(1 0 0 1 -595 0)" display="inline"><tspan x="0" y="0" font-family="'MyriadPro-Regular'" font-size="12">&lt;nyt_prefs&gt;</tspan><tspan x="0" y="14.4" font-family="'MyriadPro-Regular'" font-size="12">  &lt;nyt_prefix&gt;&lt;/nyt_prefix&gt;</tspan><tspan x="0" y="28.8" font-family="'MyriadPro-Regular'" font-size="12">  &lt;nyt_suffix&gt;&lt;/nyt_suffix&gt;</tspan><tspan x="0" y="43.2" font-family="'MyriadPro-Regular'" font-size="12">  &lt;nyt_base_path&gt;~/Desktop/wip/Architecture%20Icons%20-%20Update%20all%20customer-facing%20files%20/AWS-Simple-Icons%202/Deployment%20&amp;amp;%20Management/EPS&lt;/nyt_base_path&gt;</tspan><tspan x="0" y="57.6" font-family="'MyriadPro-Regular'" font-size="12">  &lt;nyt_scaling&gt;100&lt;/nyt_scaling&gt;</tspan><tspan x="0" y="72" font-family="'MyriadPro-Regular'" font-size="12">  &lt;nyt_transparency&gt;true&lt;/nyt_transparency&gt;</tspan><tspan x="0" y="86.4" font-family="'MyriadPro-Regular'" font-size="12">  &lt;nyt_format&gt;EPS&lt;/nyt_format&gt;</tspan><tspan x="0" y="100.8" font-family="'MyriadPro-Regular'" font-size="12">  &lt;nyt_export_code&gt;artboards&lt;/nyt_export_code&gt;</tspan><tspan x="0" y="115.2" font-family="'MyriadPro-Regular'" font-size="12">&lt;/nyt_prefs&gt;</tspan></text>
</g>
</svg>
