<?xml version="1.0" encoding="utf-8"?>
<!-- Generator: Adobe Illustrator 16.0.4, SVG Export Plug-In . SVG Version: 6.00 Build 0)  -->
<!DOCTYPE svg PUBLIC "-//W3C//DTD SVG 1.1//EN" "http://www.w3.org/Graphics/SVG/1.1/DTD/svg11.dtd">
<svg version="1.1" xmlns="http://www.w3.org/2000/svg" xmlns:xlink="http://www.w3.org/1999/xlink" x="0px" y="0px" width="100px"
	 height="100px" viewBox="0 0 100 100" enable-background="new 0 0 100 100" xml:space="preserve">
<g id="Layer_1">
	<g>
		<g enable-background="new    ">
			<g>
				<defs>
					<path id="SVGID_1_" d="M37.487,46.652v-2.664c0-0.75,0.385-2.127,0.838-2.279c0.164-0.055,16.772-6.104,25.602-20.277v2.666
						C55.098,38.27,38.489,44.314,38.325,44.373C37.872,44.525,37.487,45.902,37.487,46.652z"/>
				</defs>
				<use xlink:href="#SVGID_1_"  overflow="visible" fill="#4D622C"/>
				<clipPath id="SVGID_2_">
					<use xlink:href="#SVGID_1_"  overflow="visible"/>
				</clipPath>
				<g clip-path="url(#SVGID_2_)" enable-background="new    ">
					<path fill="#4D622C" d="M63.927,21.432v2.666C55.098,38.27,38.489,44.314,38.325,44.373c-0.121,0.043-0.244,0.178-0.35,0.359
						v-2.658c0.105-0.188,0.229-0.322,0.35-0.365C38.489,41.654,55.098,35.605,63.927,21.432"/>
					<path fill="#4D622C" d="M37.976,42.074v2.658c-0.088,0.158-0.172,0.35-0.238,0.559v-2.664
						C37.804,42.416,37.888,42.227,37.976,42.074"/>
					<path fill="#4D622C" d="M37.737,42.627v2.664c-0.093,0.275-0.166,0.576-0.207,0.852V43.48
						C37.571,43.205,37.645,42.9,37.737,42.627"/>
					<path fill="#4D622C" d="M37.53,43.48v2.662c-0.027,0.189-0.043,0.361-0.043,0.51v-2.664
						C37.487,43.838,37.503,43.664,37.53,43.48"/>
				</g>
			</g>
			<g>
				<defs>
					<path id="SVGID_3_" d="M65.264,24.604v2.664c-0.557,5.977-1.929,14.477-4.807,17.35c-2.668,2.635-9.696,4.068-17.271,4.689
						v-2.666c7.574-0.615,14.603-2.049,17.271-4.699C63.335,39.084,64.707,30.582,65.264,24.604z"/>
				</defs>
				<use xlink:href="#SVGID_3_"  overflow="visible" fill="#4D622C"/>
				<clipPath id="SVGID_4_">
					<use xlink:href="#SVGID_3_"  overflow="visible"/>
				</clipPath>
				<g clip-path="url(#SVGID_4_)" enable-background="new    ">
					<path fill="#4D622C" d="M65.264,24.604v2.664c-0.139,1.521-0.336,3.201-0.588,4.908v-2.664
						C64.928,27.795,65.125,26.119,65.264,24.604"/>
					<path fill="#4D622C" d="M64.676,29.512v2.664c-0.412,2.713-0.984,5.5-1.762,7.826v-2.664
						C63.691,35.016,64.264,32.225,64.676,29.512"/>
					<path fill="#4D622C" d="M62.914,37.338v2.664c-0.385,1.158-0.822,2.201-1.316,3.061v-2.658
						C62.092,39.535,62.529,38.49,62.914,37.338"/>
					<path fill="#4D622C" d="M61.598,40.404v2.658c-0.35,0.615-0.73,1.143-1.141,1.555c-2.668,2.635-9.696,4.068-17.271,4.689
						v-2.666c7.574-0.615,14.603-2.049,17.271-4.699C60.867,41.541,61.248,41.014,61.598,40.404"/>
				</g>
			</g>
			<g>
				<path fill="#769B3F" d="M39.292,45.473c0.703-0.23,16.718-5.822,25.972-20.869c-0.557,5.979-1.929,14.48-4.807,17.338
					c-2.668,2.65-9.696,4.084-17.271,4.699v29.262h-8.45V46.676c0.644-6.693,1.107-12.121,6.937-17.309
					c4.114-3.674,15.296-7.039,22.254-7.936c-8.829,14.174-25.438,20.223-25.602,20.277c-0.537,0.18-0.98,2.086-0.795,2.623
					c0.148,0.426,1.006,1.201,1.432,1.201C39.071,45.533,39.183,45.523,39.292,45.473z"/>
			</g>
			<g>
				<rect x="34.736" y="75.902" fill="#4D622C" width="8.45" height="2.666"/>
			</g>
		</g>
	</g>
</g>
<g id="nyt_x5F_exporter_x5F_info" display="none">
</g>
</svg>
