<?xml version="1.0" encoding="utf-8"?>
<!-- Generator: Adobe Illustrator 16.0.4, SVG Export Plug-In . SVG Version: 6.00 Build 0)  -->
<!DOCTYPE svg PUBLIC "-//W3C//DTD SVG 1.1//EN" "http://www.w3.org/Graphics/SVG/1.1/DTD/svg11.dtd">
<svg version="1.1" xmlns="http://www.w3.org/2000/svg" xmlns:xlink="http://www.w3.org/1999/xlink" x="0px" y="0px" width="100px"
	 height="100px" viewBox="0 0 100 100" enable-background="new 0 0 100 100" xml:space="preserve">
<g id="Layer_1">
	<g>
		<polygon fill="#759C3E" points="58.92,50 50,50 50,86 58.92,81.54 		"/>
		<polygon fill="#759C3E" points="71.447,24.724 76.014,27.007 76.014,40.803 71.447,39.89 		"/>
		<polygon fill="#759C3E" points="62.6,20.301 50,14 50,50 62.6,50 		"/>
		<polygon fill="#4B612C" points="54.824,41.648 71.447,39.841 71.447,24.724 54.824,29.221 		"/>
		<polygon fill="#3C4929" points="76.014,40.803 60.062,42.3 54.824,41.648 71.289,39.857 		"/>
		<polygon fill="#4B612C" points="41.078,50 50,50 50,14 41.078,18.46 		"/>
		<polygon fill="#4B612C" points="28.553,75.276 23.986,72.993 23.986,59.197 28.553,60.11 		"/>
		<polygon fill="#4B612C" points="37.398,79.699 50,86 50,50 37.398,50 		"/>
		<polygon fill="#759C3E" points="45.176,58.352 28.553,60.159 28.553,75.276 45.176,70.779 		"/>
		<polygon fill="#B7CA9D" points="23.986,59.197 39.936,57.7 45.176,58.352 28.709,60.143 		"/>
	</g>
</g>
<g id="nyt_x5F_exporter_x5F_info" display="none">
	<text display="inline"><tspan x="0" y="0" font-family="'MyriadPro-Regular'" font-size="12">&lt;nyt_prefs&gt;</tspan><tspan x="0" y="14.4" font-family="'MyriadPro-Regular'" font-size="12">  &lt;nyt_prefix&gt;&lt;/nyt_prefix&gt;</tspan><tspan x="0" y="28.8" font-family="'MyriadPro-Regular'" font-size="12">  &lt;nyt_suffix&gt;&lt;/nyt_suffix&gt;</tspan><tspan x="0" y="43.2" font-family="'MyriadPro-Regular'" font-size="12">  &lt;nyt_base_path&gt;~/Desktop/wip/Architecture%20Icons%20-%20Update%20all%20customer-facing%20files%20/AWS-Simple-Icons%202/Deployment%20&amp;amp;%20Management/EPS&lt;/nyt_base_path&gt;</tspan><tspan x="0" y="57.6" font-family="'MyriadPro-Regular'" font-size="12">  &lt;nyt_scaling&gt;100&lt;/nyt_scaling&gt;</tspan><tspan x="0" y="72" font-family="'MyriadPro-Regular'" font-size="12">  &lt;nyt_transparency&gt;true&lt;/nyt_transparency&gt;</tspan><tspan x="0" y="86.4" font-family="'MyriadPro-Regular'" font-size="12">  &lt;nyt_format&gt;EPS&lt;/nyt_format&gt;</tspan><tspan x="0" y="100.8" font-family="'MyriadPro-Regular'" font-size="12">  &lt;nyt_export_code&gt;artboards&lt;/nyt_export_code&gt;</tspan><tspan x="0" y="115.2" font-family="'MyriadPro-Regular'" font-size="12">&lt;/nyt_prefs&gt;</tspan></text>
</g>
</svg>
