<?xml version="1.0" encoding="utf-8"?>
<!-- Generator: Adobe Illustrator 16.0.4, SVG Export Plug-In . SVG Version: 6.00 Build 0)  -->
<!DOCTYPE svg PUBLIC "-//W3C//DTD SVG 1.1//EN" "http://www.w3.org/Graphics/SVG/1.1/DTD/svg11.dtd">
<svg version="1.1" xmlns="http://www.w3.org/2000/svg" xmlns:xlink="http://www.w3.org/1999/xlink" x="0px" y="0px" width="100px"
	 height="100px" viewBox="0 0 100 100" enable-background="new 0 0 100 100" xml:space="preserve">
<g id="Layer_1">
	<g>
		<g>
			<defs>
				<path id="SVGID_15_" d="M46.83,50.457v-2.664c0-0.75,0.385-2.127,0.838-2.279c0.164-0.055,16.772-6.104,25.602-20.277v2.666
					C64.44,42.074,47.832,48.119,47.668,48.178C47.215,48.33,46.83,49.707,46.83,50.457z"/>
			</defs>
			<use xlink:href="#SVGID_15_"  overflow="visible" fill="#4D622C"/>
			<clipPath id="SVGID_2_">
				<use xlink:href="#SVGID_15_"  overflow="visible"/>
			</clipPath>
			<g clip-path="url(#SVGID_2_)" enable-background="new    ">
				<path fill="#4D622C" d="M73.27,25.236v2.666C64.44,42.074,47.832,48.119,47.668,48.178c-0.121,0.043-0.244,0.178-0.35,0.359
					v-2.658c0.105-0.188,0.229-0.322,0.35-0.365C47.832,45.459,64.44,39.41,73.27,25.236"/>
				<path fill="#4D622C" d="M47.318,45.879v2.658c-0.088,0.158-0.172,0.35-0.238,0.559v-2.664
					C47.146,46.221,47.23,46.031,47.318,45.879"/>
				<path fill="#4D622C" d="M47.08,46.432v2.664c-0.093,0.275-0.166,0.576-0.207,0.852v-2.662
					C46.914,47.01,46.987,46.705,47.08,46.432"/>
				<path fill="#4D622C" d="M46.873,47.285v2.662c-0.027,0.189-0.043,0.361-0.043,0.51v-2.664
					C46.83,47.643,46.846,47.469,46.873,47.285"/>
			</g>
		</g>
		<g>
			<defs>
				<path id="SVGID_17_" d="M74.665,28.368v2.664c-0.557,5.977-1.929,14.477-4.807,17.35c-2.668,2.635-9.696,4.068-17.271,4.689
					v-2.666c7.574-0.615,14.603-2.049,17.271-4.699C72.736,42.849,74.108,34.347,74.665,28.368z"/>
			</defs>
			<use xlink:href="#SVGID_17_"  overflow="visible" fill="#4D622C"/>
			<clipPath id="SVGID_4_">
				<use xlink:href="#SVGID_17_"  overflow="visible"/>
			</clipPath>
			<g clip-path="url(#SVGID_4_)" enable-background="new    ">
				<path fill="#4D622C" d="M74.665,28.368v2.664c-0.139,1.521-0.336,3.201-0.588,4.908v-2.664
					C74.329,31.56,74.526,29.884,74.665,28.368"/>
				<path fill="#4D622C" d="M74.077,33.276v2.664c-0.412,2.713-0.984,5.5-1.762,7.826v-2.664
					C73.093,38.78,73.665,35.989,74.077,33.276"/>
				<path fill="#4D622C" d="M72.315,41.103v2.664c-0.385,1.158-0.822,2.201-1.316,3.061v-2.658
					C71.493,43.3,71.931,42.255,72.315,41.103"/>
				<path fill="#4D622C" d="M70.999,44.169v2.658c-0.35,0.615-0.73,1.143-1.141,1.555c-2.668,2.635-9.696,4.068-17.271,4.689v-2.666
					c7.574-0.615,14.603-2.049,17.271-4.699C70.269,45.306,70.649,44.778,70.999,44.169"/>
			</g>
		</g>
		<g>
			<rect x="43.712" y="80.071" fill="#4D622C" width="9" height="2.666"/>
		</g>
		<g>
			<defs>
				<path id="SVGID_19_" d="M50.858,29.922v1.144c0,6.99-5.714,12.659-12.762,12.659s-12.762-5.669-12.762-12.659v-1.144
					c0,6.991,5.714,12.659,12.762,12.659S50.858,36.913,50.858,29.922z"/>
			</defs>
			<use xlink:href="#SVGID_19_"  overflow="visible" fill="#4D622C"/>
			<clipPath id="SVGID_6_">
				<use xlink:href="#SVGID_19_"  overflow="visible"/>
			</clipPath>
			<g clip-path="url(#SVGID_6_)" enable-background="new    ">
				<path fill="#4D622C" d="M50.858,29.922v1.144c0,0.643-0.048,1.273-0.141,1.887v-1.142
					C50.811,31.193,50.858,30.565,50.858,29.922"/>
				<path fill="#4D622C" d="M50.718,31.811v1.142c-0.107,0.723-0.277,1.424-0.505,2.101v-1.147
					C50.44,33.233,50.61,32.529,50.718,31.811"/>
				<path fill="#4D622C" d="M50.213,33.905v1.147c-0.265,0.792-0.608,1.554-1.02,2.27v-1.142
					C49.604,35.464,49.948,34.702,50.213,33.905"/>
				<path fill="#4D622C" d="M49.193,36.181v1.142c-2.195,3.823-6.342,6.402-11.097,6.402c-7.048,0-12.762-5.669-12.762-12.659
					v-1.144c0,6.991,5.714,12.659,12.762,12.659C42.852,42.581,46.998,40.003,49.193,36.181"/>
			</g>
		</g>
		<g>
			<path fill="#769B3F" d="M38.097,42.581c-7.048,0-12.762-5.671-12.762-12.66c0-6.991,5.714-12.658,12.762-12.658
				s12.762,5.667,12.762,12.658C50.858,36.91,45.145,42.581,38.097,42.581z"/>
		</g>
		<g>
			<path fill="#FFFFFF" d="M34.779,39.74h6.63V27.107h4.734l-8.046-7.859l-8.047,7.898h4.731L34.779,39.74z M32.275,26.237
				l5.824-5.716l5.812,5.678h-3.415v12.634h-4.803l0.003-12.596H32.275z"/>
		</g>
		<path fill="#769B3F" d="M48.653,49.276c-0.109,0.051-0.221,0.061-0.33,0.061c-0.426,0-1.283-0.775-1.432-1.201
			c-0.186-0.537,0.258-2.443,0.795-2.623c0.164-0.055,16.771-6.103,25.601-20.276c-6.001,0.773-15.144,3.383-20.185,6.443
			c0.02,0.285,0.03,0.572,0.03,0.862c0,5.429-3.496,10.061-8.337,11.859C44.443,46.32,45,48.335,44,50.479V80h9V50.444
			c7-0.615,14.375-2.049,17.043-4.699c2.879-2.857,4.138-11.358,4.694-17.337C65.483,43.454,49.356,49.046,48.653,49.276z"/>
	</g>
</g>
<g id="nyt_x5F_exporter_x5F_info" display="none">
</g>
</svg>
