<?xml version="1.0" encoding="utf-8"?>
<!-- Generator: Adobe Illustrator 16.0.4, SVG Export Plug-In . SVG Version: 6.00 Build 0)  -->
<!DOCTYPE svg PUBLIC "-//W3C//DTD SVG 1.1//EN" "http://www.w3.org/Graphics/SVG/1.1/DTD/svg11.dtd">
<svg version="1.1" xmlns="http://www.w3.org/2000/svg" xmlns:xlink="http://www.w3.org/1999/xlink" x="0px" y="0px" width="100px"
	 height="100px" viewBox="0 0 100 100" enable-background="new 0 0 100 100" xml:space="preserve">
<g id="Layer_1">
	<g>
		<g enable-background="new    ">
			<g>
				<polygon fill="#4D622C" points="71.528,49.034 71.528,51.647 69.751,54.95 69.751,52.335 				"/>
			</g>
			<g>
				<polygon fill="#4D622C" points="70.528,51.571 69.751,54.95 49.384,55.233 48.966,52.446 				"/>
			</g>
			<g>
				<defs>
					<path id="SVGID_7_" d="M49.384,52.618v2.615c-0.043,0.137-0.258,0.633-0.623,1.291v-2.613
						C49.126,53.251,49.341,52.757,49.384,52.618z"/>
				</defs>
				<use xlink:href="#SVGID_7_"  overflow="visible" fill="#4D622C"/>
				<clipPath id="SVGID_2_">
					<use xlink:href="#SVGID_7_"  overflow="visible"/>
				</clipPath>
				<g clip-path="url(#SVGID_2_)" enable-background="new    ">
					<path fill="#4D622C" d="M49.382,52.628v2.613c-0.047,0.146-0.631,1.293-0.979,1.924l-0.25-3.219
						C48.501,53.315,49.335,52.774,49.382,52.628"/>
					<path fill="#4D622C" d="M49.384,52.618v2.615c-0.002,0.002-0.002,0.004-0.002,0.008v-2.613
						C49.382,52.622,49.382,52.62,49.384,52.618"/>
					<path fill="#4D622C" d="M48.774,53.886"/>
				</g>
			</g>
			<g>
				<defs>
					<path id="SVGID_9_" d="M48.966,53.509l-0.205,3.016c-0.301,0.584-0.736,1.193-1.186,1.703l0.07-2.656
						C48.095,55.06,48.665,54.089,48.966,53.509z"/>
				</defs>
				<use xlink:href="#SVGID_9_"  overflow="visible" fill="#4D622C"/>
				<clipPath id="SVGID_4_">
					<use xlink:href="#SVGID_9_"  overflow="visible"/>
				</clipPath>
				<g clip-path="url(#SVGID_4_)">
					<path fill="#4D622C" d="M49.153,53.134l-0.344,3.266c-0.275,0.5-0.924,1.506-1.312,1.953l0.031-2.719
						c0.389-0.451,1.412-2.062,1.688-2.562"/>
				</g>
			</g>
			<g>
				<defs>
					<path id="SVGID_11_" d="M47.731,55.228l-0.086,2.957c-0.408,0.512-0.939,1.035-1.508,1.48l-0.281-2.641
						C46.425,56.583,47.323,55.739,47.731,55.228z"/>
				</defs>
				<use xlink:href="#SVGID_11_"  overflow="visible" fill="#4D622C"/>
				<clipPath id="SVGID_6_">
					<use xlink:href="#SVGID_11_"  overflow="visible"/>
				</clipPath>
				<g clip-path="url(#SVGID_6_)">
					<path fill="#4D622C" d="M47.856,55.212l-0.141,2.859c-0.408,0.512-0.967,1.123-1.535,1.568l-0.527-2.818
						c0.568-0.441,1.795-1.082,2.203-1.594"/>
				</g>
			</g>
			<g>
				<defs>
					<path id="SVGID_13_" d="M28.472,51.308v-2.613c0,2.4,0.807,4.814,2.461,6.822c0.271,0.324,0.559,0.635,0.855,0.914
						c2.074,1.994,4.799,3.025,7.543,3.025c2.416,0,4.84-0.799,6.85-2.434v2.617c-2.01,1.633-4.434,2.43-6.85,2.43
						c-2.744,0-5.469-1.027-7.543-3.023c-0.297-0.283-0.584-0.59-0.855-0.916C29.278,56.126,28.472,53.708,28.472,51.308z"/>
				</defs>
				<use xlink:href="#SVGID_13_"  overflow="visible" fill="#4D622C"/>
				<clipPath id="SVGID_8_">
					<use xlink:href="#SVGID_13_"  overflow="visible"/>
				</clipPath>
				<g clip-path="url(#SVGID_8_)">
					<path fill="#4D622C" d="M46.653,56.196c-2.01,1.635-4.906,3.26-7.322,3.26c-2.744,0-5.469-1.031-7.543-3.025
						c-0.297-0.279-0.584-0.59-0.855-0.914c-1.654-2.008-2.461-4.422-2.461-6.822v2.613c0,2.4,0.807,4.818,2.461,6.822
						c0.271,0.326,0.559,0.633,0.855,0.916c2.074,1.996,4.799,3.023,7.543,3.023c2.416,0,4.84-0.797,6.85-2.43L46.653,56.196z"/>
				</g>
			</g>
			<g>
				<path fill="#769B3F" d="M67.603,45.37l3.926,3.664l-1.777,3.301l-20.367,0.283c-0.043,0.139-0.258,0.633-0.623,1.293
					c-0.301,0.58-0.666,1.148-1.115,1.66c-0.408,0.512-0.896,1.01-1.465,1.451c-2.01,1.635-4.434,2.434-6.85,2.434
					c-2.744,0-5.469-1.031-7.543-3.025c-0.297-0.279-0.584-0.59-0.855-0.914c-3.801-4.609-3.121-11.389,1.521-15.148
					c2.012-1.641,4.441-2.438,6.859-2.438c2.428,0,4.84,0.803,6.801,2.373c1.479,1.088,2.434,2.662,2.482,2.748l1.139,0.053
					l4.971-0.068l1.75,3.049l4.211-0.395l1.615,1.658l1.479,0.322L67.603,45.37z M34.558,51.353
					c1.576-0.014,2.826-1.309,2.809-2.857c-0.025-1.555-1.301-2.793-2.865-2.793c-0.008,0-0.016,0-0.025,0.004
					c-1.559,0.025-2.824,1.305-2.795,2.869c0.012,1.533,1.273,2.777,2.828,2.777C34.524,51.353,34.542,51.353,34.558,51.353"/>
			</g>
		</g>
	</g>
</g>
<g id="nyt_x5F_exporter_x5F_info" display="none">
</g>
</svg>
