<?xml version="1.0" encoding="utf-8"?>
<!-- Generator: Adobe Illustrator 16.0.4, SVG Export Plug-In . SVG Version: 6.00 Build 0)  -->
<!DOCTYPE svg PUBLIC "-//W3C//DTD SVG 1.1//EN" "http://www.w3.org/Graphics/SVG/1.1/DTD/svg11.dtd">
<svg version="1.1" xmlns="http://www.w3.org/2000/svg" xmlns:xlink="http://www.w3.org/1999/xlink" x="0px" y="0px" width="100px"
	 height="100px" viewBox="0 0 100 100" enable-background="new 0 0 100 100" xml:space="preserve">
<g id="Layer_1">
	<g>
		<g>
			<path fill="#3C492A" d="M34.5,46.009c-0.008,0-0.016,1-0.025,1.004c-1.559,0.025-2.824,0.476-2.795,2.04
				C31.691,50.586,32.953,52,34.508,52c0.016,0,0.033,0,0.049,0c1.576,0,2.826-1.479,2.809-3.027
				C37.34,47.418,36.064,46.009,34.5,46.009z"/>
			<path fill="#3C492A" d="M23,37v28h54V37H23z M69.75,54.642l-20.367,0.283c-0.043,0.139-0.258,0.633-0.623,1.293
				c-0.301,0.58-0.666,1.148-1.115,1.66c-0.408,0.512-0.896,1.01-1.465,1.451c-2.01,1.635-4.434,2.434-6.85,2.434
				c-2.744,0-5.469-1.031-7.543-3.025c-0.297-0.279-0.584-0.59-0.855-0.914c-3.801-4.609-3.121-11.389,1.521-15.148
				c2.012-1.641,4.441-2.438,6.859-2.438c2.428,0,4.84,0.803,6.801,2.373c1.479,1.088,2.434,2.662,2.482,2.748l1.139,0.053
				l4.971-0.068l1.75,3.049l4.211-0.395l1.615,1.658l1.479,0.322l3.842-2.301l3.926,3.664L69.75,54.642z"/>
		</g>
		<rect x="31.68" y="48.5" fill="#3C492A" width="5.686" height="1"/>
		<g>
			<path fill="#769B3F" d="M34.5,45.009c-0.008,0-0.016,0-0.025,0.004c-1.559,0.025-2.824,1.476-2.795,3.04
				C31.691,49.586,32.953,51,34.508,51c0.016,0,0.033,0,0.049,0c1.576,0,2.826-1.479,2.809-3.027
				C37.34,46.418,36.064,45.009,34.5,45.009z"/>
			<path fill="#769B3F" d="M23,34v28h54V34H23z M69.75,51.642l-20.367,0.283c-0.043,0.139-0.258,0.633-0.623,1.293
				c-0.301,0.58-0.666,1.148-1.115,1.66c-0.408,0.512-0.896,1.01-1.465,1.451c-2.01,1.635-4.434,2.434-6.85,2.434
				c-2.744,0-5.469-1.031-7.543-3.025c-0.297-0.279-0.584-0.59-0.855-0.914c-3.801-4.609-3.121-11.389,1.521-15.148
				c2.012-1.641,4.441-2.438,6.859-2.438c2.428,0,4.84,0.803,6.801,2.373c1.479,1.088,2.434,2.662,2.482,2.748l1.139,0.053
				l4.971-0.068l1.75,3.049l4.211-0.395l1.615,1.658l1.479,0.322l3.842-2.301l3.926,3.664L69.75,51.642z"/>
		</g>
	</g>
</g>
<g id="nyt_x5F_exporter_x5F_info" display="none">
</g>
</svg>
