<?xml version="1.0" encoding="utf-8"?>
<!-- Generator: Adobe Illustrator 16.0.4, SVG Export Plug-In . SVG Version: 6.00 Build 0)  -->
<!DOCTYPE svg PUBLIC "-//W3C//DTD SVG 1.1//EN" "http://www.w3.org/Graphics/SVG/1.1/DTD/svg11.dtd">
<svg version="1.1" xmlns="http://www.w3.org/2000/svg" xmlns:xlink="http://www.w3.org/1999/xlink" x="0px" y="0px" width="100px"
	 height="100px" viewBox="0 0 100 100" enable-background="new 0 0 100 100" xml:space="preserve">
<g id="Layer_1">
	<g>
		<polygon fill="#4B612C" points="79.854,67.621 79.854,50.037 61.772,50.037 61.772,72.668 71.491,75.291 		"/>
		<polygon fill="#4B612C" points="50.001,64.678 71.351,69.015 71.351,24.697 50.001,30.487 		"/>
		<polygon fill="#759C3E" points="50.001,50.037 50.001,14 65.742,21.887 		"/>
		<polygon fill="#759C3E" points="79.854,50.037 79.854,71.146 71.471,75.34 		"/>
		<polygon fill="#759C3E" points="79.854,37.496 79.854,28.883 71.351,24.697 50.001,64.678 50.001,86 65.794,78.104 		"/>
		<polygon fill="#759C3E" points="20.146,67.621 20.146,50.037 38.229,50.037 38.229,72.668 28.511,75.291 		"/>
		<polygon fill="#759C3E" points="50.001,64.678 28.65,69.015 28.65,24.697 50.001,30.487 		"/>
		<polygon fill="#4B612C" points="50.001,50.037 50.001,14 34.259,21.887 		"/>
		<polygon fill="#4B612C" points="20.146,50.037 20.146,71.146 28.53,75.34 		"/>
		<polygon fill="#4B612C" points="20.146,37.496 20.146,28.883 28.65,24.697 50.001,64.678 50.001,86 34.208,78.104 		"/>
	</g>
</g>
<g id="nyt_x5F_exporter_x5F_info" display="none">
	<text transform="matrix(1 0 0 1 -990 0)" display="inline"><tspan x="0" y="0" font-family="'MyriadPro-Regular'" font-size="12">&lt;nyt_prefs&gt;</tspan><tspan x="0" y="14.4" font-family="'MyriadPro-Regular'" font-size="12">  &lt;nyt_prefix&gt;&lt;/nyt_prefix&gt;</tspan><tspan x="0" y="28.8" font-family="'MyriadPro-Regular'" font-size="12">  &lt;nyt_suffix&gt;&lt;/nyt_suffix&gt;</tspan><tspan x="0" y="43.2" font-family="'MyriadPro-Regular'" font-size="12">  &lt;nyt_base_path&gt;~/Desktop/wip/Architecture%20Icons%20-%20Update%20all%20customer-facing%20files%20/AWS-Simple-Icons%202/Deployment%20&amp;amp;%20Management/EPS&lt;/nyt_base_path&gt;</tspan><tspan x="0" y="57.6" font-family="'MyriadPro-Regular'" font-size="12">  &lt;nyt_scaling&gt;100&lt;/nyt_scaling&gt;</tspan><tspan x="0" y="72" font-family="'MyriadPro-Regular'" font-size="12">  &lt;nyt_transparency&gt;true&lt;/nyt_transparency&gt;</tspan><tspan x="0" y="86.4" font-family="'MyriadPro-Regular'" font-size="12">  &lt;nyt_format&gt;EPS&lt;/nyt_format&gt;</tspan><tspan x="0" y="100.8" font-family="'MyriadPro-Regular'" font-size="12">  &lt;nyt_export_code&gt;artboards&lt;/nyt_export_code&gt;</tspan><tspan x="0" y="115.2" font-family="'MyriadPro-Regular'" font-size="12">&lt;/nyt_prefs&gt;</tspan></text>
</g>
</svg>
