<?xml version="1.0" encoding="utf-8"?>
<!-- Generator: Adobe Illustrator 16.0.4, SVG Export Plug-In . SVG Version: 6.00 Build 0)  -->
<!DOCTYPE svg PUBLIC "-//W3C//DTD SVG 1.1//EN" "http://www.w3.org/Graphics/SVG/1.1/DTD/svg11.dtd">
<svg version="1.1" xmlns="http://www.w3.org/2000/svg" xmlns:xlink="http://www.w3.org/1999/xlink" x="0px" y="0px" width="100px"
	 height="100px" viewBox="0 0 100 100" enable-background="new 0 0 100 100" xml:space="preserve">
<g id="Layer_1">
	<g>
		<g>
			<polygon fill="#FFFFFF" stroke="#464646" stroke-width="2.2721" stroke-miterlimit="10" points="49.987,86 18.816,67.99 
				18.827,31.988 50.01,14 81.184,32.011 81.17,68.013 			"/>
			<polygon fill="#FFFFFF" stroke="#464646" stroke-width="2.2721" stroke-miterlimit="10" points="18.829,31.988 18.829,31.998 
				49.989,49.999 81.171,32.012 81.171,32.002 50.012,14 			"/>
			<polygon fill="#FFFFFF" stroke="#464646" stroke-width="2.2721" stroke-miterlimit="10" points="18.823,31.999 18.816,32.004 
				19.422,67.984 50.896,85.459 50.903,85.453 50.298,49.474 			"/>
		</g>
		<g>
			<polygon fill="#CFCFCF" stroke="#FFFFFF" stroke-width="2.2721" stroke-miterlimit="10" points="49.993,69.684 32.949,59.837 
				32.955,40.152 50.006,30.315 67.052,40.163 67.044,59.85 			"/>
			<polygon fill="#CFCFCF" stroke="#FFFFFF" stroke-width="2.2721" stroke-miterlimit="10" points="32.955,40.152 32.955,40.156 
				49.993,49.999 67.044,40.164 67.044,40.159 50.006,30.315 			"/>
			<polygon fill="#CFCFCF" stroke="#FFFFFF" stroke-width="2.2721" stroke-miterlimit="10" points="32.953,40.157 32.949,40.16 
				33.281,59.835 50.49,69.388 50.494,69.387 50.163,49.712 			"/>
		</g>
	</g>
	<text transform="matrix(1 0 0 1 41.7222 -2.0195)" fill="#231F20" font-family="'HelveticaNeue-MediumCond'" font-size="14">iOS</text>
</g>
<g id="nyt_x5F_exporter_x5F_info" display="none">
</g>
</svg>
