<?xml version="1.0" encoding="utf-8"?>
<!-- Generator: Adobe Illustrator 16.0.4, SVG Export Plug-In . SVG Version: 6.00 Build 0)  -->
<!DOCTYPE svg PUBLIC "-//W3C//DTD SVG 1.1//EN" "http://www.w3.org/Graphics/SVG/1.1/DTD/svg11.dtd">
<svg version="1.1" xmlns="http://www.w3.org/2000/svg" xmlns:xlink="http://www.w3.org/1999/xlink" x="0px" y="0px" width="100px"
	 height="100px" viewBox="0 0 100 100" enable-background="new 0 0 100 100" xml:space="preserve">
<g id="Layer_1">
	<g>
		<g>
			<polygon fill="#FFFFFF" stroke="#464646" stroke-width="2.2721" stroke-miterlimit="10" points="49.988,86 18.816,67.99 
				18.828,31.988 50.01,14 81.184,32.011 81.17,68.013 			"/>
			<polygon fill="#FFFFFF" stroke="#464646" stroke-width="2.2721" stroke-miterlimit="10" points="18.83,31.988 18.83,31.998 
				49.99,49.999 81.172,32.012 81.172,32.002 50.012,14 			"/>
			<polygon fill="#FFFFFF" stroke="#464646" stroke-width="2.2721" stroke-miterlimit="10" points="18.824,31.999 18.816,32.004 
				19.422,67.984 50.896,85.459 50.904,85.453 50.299,49.474 			"/>
		</g>
		<g>
			<polygon fill="#FFD44F" stroke="#FFFFFF" stroke-width="2.2721" stroke-miterlimit="10" points="49.994,69.684 32.949,59.837 
				32.955,40.152 50.006,30.315 67.053,40.163 67.045,59.85 			"/>
			<polygon fill="#FFD44F" stroke="#FFFFFF" stroke-width="2.2721" stroke-miterlimit="10" points="32.955,40.152 32.955,40.156 
				49.994,49.999 67.045,40.164 67.045,40.159 50.006,30.315 			"/>
			<polygon fill="#FFD44F" stroke="#FFFFFF" stroke-width="2.2721" stroke-miterlimit="10" points="32.953,40.157 32.949,40.16 
				33.281,59.835 50.49,69.388 50.494,69.387 50.164,49.712 			"/>
		</g>
	</g>
</g>
<g id="nyt_x5F_exporter_x5F_info" display="none">
	<text transform="matrix(1 0 0 1 -189 0)" display="inline"><tspan x="0" y="0" font-family="'MyriadPro-Regular'" font-size="12">&lt;nyt_prefs&gt;</tspan><tspan x="0" y="14.4" font-family="'MyriadPro-Regular'" font-size="12">  &lt;nyt_prefix&gt;&lt;/nyt_prefix&gt;</tspan><tspan x="0" y="28.8" font-family="'MyriadPro-Regular'" font-size="12">  &lt;nyt_suffix&gt;&lt;/nyt_suffix&gt;</tspan><tspan x="0" y="43.2" font-family="'MyriadPro-Regular'" font-size="12">  &lt;nyt_base_path&gt;~/Desktop/wip/Architecture%20Icons%20-%20Update%20all%20customer-facing%20files%20/AWS-Simple-Icons%202/SDKs/EPS&lt;/nyt_base_path&gt;</tspan><tspan x="0" y="57.6" font-family="'MyriadPro-Regular'" font-size="12">  &lt;nyt_scaling&gt;100&lt;/nyt_scaling&gt;</tspan><tspan x="0" y="72" font-family="'MyriadPro-Regular'" font-size="12">  &lt;nyt_transparency&gt;true&lt;/nyt_transparency&gt;</tspan><tspan x="0" y="86.4" font-family="'MyriadPro-Regular'" font-size="12">  &lt;nyt_format&gt;EPS&lt;/nyt_format&gt;</tspan><tspan x="0" y="100.8" font-family="'MyriadPro-Regular'" font-size="12">  &lt;nyt_export_code&gt;artboards&lt;/nyt_export_code&gt;</tspan><tspan x="0" y="115.2" font-family="'MyriadPro-Regular'" font-size="12">&lt;/nyt_prefs&gt;</tspan></text>
</g>
</svg>
