<?xml version="1.0" encoding="utf-8"?>
<!-- Generator: Adobe Illustrator 16.0.4, SVG Export Plug-In . SVG Version: 6.00 Build 0)  -->
<!DOCTYPE svg PUBLIC "-//W3C//DTD SVG 1.1//EN" "http://www.w3.org/Graphics/SVG/1.1/DTD/svg11.dtd">
<svg version="1.1" xmlns="http://www.w3.org/2000/svg" xmlns:xlink="http://www.w3.org/1999/xlink" x="0px" y="0px" width="100px"
	 height="100px" viewBox="0 0 100 100" enable-background="new 0 0 100 100" xml:space="preserve">
<g id="Layer_1">
	<g>
		<path fill="#4F4F4F" d="M73.07,54.663V42.309l-3.604,2.917c-0.504-1.885-1.566-4.459-3.074-6.686l2.533-2.105v-2.917l-8.146,0.266
			c-2.248-1.5-4.463-2.455-7.689-2.955l-8.17,0.098c-1.898,0.52-4.535,1.504-6.6,2.855l-7.709,0.146v2.917l2.406,1.533
			c-1.562,2.264-2.635,4.963-3.15,6.848l-2.986-2.917v12.354h3.072c0.537,2.455,1.568,4.924,2.988,7.023l-2.533-0.407v2.917
			l5.502,5.465l2.24-2.523c2.107,1.408,4.871,2.424,6.77,2.959v3.254h8.17v-3.156c3.227-0.512,5.566-1.615,7.854-3.174l2.703,2.629
			l5.529-5.467v-2.917l-2.689,0.255c1.367-2.061,2.371-5.725,2.895-6.855l3.738-0.029L73.07,54.663z M49.553,64.315
			c-7.465-0.057-13.73-6.232-13.904-13.596c-0.184-7.834,6.668-14.156,14.016-14.17c7.891-0.02,14.383,6.354,14.287,14.195
			C63.855,58.308,57.473,64.372,49.553,64.315"/>
		<path fill="#ACACAC" d="M73.07,51.746v-9.437h-3.604c-0.504-1.885-1.566-4.459-3.074-6.686l2.533-2.105l-5.506-5.27l-2.641,2.619
			c-2.248-1.5-4.463-2.455-7.689-2.955v-4.1h-8.17v4.197c-1.898,0.52-4.535,1.504-6.6,2.855l-2.277-2.41l-5.432,5.473l2.406,1.533
			c-1.562,2.264-2.635,4.963-3.15,6.848h-2.986v9.437h3.072c0.537,2.455,1.568,4.924,2.988,7.023l-2.533,2.51l5.502,5.465
			l2.24-2.523c2.107,1.408,4.871,2.424,6.77,2.959v3.254h8.17v-3.156c3.227-0.512,5.566-1.615,7.854-3.174l2.703,2.629l5.529-5.467
			l-2.689-2.662c1.367-2.061,2.371-5.725,2.895-6.855l3.738-0.029L73.07,51.746z M49.553,61.398
			c-7.465-0.057-13.73-6.232-13.904-13.595c-0.184-7.834,6.668-14.156,14.016-14.17c7.891-0.02,14.383,6.354,14.287,14.195
			C63.855,55.391,57.473,61.455,49.553,61.398"/>
	</g>
</g>
<g id="nyt_x5F_exporter_x5F_info" display="none">
	<text transform="matrix(1 0 0 1 -136 0)" display="inline"><tspan x="0" y="0" font-family="'MyriadPro-Regular'" font-size="12">&lt;nyt_prefs&gt;</tspan><tspan x="0" y="14.4" font-family="'MyriadPro-Regular'" font-size="12">  &lt;nyt_prefix&gt;&lt;/nyt_prefix&gt;</tspan><tspan x="0" y="28.8" font-family="'MyriadPro-Regular'" font-size="12">  &lt;nyt_suffix&gt;&lt;/nyt_suffix&gt;</tspan><tspan x="0" y="43.2" font-family="'MyriadPro-Regular'" font-size="12">  &lt;nyt_base_path&gt;~/Desktop/wip/Architecture%20Icons%20-%20Update%20all%20customer-facing%20files%20/AWS-Simple-Icons%202/On-Demand%20Workforce/EPS&lt;/nyt_base_path&gt;</tspan><tspan x="0" y="57.6" font-family="'MyriadPro-Regular'" font-size="12">  &lt;nyt_scaling&gt;100&lt;/nyt_scaling&gt;</tspan><tspan x="0" y="72" font-family="'MyriadPro-Regular'" font-size="12">  &lt;nyt_transparency&gt;true&lt;/nyt_transparency&gt;</tspan><tspan x="0" y="86.4" font-family="'MyriadPro-Regular'" font-size="12">  &lt;nyt_format&gt;EPS&lt;/nyt_format&gt;</tspan><tspan x="0" y="100.8" font-family="'MyriadPro-Regular'" font-size="12">  &lt;nyt_export_code&gt;artboards&lt;/nyt_export_code&gt;</tspan><tspan x="0" y="115.2" font-family="'MyriadPro-Regular'" font-size="12">&lt;/nyt_prefs&gt;</tspan></text>
</g>
</svg>
