<?xml version="1.0" encoding="utf-8"?>
<!-- Generator: Adobe Illustrator 16.0.4, SVG Export Plug-In . SVG Version: 6.00 Build 0)  -->
<!DOCTYPE svg PUBLIC "-//W3C//DTD SVG 1.1//EN" "http://www.w3.org/Graphics/SVG/1.1/DTD/svg11.dtd">
<svg version="1.1" xmlns="http://www.w3.org/2000/svg" xmlns:xlink="http://www.w3.org/1999/xlink" x="0px" y="0px" width="100px"
	 height="100px" viewBox="0 0 100 100" enable-background="new 0 0 100 100" xml:space="preserve">
<g id="Layer_1">
	<g>
		<g>
			<path fill="#E05243" d="M51.275,21.387c15.244,0,27.6,12.26,27.6,27.373c0,15.125-12.355,27.379-27.6,27.379
				c-15.242,0-27.6-12.254-27.6-27.379C23.676,33.646,36.033,21.387,51.275,21.387z"/>
		</g>
		<g>
			<defs>
				<path id="SVGID_19_" d="M78.875,48.76v2.477c0,15.117-12.355,27.377-27.6,27.377c-15.242,0-27.6-12.26-27.6-27.377V48.76
					c0,15.125,12.357,27.379,27.6,27.379C66.52,76.139,78.875,63.885,78.875,48.76z"/>
			</defs>
			<use xlink:href="#SVGID_19_"  overflow="visible" fill="#8C3123"/>
			<clipPath id="SVGID_2_">
				<use xlink:href="#SVGID_19_"  overflow="visible"/>
			</clipPath>
			<g clip-path="url(#SVGID_2_)" enable-background="new    ">
				<path fill="#8C3123" d="M78.875,48.76v2.477c0,1.389-0.104,2.752-0.305,4.082v-2.477C78.771,51.514,78.875,50.154,78.875,48.76"
					/>
				<path fill="#8C3123" d="M78.57,52.842v2.477c-0.234,1.561-0.601,3.076-1.093,4.541v-2.48
					C77.97,55.922,78.336,54.404,78.57,52.842"/>
				<path fill="#8C3123" d="M77.478,57.379v2.48c-0.569,1.713-1.315,3.361-2.204,4.908v-2.471
					C76.162,60.748,76.908,59.102,77.478,57.379"/>
				<path fill="#8C3123" d="M75.273,62.297v2.471c-4.749,8.266-13.717,13.846-23.998,13.846c-15.242,0-27.6-12.26-27.6-27.377V48.76
					c0,15.125,12.357,27.379,27.6,27.379C61.557,76.139,70.524,70.562,75.273,62.297"/>
			</g>
		</g>
		<g>
			<path fill="#FFFFFF" d="M61.953,53.281h2.37v1.963h-2.37V53.281z M56.229,26.043h2.965l-0.001,2.943h-1.976v-0.979h-0.988V26.043
				z M57.213,42.584l0.002-3.881h1.977l-0.002,3.883L57.213,42.584z M59.188,45.504v3.885l-1.976-0.002V45.5L59.188,45.504z
				 M57.215,35.783l0.002-3.885l1.976,0.002l-0.001,3.883H57.215z M49.306,26.043h3.957v1.965h-3.957V26.043z M43.373,26.043h2.963
				v1.965H45.35v0.979h-1.977V26.043z M43.373,31.91h1.977v3.9h-1.977V31.91z M43.373,38.734h1.977v3.9h-1.977V38.734z
				 M43.373,45.559h1.977v3.9h-1.977V45.559z M38.237,53.361h2.371v1.963h-2.371V53.361z M36.459,55.148v0.176h-0.178l-1.083,1.096
				l-3.128-3.059h4.389v1.537l0.124,0.123L36.459,55.148z M40.953,62.045l-3.289-3.215l1.385-1.4l3.29,3.213L40.953,62.045z
				 M42.385,53.361h0.988v-0.982h1.977v2.945h-2.965V53.361z M46.709,67.668l-3.289-3.215l1.385-1.4l3.289,3.215L46.709,67.668z
				 M51.277,72.131l-2.103-2.053l1.386-1.398l0.715,0.695l0.712-0.699l1.388,1.396L51.277,72.131z M55.845,67.652l-1.39-1.398
				l3.293-3.23l1.389,1.396L55.845,67.652z M60.175,55.244h-2.963v-2.943h1.976v0.98h0.987V55.244z M61.605,61.994L60.217,60.6
				l3.293-3.232l1.389,1.398L61.605,61.994z M67.367,56.34l-1.09-1.096h-0.174v-0.176l-0.125-0.123l0.125-0.125v-1.539h4.379
				L67.367,56.34z"/>
		</g>
	</g>
</g>
<g id="nyt_x5F_exporter_x5F_info" display="none">
</g>
</svg>
