<?xml version="1.0" encoding="utf-8"?>
<!-- Generator: Adobe Illustrator 16.0.4, SVG Export Plug-In . SVG Version: 6.00 Build 0)  -->
<!DOCTYPE svg PUBLIC "-//W3C//DTD SVG 1.1//EN" "http://www.w3.org/Graphics/SVG/1.1/DTD/svg11.dtd">
<svg version="1.1" xmlns="http://www.w3.org/2000/svg" xmlns:xlink="http://www.w3.org/1999/xlink" x="0px" y="0px" width="100px"
	 height="100px" viewBox="0 0 100 100" enable-background="new 0 0 100 100" xml:space="preserve">
<g id="Layer_1">
	<g>
		<path fill="none" d="M56.578,44.273c4.031-0.256,7.694-0.74,10.757-1.396C63.993,43.567,60.169,44.029,56.578,44.273z"/>
		<path fill="none" d="M67.844,39.875c-3.025,0.675-6.747,1.181-10.89,1.454C61.604,41.041,65.156,40.508,67.844,39.875z"/>
		<path fill="none" d="M49.858,41.56c-6.534,0-12.502-0.563-17.073-1.491C37.117,41.002,42.918,41.6,49.858,41.56z"/>
		<path fill="none" d="M49.982,44.48c-15.55-0.189-25.264-3.025-26.534-6.004l0.014,0.063C24.914,41.887,36.231,44.48,49.982,44.48z
			"/>
		<g>
			<path fill="#146EB4" d="M23.426,38.431c0.014,0.036,0.021,0.073,0.036,0.109l-0.014-0.063
				C23.441,38.461,23.432,38.445,23.426,38.431z"/>
		</g>
		<g>
			<path fill="#146EB4" d="M23.396,38.342c-0.022-0.066-0.044-0.135-0.059-0.201C23.352,38.208,23.375,38.275,23.396,38.342z"/>
		</g>
		<g>
			<path fill="#146EB4" d="M76.662,37.811l-0.007,0.031l0.003,0.007C76.658,37.836,76.662,37.823,76.662,37.811z"/>
		</g>
		<g>
			<g>
				<g>
					<polygon fill-rule="evenodd" clip-rule="evenodd" fill="#E15343" points="64,24.13 64,24.276 36,24.276 36,24.13 35.521,24.13 
						35.521,28.854 64.479,28.854 64.479,24.13 					"/>
				</g>
			</g>
		</g>
		<polygon fill="#E15343" points="61,17.498 39,17.498 36,20.498 64,20.498 		"/>
		<rect x="36" y="20.498" fill="#8C3323" width="28" height="1.851"/>
		<rect x="63.79" y="24.13" fill="#8C3323" width="0.688" height="4.762"/>
		<rect x="35.521" y="24.13" fill="#8C3323" width="0.688" height="4.762"/>
		<g>
			<g>
				<path fill="#8C3323" d="M23.664,41.354c-0.104-0.228-0.165-0.46-0.165-0.692L23.664,41.354z"/>
			</g>
			<g>
				<path fill="#8C3323" d="M76.336,41.354l0.165-0.692C76.501,40.894,76.443,41.124,76.336,41.354z"/>
			</g>
			<g>
				<polygon fill="#8C3323" points="76.501,38.405 76.501,40.661 76.336,41.354 76.336,39.1 				"/>
			</g>
			<g>
				<polygon fill="#8C3323" points="23.664,39.1 23.664,41.354 23.499,40.661 23.499,38.405 				"/>
			</g>
			<g>
				<defs>
					<path id="SVGID_11_" d="M76.501,34.104v2.254c0,3.449-11.866,6.228-26.506,6.228c-14.632,0-26.496-2.778-26.496-6.228v-2.254
						c0,3.451,11.864,6.229,26.496,6.229C64.635,40.333,76.501,37.555,76.501,34.104z"/>
				</defs>
				<use xlink:href="#SVGID_11_"  overflow="visible" fill="#8C3323"/>
				<clipPath id="SVGID_2_">
					<use xlink:href="#SVGID_11_"  overflow="visible"/>
				</clipPath>
				<g clip-path="url(#SVGID_2_)" enable-background="new    ">
					<path fill="#8C3323" d="M76.501,34.104v2.254c0,0.082-0.01,0.162-0.023,0.243V34.35C76.491,34.269,76.501,34.185,76.501,34.104
						"/>
					<path fill="#8C3323" d="M76.478,34.35v2.251c-0.013,0.097-0.039,0.191-0.073,0.286v-2.255
						C76.438,34.539,76.465,34.444,76.478,34.35"/>
					<path fill="#8C3323" d="M76.404,34.632v2.255c-0.044,0.129-0.108,0.258-0.188,0.387v-2.252
						C76.296,34.895,76.36,34.764,76.404,34.632"/>
					<path fill="#8C3323" d="M76.217,35.021v2.252c-1.883,3.015-12.902,5.312-26.222,5.312c-14.632,0-26.496-2.778-26.496-6.228
						v-2.254c0,3.451,11.864,6.229,26.496,6.229C63.314,40.333,74.334,38.035,76.217,35.021"/>
				</g>
			</g>
			<g>
				<path fill="#E15343" d="M49.995,27.881c14.64,0,26.506,2.787,26.506,6.223c0,3.451-11.866,6.229-26.506,6.229
					c-14.632,0-26.496-2.778-26.496-6.229C23.499,30.668,35.363,27.881,49.995,27.881z"/>
			</g>
			<g>
				<polygon fill="#8C3323" points="76.336,39.1 76.336,41.354 67.669,78.351 67.669,76.102 				"/>
			</g>
			<g>
				<polygon fill="#8C3323" points="32.333,76.102 32.333,78.351 23.664,41.354 23.664,39.1 				"/>
			</g>
			<g>
				<defs>
					<path id="SVGID_13_" d="M67.669,76.102v2.249c0,2.3-7.91,4.151-17.674,4.151c-9.754,0-17.662-1.852-17.662-4.151v-2.249
						c0,2.298,7.908,4.146,17.662,4.146C59.759,80.247,67.669,78.399,67.669,76.102z"/>
				</defs>
				<use xlink:href="#SVGID_13_"  overflow="visible" fill="#8C3323"/>
				<clipPath id="SVGID_4_">
					<use xlink:href="#SVGID_13_"  overflow="visible"/>
				</clipPath>
				<g clip-path="url(#SVGID_4_)" enable-background="new    ">
					<path fill="#8C3323" d="M67.669,76.102v2.249c0,0.058-0.006,0.112-0.017,0.167v-2.256
						C67.663,76.209,67.669,76.154,67.669,76.102"/>
					<path fill="#8C3323" d="M67.652,76.262v2.256c-0.006,0.062-0.026,0.125-0.046,0.188v-2.253
						C67.626,76.387,67.646,76.326,67.652,76.262"/>
					<path fill="#8C3323" d="M67.606,76.452v2.253c-0.032,0.087-0.075,0.173-0.126,0.259v-2.256
						C67.531,76.625,67.574,76.539,67.606,76.452"/>
					<path fill="#8C3323" d="M67.48,76.708v2.256c-1.255,2.007-8.601,3.538-17.485,3.538c-9.754,0-17.662-1.852-17.662-4.151v-2.249
						c0,2.298,7.908,4.146,17.662,4.146C58.88,80.247,66.226,78.716,67.48,76.708"/>
				</g>
			</g>
			<g>
				<path fill="#E15343" d="M49.995,44.628c13.646,0,24.878-2.412,26.341-5.528l-8.667,37.002c0,2.298-7.91,4.146-17.674,4.146
					c-9.754,0-17.662-1.848-17.662-4.146L23.664,39.1C25.128,42.216,36.358,44.628,49.995,44.628z"/>
			</g>
		</g>
	</g>
</g>
<g id="nyt_x5F_exporter_x5F_info" display="none">
</g>
</svg>
