<?xml version="1.0" encoding="utf-8"?>
<!-- Generator: Adobe Illustrator 16.0.4, SVG Export Plug-In . SVG Version: 6.00 Build 0)  -->
<!DOCTYPE svg PUBLIC "-//W3C//DTD SVG 1.1//EN" "http://www.w3.org/Graphics/SVG/1.1/DTD/svg11.dtd">
<svg version="1.1" xmlns="http://www.w3.org/2000/svg" xmlns:xlink="http://www.w3.org/1999/xlink" x="0px" y="0px" width="100px"
	 height="100px" viewBox="0 0 100 100" enable-background="new 0 0 100 100" xml:space="preserve">
<g id="Layer_1">
	<g>
		<rect x="26.605" y="29.141" fill="#E15343" width="46.791" height="51.371"/>
		<polygon fill="#E15343" points="65.96,16.998 34.07,16.998 27.21,23.416 27.705,23.416 72.327,23.416 		"/>
		<g>
			<rect x="26.605" y="80.512" fill="#8C3323" width="46.791" height="2.49"/>
		</g>
		<g>
			<rect x="27.21" y="23.416" fill="#8C3323" width="45.117" height="2.49"/>
		</g>
	</g>
	<g>
		<path fill="#8C3323" d="M46.193,50.746c1.099-0.813,2.423-1.254,3.807-1.254c1.766,0,3.404,0.705,4.608,1.958l3.525-1.69v-2
			c0,0-5.349-2.085-8.134-2.085c-2.256,0-6.979,0.786-6.979,0.786v2L46.193,50.746z"/>
		<path fill="#8C3323" d="M56.356,55.048c0.04,0.289,0.061,0.576,0.061,0.861c0,3.109-2.557,7.482-5.532,8.055v2
			c5.2-0.449,9.475-5.054,9.475-10.37c0-0.854-0.309-3.43-0.507-4.223L56.356,55.048z"/>
		<path fill="#8C3323" d="M47.248,61.704v-2c0,0-0.831,0.297-1.326-0.032c-1.083-0.721-2.339-2.557-2.339-3.763
			c0-0.649,0.098-1.286,0.291-1.902v-2l-3.166-2.281c-1.036,2.899-0.958,4.417-0.958,5.884c0,4.536,3.055,8.608,7.157,9.917
			L47.248,61.704z"/>
	</g>
	<path fill="#FFFFFF" d="M66.1,47.152l-0.865-1.803L54.263,50.61c-0.987-1.329-2.563-2.193-4.346-2.193
		c-1.461,0-2.784,0.581-3.759,1.521l-9.377-6.758l-1.17,1.623L45,51.57c-0.317,0.689-0.5,1.455-0.5,2.264
		c0,2.401,1.563,4.434,3.727,5.145l-0.997,11.196l1.992,0.178l0.99-11.116c2.854-0.154,5.122-2.51,5.122-5.402
		c0-0.494-0.072-0.971-0.196-1.426L66.1,47.152z"/>
	<g>
		<path fill="#FFFFFF" d="M46.193,48.746c1.099-0.813,2.423-1.254,3.807-1.254c1.766,0,3.404,0.705,4.608,1.958l3.525-1.69
			c-1.854-2.476-4.803-4.085-8.134-4.085c-2.705,0-5.156,1.063-6.979,2.786L46.193,48.746z"/>
		<path fill="#FFFFFF" d="M56.356,53.048c0.04,0.289,0.061,0.576,0.061,0.861c0,3.109-2.222,5.723-5.197,6.295l-0.335,3.76
			c5.2-0.449,9.282-4.806,9.282-10.122c0-0.854-0.116-1.678-0.314-2.471L56.356,53.048z"/>
		<path fill="#FFFFFF" d="M47.248,59.704c-2.222-1.051-3.665-3.289-3.665-5.795c0-0.649,0.098-1.286,0.291-1.902l-3.166-2.281
			c-0.559,1.259-0.875,2.649-0.875,4.116c0,4.536,2.972,8.376,7.074,9.685L47.248,59.704z"/>
	</g>
</g>
<g id="nyt_x5F_exporter_x5F_info" display="none">
</g>
</svg>
