<?xml version="1.0" encoding="utf-8"?>
<!-- Generator: Adobe Illustrator 16.0.4, SVG Export Plug-In . SVG Version: 6.00 Build 0)  -->
<!DOCTYPE svg PUBLIC "-//W3C//DTD SVG 1.1//EN" "http://www.w3.org/Graphics/SVG/1.1/DTD/svg11.dtd">
<svg version="1.1" xmlns="http://www.w3.org/2000/svg" xmlns:xlink="http://www.w3.org/1999/xlink" x="0px" y="0px" width="100px"
	 height="100px" viewBox="0 0 100 100" enable-background="new 0 0 100 100" xml:space="preserve">
<g id="Layer_1">
	<g>
		<g enable-background="new    ">
			<g enable-background="new    ">
				<defs>
					<path id="SVGID_23_" enable-background="new    " d="M77.023,27.352v2.615c0,3.207-12.508,5.795-27.953,5.795
						c-15.426,0-27.951-2.588-27.951-5.795v-2.615c0,3.207,12.525,5.795,27.951,5.795C64.516,33.146,77.023,30.559,77.023,27.352z"
						/>
				</defs>
				<use xlink:href="#SVGID_23_"  overflow="visible" fill="#8C3323"/>
				<clipPath id="SVGID_2_">
					<use xlink:href="#SVGID_23_"  overflow="visible"/>
				</clipPath>
				<g clip-path="url(#SVGID_2_)" enable-background="new    ">
					<path fill="#8C3323" d="M77.023,27.352v2.615c0,0.072-0.008,0.145-0.02,0.217V27.57C77.016,27.496,77.023,27.424,77.023,27.352
						"/>
					<path fill="#8C3323" d="M77.004,27.57v2.613c-0.014,0.084-0.037,0.166-0.068,0.248v-2.613
						C76.967,27.734,76.99,27.652,77.004,27.57"/>
					<path fill="#8C3323" d="M76.936,27.818v2.613c-0.047,0.119-0.109,0.238-0.189,0.355v-2.615
						C76.826,28.055,76.889,27.938,76.936,27.818"/>
					<path fill="#8C3323" d="M76.746,28.172v2.615c-1.92,2.816-13.572,4.975-27.676,4.975c-15.426,0-27.951-2.588-27.951-5.795
						v-2.615c0,3.207,12.525,5.795,27.951,5.795C63.174,33.146,74.826,30.988,76.746,28.172"/>
				</g>
			</g>
			<g>
				<path fill="#E15343" d="M49.07,21.559c15.445,0,27.953,2.586,27.953,5.793s-12.508,5.795-27.953,5.795
					c-15.426,0-27.951-2.588-27.951-5.795S33.645,21.559,49.07,21.559z"/>
			</g>
			<g>
				<polygon fill="#8C3323" points="59.695,45.316 59.695,47.93 44.623,47.93 44.441,45.16 				"/>
			</g>
			<g>
				<polygon fill="#8C3323" points="45.545,45.305 44.623,47.93 34.371,40.99 33.92,37.93 				"/>
			</g>
			<g>
				<polygon fill="#8C3323" points="25.586,45.492 24.988,48.348 21.279,34.428 21.279,31.812 				"/>
			</g>
			<g>
				<rect x="24.988" y="45.732" fill="#8C3323" width="9.383" height="2.615"/>
			</g>
			<g>
				<polygon fill="#8C3323" points="76.863,31.812 76.863,34.428 72.867,49.48 72.523,46.492 				"/>
			</g>
			<g>
				<path fill="#E15343" d="M76.863,31.812l-3.996,15.053l-13.172-8.908v7.359H44.623l-10.252-6.941v7.357h-9.383l-3.709-13.92
					c1.516,2.912,13.381,5.16,27.791,5.16C63.482,36.973,75.348,34.725,76.863,31.812z"/>
			</g>
			<g>
				<polygon fill="#8C3323" points="72.867,46.865 72.867,49.48 59.695,40.572 59.695,37.957 				"/>
			</g>
			<g>
				<polygon fill="#8C3323" points="58.146,55.611 58.146,58.227 50.666,52.729 50.666,50.113 				"/>
			</g>
			<g>
				<polygon fill="#8C3323" points="63.84,60.139 63.84,62.754 51.426,62.699 51.426,60.086 				"/>
			</g>
			<g>
				<polygon fill="#8C3323" points="51.361,55.68 51.361,58.293 44.867,62.904 44.867,60.289 				"/>
			</g>
			<g>
				<rect x="23.699" y="60.557" fill="#8C3323" width="13.072" height="2.615"/>
			</g>
			<g>
				<polygon fill="#8C3323" points="78.881,55.221 78.881,57.836 63.84,67.902 63.84,65.287 				"/>
			</g>
			<g>
				<polygon fill="#E15343" points="63.84,45.033 78.881,55.221 63.84,65.287 63.84,60.139 51.426,60.086 58.146,55.611 
					50.666,50.113 63.84,50.168 				"/>
			</g>
			<g>
				<polygon fill="#E15343" points="36.771,45.451 43.35,49.898 51.361,55.68 44.992,60.207 36.771,65.705 36.771,60.557 
					23.699,60.557 23.699,50.586 36.771,50.586 				"/>
			</g>
			<g>
				<polygon fill="#8C3323" points="44.992,60.207 44.992,62.822 36.771,68.32 36.771,65.705 				"/>
			</g>
			<g>
				<polygon fill="#8C3323" points="68.559,67.906 68.559,70.521 67.639,74.352 67.482,72.076 				"/>
			</g>
			<g>
				<polygon fill="#8C3323" points="31.045,72.18 30.436,74.574 28.695,68.023 28.695,65.408 				"/>
			</g>
			<g enable-background="new    ">
				<defs>
					<path id="SVGID_25_" enable-background="new    " d="M67.639,71.736v2.615c0,2.129-8.266,4.09-18.568,4.09
						c-10.299,0-18.635-1.725-18.635-3.867v-2.615c0,2.143,8.336,3.867,18.635,3.867C59.373,75.826,67.639,73.867,67.639,71.736z"/>
				</defs>
				<use xlink:href="#SVGID_25_"  overflow="visible" fill="#8C3323"/>
				<clipPath id="SVGID_4_">
					<use xlink:href="#SVGID_25_"  overflow="visible"/>
				</clipPath>
				<g clip-path="url(#SVGID_4_)" enable-background="new    ">
					<path fill="#8C3323" d="M67.639,71.736v2.615c0,0.037-0.004,0.078-0.012,0.115v-2.615
						C67.635,71.814,67.639,71.775,67.639,71.736"/>
					<path fill="#8C3323" d="M67.627,71.852v2.615c-0.008,0.045-0.021,0.09-0.037,0.133v-2.613
						C67.605,71.941,67.619,71.898,67.627,71.852"/>
					<path fill="#8C3323" d="M67.59,71.986V74.6c-0.027,0.066-0.066,0.133-0.111,0.199v-2.615
						C67.523,72.117,67.562,72.053,67.59,71.986"/>
					<path fill="#8C3323" d="M67.479,72.184v2.615c-1.404,1.98-8.826,3.643-18.408,3.643c-10.299,0-18.635-1.725-18.635-3.867
						l-0.141-3.645c0,2.143,8.477,4.896,18.775,4.896C58.652,75.826,66.074,74.166,67.479,72.184"/>
				</g>
			</g>
			<g>
				<path fill="#E15343" d="M62.58,64.52v7.332l5.979-3.945l-0.92,3.83c0,2.131-8.266,4.09-18.568,4.09
					c-10.299,0-18.635-1.725-18.635-3.867l-1.74-6.551h5.676v7.346l11.574-7.762L62.58,64.52z"/>
			</g>
		</g>
	</g>
</g>
<g id="nyt_x5F_exporter_x5F_info" display="none">
</g>
</svg>
