<?xml version="1.0" encoding="utf-8"?>
<!-- Generator: Adobe Illustrator 16.0.4, SVG Export Plug-In . SVG Version: 6.00 Build 0)  -->
<!DOCTYPE svg PUBLIC "-//W3C//DTD SVG 1.1//EN" "http://www.w3.org/Graphics/SVG/1.1/DTD/svg11.dtd">
<svg version="1.1" xmlns="http://www.w3.org/2000/svg" xmlns:xlink="http://www.w3.org/1999/xlink" x="0px" y="0px" width="100px"
	 height="100px" viewBox="0 0 100 100" enable-background="new 0 0 100 100" xml:space="preserve">
<g id="Layer_1">
	<g>
		<polygon fill="#8C3123" points="50.329,67.354 75.312,73.399 75.312,26.492 50.329,32.541 		"/>
		<polygon fill="#E05243" points="75.313,26.492 80.114,28.892 80.114,71.013 75.313,73.412 		"/>
		<polygon fill="#E05243" points="61.226,34.856 50.329,32.16 50.329,14 61.226,19.448 		"/>
		<polygon fill="#E05243" points="50.329,86 61.225,80.554 61.225,65.146 50.329,67.841 		"/>
		<polygon fill="#E05243" points="61.226,57.714 50.329,59.101 50.329,40.94 61.226,42.307 		"/>
		<polygon fill="#E05243" points="50.329,67.354 25.345,73.399 25.345,26.492 50.329,32.541 		"/>
		<polygon fill="#8C3123" points="25.345,26.492 20.546,28.892 20.546,71.013 25.345,73.412 		"/>
		<polygon fill="#8C3123" points="39.435,34.856 50.329,32.16 50.329,14 39.435,19.448 		"/>
		<polygon fill="#8C3123" points="50.329,86 39.434,80.554 39.434,65.146 50.329,67.841 		"/>
		<polygon fill="#8C3123" points="39.435,57.714 50.329,59.101 50.329,40.94 39.435,42.307 		"/>
		<polygon fill="#5E1F18" points="61.226,34.856 50.329,36.842 39.435,34.856 50.329,32.16 		"/>
		<polygon fill="#F2B0A9" points="61.226,65.145 50.329,63.146 39.435,65.145 50.329,67.858 		"/>
	</g>
</g>
<g id="nyt_x5F_exporter_x5F_info" display="none">
	<text display="inline"><tspan x="0" y="0" font-family="'MyriadPro-Regular'" font-size="12">&lt;nyt_prefs&gt;</tspan><tspan x="0" y="14.4" font-family="'MyriadPro-Regular'" font-size="12">  &lt;nyt_prefix&gt;&lt;/nyt_prefix&gt;</tspan><tspan x="0" y="28.8" font-family="'MyriadPro-Regular'" font-size="12">  &lt;nyt_suffix&gt;&lt;/nyt_suffix&gt;</tspan><tspan x="0" y="43.2" font-family="'MyriadPro-Regular'" font-size="12">  &lt;nyt_base_path&gt;~/Desktop/wip/Architecture%20Icons%20-%20Update%20all%20customer-facing%20files%20/AWS-Simple-Icons%202/Storage%20&amp;amp;%20Content%20Delivery/PNG%20Retina&lt;/nyt_base_path&gt;</tspan><tspan x="0" y="57.6" font-family="'MyriadPro-Regular'" font-size="12">  &lt;nyt_scaling&gt;200&lt;/nyt_scaling&gt;</tspan><tspan x="0" y="72" font-family="'MyriadPro-Regular'" font-size="12">  &lt;nyt_transparency&gt;true&lt;/nyt_transparency&gt;</tspan><tspan x="0" y="86.4" font-family="'MyriadPro-Regular'" font-size="12">  &lt;nyt_format&gt;PNG 24&lt;/nyt_format&gt;</tspan><tspan x="0" y="100.8" font-family="'MyriadPro-Regular'" font-size="12">  &lt;nyt_export_code&gt;artboards&lt;/nyt_export_code&gt;</tspan><tspan x="0" y="115.2" font-family="'MyriadPro-Regular'" font-size="12">&lt;/nyt_prefs&gt;</tspan></text>
</g>
</svg>
