<?xml version="1.0" encoding="utf-8"?>
<!-- Generator: Adobe Illustrator 16.0.4, SVG Export Plug-In . SVG Version: 6.00 Build 0)  -->
<!DOCTYPE svg PUBLIC "-//W3C//DTD SVG 1.1//EN" "http://www.w3.org/Graphics/SVG/1.1/DTD/svg11.dtd">
<svg version="1.1" xmlns="http://www.w3.org/2000/svg" xmlns:xlink="http://www.w3.org/1999/xlink" x="0px" y="0px" width="100px"
	 height="100px" viewBox="0 0 100 100" enable-background="new 0 0 100 100" xml:space="preserve">
<g id="Layer_1">
	<g>
		<g enable-background="new    ">
			<g>
				<path fill="#8C3323" d="M22.812,35.714c-0.107-0.234-0.17-0.475-0.17-0.715L22.812,35.714z"/>
			</g>
			<g>
				<path fill="#8C3323" d="M77.188,35.714l0.17-0.715C77.358,35.239,77.3,35.478,77.188,35.714z"/>
			</g>
			<g>
				<polygon fill="#8C3323" points="77.358,32.671 77.358,34.999 77.188,35.714 77.188,33.388 				"/>
			</g>
			<g>
				<polygon fill="#8C3323" points="22.812,33.388 22.812,35.714 22.642,34.999 22.642,32.671 				"/>
			</g>
			<g>
				<defs>
					<path id="SVGID_1_" d="M77.358,28.229v2.327c0,3.561-12.25,6.429-27.363,6.429c-15.105,0-27.354-2.868-27.354-6.429v-2.327
						c0,3.562,12.248,6.431,27.354,6.431C65.108,34.66,77.358,31.792,77.358,28.229z"/>
				</defs>
				<use xlink:href="#SVGID_1_"  overflow="visible" fill="#8C3323"/>
				<clipPath id="SVGID_2_">
					<use xlink:href="#SVGID_1_"  overflow="visible"/>
				</clipPath>
				<g clip-path="url(#SVGID_2_)" enable-background="new    ">
					<path fill="#8C3323" d="M77.358,28.229v2.327c0,0.084-0.01,0.167-0.023,0.251v-2.324
						C77.349,28.399,77.358,28.313,77.358,28.229"/>
					<path fill="#8C3323" d="M77.335,28.483v2.324c-0.014,0.1-0.041,0.197-0.076,0.295v-2.328
						C77.294,28.679,77.321,28.581,77.335,28.483"/>
					<path fill="#8C3323" d="M77.259,28.774v2.328c-0.045,0.133-0.111,0.267-0.193,0.399v-2.325
						C77.147,29.046,77.214,28.911,77.259,28.774"/>
					<path fill="#8C3323" d="M77.065,29.177v2.325c-1.943,3.112-13.32,5.483-27.07,5.483c-15.105,0-27.354-2.868-27.354-6.429
						v-2.327c0,3.562,12.248,6.431,27.354,6.431C63.745,34.66,75.122,32.288,77.065,29.177"/>
				</g>
			</g>
			<g>
				<path fill="#E15343" d="M49.995,21.806c15.113,0,27.363,2.877,27.363,6.424c0,3.562-12.25,6.431-27.363,6.431
					c-15.105,0-27.354-2.868-27.354-6.431C22.642,24.683,34.89,21.806,49.995,21.806z"/>
			</g>
			<g>
				<polygon fill="#8C3323" points="77.188,33.388 77.188,35.714 68.241,73.909 68.241,71.587 				"/>
			</g>
			<g>
				<polygon fill="#8C3323" points="31.761,71.587 31.761,73.909 22.812,35.714 22.812,33.388 				"/>
			</g>
			<g>
				<defs>
					<path id="SVGID_3_" d="M68.241,71.587v2.322c0,2.374-8.166,4.285-18.246,4.285c-10.07,0-18.234-1.911-18.234-4.285v-2.322
						c0,2.372,8.164,4.28,18.234,4.28C60.075,75.867,68.241,73.959,68.241,71.587z"/>
				</defs>
				<use xlink:href="#SVGID_3_"  overflow="visible" fill="#8C3323"/>
				<clipPath id="SVGID_4_">
					<use xlink:href="#SVGID_3_"  overflow="visible"/>
				</clipPath>
				<g clip-path="url(#SVGID_4_)" enable-background="new    ">
					<path fill="#8C3323" d="M68.241,71.587v2.322c0,0.06-0.006,0.115-0.018,0.172v-2.329
						C68.235,71.698,68.241,71.642,68.241,71.587"/>
					<path fill="#8C3323" d="M68.224,71.752v2.329c-0.006,0.063-0.027,0.129-0.047,0.193v-2.325
						C68.196,71.882,68.218,71.819,68.224,71.752"/>
					<path fill="#8C3323" d="M68.177,71.949v2.325c-0.033,0.09-0.078,0.179-0.131,0.268v-2.329
						C68.099,72.128,68.144,72.039,68.177,71.949"/>
					<path fill="#8C3323" d="M68.046,72.213v2.329c-1.295,2.072-8.879,3.652-18.051,3.652c-10.07,0-18.234-1.911-18.234-4.285
						v-2.322c0,2.372,8.164,4.28,18.234,4.28C59.167,75.867,66.751,74.286,68.046,72.213"/>
				</g>
			</g>
			<g>
				<path fill="#E15343" d="M49.995,39.095c14.088,0,25.684-2.49,27.193-5.707l-8.947,38.199c0,2.372-8.166,4.28-18.246,4.28
					c-10.07,0-18.234-1.908-18.234-4.28l-8.949-38.199C24.323,36.604,35.917,39.095,49.995,39.095z"/>
			</g>
		</g>
	</g>
	<g>
		<path fill="#146EB4" d="M77.42,32.668c0.014,0.036,0.021,0.073,0.036,0.109l-0.014-0.063
			C77.436,32.698,77.426,32.683,77.42,32.668z"/>
	</g>
	<g>
		<path fill="#146EB4" d="M77.391,32.579c-0.022-0.066-0.044-0.135-0.059-0.201C77.346,32.445,77.369,32.513,77.391,32.579z"/>
	</g>
</g>
<g id="nyt_x5F_exporter_x5F_info" display="none">
</g>
</svg>
