<?xml version="1.0" encoding="utf-8"?>
<!-- Generator: Adobe Illustrator 16.0.4, SVG Export Plug-In . SVG Version: 6.00 Build 0)  -->
<!DOCTYPE svg PUBLIC "-//W3C//DTD SVG 1.1//EN" "http://www.w3.org/Graphics/SVG/1.1/DTD/svg11.dtd">
<svg version="1.1" xmlns="http://www.w3.org/2000/svg" xmlns:xlink="http://www.w3.org/1999/xlink" x="0px" y="0px" width="100px"
	 height="100px" viewBox="0 0 100 100" enable-background="new 0 0 100 100" xml:space="preserve">
<g id="Layer_1">
	<g>
		<g enable-background="new    ">
			<g>
				<path fill="#E15343" d="M50.009,29.615c10.364,0,18.756,8.328,18.756,18.616s-8.392,18.634-18.756,18.634
					S31.235,58.52,31.235,48.231S39.645,29.615,50.009,29.615z"/>
			</g>
			<g enable-background="new    ">
				<defs>
					<path id="SVGID_9_" enable-background="new    " d="M68.765,48.231v3.521c0,10.286-8.392,18.633-18.756,18.633
						s-18.773-8.347-18.773-18.633v-3.521c0,10.288,8.409,18.634,18.773,18.634S68.765,58.52,68.765,48.231z"/>
				</defs>
				<use xlink:href="#SVGID_9_"  overflow="visible" fill="#8C3323"/>
				<clipPath id="SVGID_2_">
					<use xlink:href="#SVGID_9_"  overflow="visible"/>
				</clipPath>
				<g clip-path="url(#SVGID_2_)" enable-background="new    ">
					<path fill="#8C3323" d="M68.765,48.231v3.521c0,0.904-0.064,1.796-0.19,2.666v-3.521C68.7,50.026,68.765,49.137,68.765,48.231"
						/>
					<path fill="#8C3323" d="M68.574,50.897v3.521c-0.15,1.031-0.383,2.037-0.695,3.006v-3.521
						C68.191,52.935,68.424,51.931,68.574,50.897"/>
					<path fill="#8C3323" d="M67.879,53.903v3.521c-0.367,1.145-0.844,2.24-1.416,3.277V57.18
						C67.035,56.144,67.512,55.049,67.879,53.903"/>
					<path fill="#8C3323" d="M66.463,57.18v3.521c-3.185,5.77-9.355,9.684-16.454,9.684c-10.364,0-18.773-8.347-18.773-18.633
						v-3.521c0,10.288,8.409,18.634,18.773,18.634C57.107,66.865,63.278,62.951,66.463,57.18"/>
				</g>
			</g>
		</g>
	</g>
</g>
<g id="nyt_x5F_exporter_x5F_info" display="none">
</g>
</svg>
