<?xml version="1.0" encoding="utf-8"?>
<!-- Generator: Adobe Illustrator 16.0.4, SVG Export Plug-In . SVG Version: 6.00 Build 0)  -->
<!DOCTYPE svg PUBLIC "-//W3C//DTD SVG 1.1//EN" "http://www.w3.org/Graphics/SVG/1.1/DTD/svg11.dtd">
<svg version="1.1" xmlns="http://www.w3.org/2000/svg" xmlns:xlink="http://www.w3.org/1999/xlink" x="0px" y="0px" width="100px"
	 height="100px" viewBox="0 0 100 100" enable-background="new 0 0 100 100" xml:space="preserve">
<g id="Layer_1">
	<g>
		<g enable-background="new    ">
			<g>
				<rect x="37.845" y="33.88" fill="#9D5125" width="4.498" height="2.545"/>
			</g>
			<g>
				<rect x="57.474" y="33.88" fill="#9D5125" width="4.494" height="2.545"/>
			</g>
			<g>
				<polygon fill="#9D5125" points="57.474,42.032 57.474,44.577 51.388,50.853 51.388,48.306 				"/>
			</g>
			<g>
				<polygon fill="#9D5125" points="48.69,48.306 48.69,50.853 42.343,44.368 42.343,41.821 				"/>
			</g>
			<g>
				<rect x="68.888" y="54.202" fill="#9D5125" width="10.422" height="2.547"/>
			</g>
			<g>
				<rect x="20.69" y="54.202" fill="#9D5125" width="10.422" height="2.547"/>
			</g>
			<g>
				<polygon fill="#9D5125" points="68.888,60.292 68.888,62.841 56.653,50.788 56.653,48.241 				"/>
			</g>
			<g>
				<polygon fill="#F48334" points="31.112,36.333 43.347,48.374 31.112,60.292 31.112,54.202 20.69,54.202 20.69,42.411 
					31.112,42.411 				"/>
			</g>
			<g>
				<polygon fill="#9D5125" points="43.347,48.374 43.347,50.919 31.112,62.841 31.112,60.292 				"/>
			</g>
			<g>
				<polygon fill="#F48334" points="68.888,36.333 68.888,42.425 79.31,42.425 79.31,54.202 68.888,54.202 68.888,60.292 
					56.653,48.241 				"/>
			</g>
			<g>
				<polygon fill="#9D5125" points="61.968,63.575 61.968,66.122 49.841,78.267 49.267,75.157 				"/>
			</g>
			<g>
				<polygon fill="#9D5125" points="49.841,75.718 49.841,78.267 37.845,66.122 37.845,63.575 				"/>
			</g>
			<g>
				<polygon fill="#F48334" points="49.974,21.733 61.968,33.88 57.474,33.88 57.474,42.032 51.388,48.306 57.474,54.753 
					57.474,63.575 61.968,63.575 49.841,75.718 37.845,63.575 42.343,63.575 42.343,54.845 48.69,48.306 42.343,41.821 
					42.343,33.88 37.845,33.88 				"/>
			</g>
		</g>
	</g>
</g>
<g id="nyt_x5F_exporter_x5F_info" display="none">
</g>
</svg>
