<?xml version="1.0" encoding="utf-8"?>
<!-- Generator: Adobe Illustrator 16.0.4, SVG Export Plug-In . SVG Version: 6.00 Build 0)  -->
<!DOCTYPE svg PUBLIC "-//W3C//DTD SVG 1.1//EN" "http://www.w3.org/Graphics/SVG/1.1/DTD/svg11.dtd">
<svg version="1.1" xmlns="http://www.w3.org/2000/svg" xmlns:xlink="http://www.w3.org/1999/xlink" x="0px" y="0px" width="100px"
	 height="100px" viewBox="0 0 100 100" enable-background="new 0 0 100 100" xml:space="preserve">
<g id="Layer_1">
	<g>
		<g>
			<defs>
				<path id="SVGID_17_" d="M76.562,70.677v2.967c0,2.615-2.127,4.74-4.762,4.74v-2.967C74.436,75.417,76.562,73.29,76.562,70.677z"
					/>
			</defs>
			<use xlink:href="#SVGID_17_"  overflow="visible" fill="#9D5025"/>
			<clipPath id="SVGID_2_">
				<use xlink:href="#SVGID_17_"  overflow="visible"/>
			</clipPath>
			<g clip-path="url(#SVGID_2_)" enable-background="new    ">
				<path fill="#9D5025" d="M76.562,70.677v2.967c0,0.23-0.018,0.457-0.049,0.68v-2.967C76.545,71.136,76.562,70.907,76.562,70.677"
					/>
				<path fill="#9D5025" d="M76.514,71.356v2.967c-0.039,0.264-0.098,0.52-0.178,0.768v-2.967
					C76.416,71.876,76.475,71.62,76.514,71.356"/>
				<path fill="#9D5025" d="M76.336,72.124v2.967c-0.094,0.291-0.215,0.57-0.361,0.834v-2.967
					C76.121,72.694,76.242,72.415,76.336,72.124"/>
				<path fill="#9D5025" d="M75.975,72.958v2.967c-0.809,1.465-2.371,2.459-4.174,2.459v-2.967
					C73.604,75.417,75.166,74.423,75.975,72.958"/>
			</g>
		</g>
		<g>
			<defs>
				<path id="SVGID_19_" d="M28.199,75.417v2.967c-2.635,0-4.762-2.125-4.762-4.74v-2.967C23.438,73.29,25.564,75.417,28.199,75.417
					z"/>
			</defs>
			<use xlink:href="#SVGID_19_"  overflow="visible" fill="#9D5025"/>
			<clipPath id="SVGID_4_">
				<use xlink:href="#SVGID_19_"  overflow="visible"/>
			</clipPath>
			<g clip-path="url(#SVGID_4_)" enable-background="new    ">
				<path fill="#9D5025" d="M28.199,75.417v2.967c-2.635,0-4.762-2.125-4.762-4.74v-2.967C23.438,73.29,25.564,75.417,28.199,75.417
					"/>
			</g>
		</g>
		<g>
			<polygon fill="#9D5025" points="72.893,74.661 71.801,78.384 28.199,78.384 27.215,74.983 			"/>
		</g>
		<g>
			<path fill="#F58536" d="M71.801,21.616c2.635,0,4.762,2.125,4.762,4.741v44.319c0,2.613-2.127,4.74-4.762,4.74H28.199
				c-2.635,0-4.762-2.127-4.762-4.74V26.357c0-2.616,2.127-4.741,4.762-4.741H71.801z"/>
		</g>
		<rect x="33.146" y="30.689" fill="#FFFFFF" width="33.668" height="15.868"/>
		<rect x="35.717" y="33.312" fill="#F58535" width="7.986" height="10.627"/>
		<rect x="45.984" y="33.312" fill="#F58535" width="7.99" height="10.627"/>
		<rect x="56.256" y="33.312" fill="#F58535" width="7.99" height="10.627"/>
		<rect x="33.146" y="51.942" fill="#FFFFFF" width="33.668" height="15.869"/>
		<rect x="35.717" y="54.563" fill="#F58535" width="7.986" height="10.627"/>
		<rect x="45.984" y="54.563" fill="#F58535" width="7.99" height="10.627"/>
		<rect x="56.256" y="54.563" fill="#F58535" width="7.99" height="10.627"/>
	</g>
</g>
<g id="nyt_x5F_exporter_x5F_info" display="none">
</g>
</svg>
