<?xml version="1.0" encoding="utf-8"?>
<!-- Generator: Adobe Illustrator 16.0.4, SVG Export Plug-In . SVG Version: 6.00 Build 0)  -->
<!DOCTYPE svg PUBLIC "-//W3C//DTD SVG 1.1//EN" "http://www.w3.org/Graphics/SVG/1.1/DTD/svg11.dtd">
<svg version="1.1" xmlns="http://www.w3.org/2000/svg" xmlns:xlink="http://www.w3.org/1999/xlink" x="0px" y="0px" width="100px"
	 height="100px" viewBox="0 0 100 100" enable-background="new 0 0 100 100" xml:space="preserve">
<g id="Layer_1">
	<g>
		<g>
			<path fill="#F58536" d="M50,22.666c14.576,0,26.393,11.718,26.393,26.197c0,14.465-11.816,26.198-26.393,26.198
				c-14.574,0-26.393-11.732-26.393-26.198C23.607,34.383,35.426,22.666,50,22.666z"/>
		</g>
		<g>
			<defs>
				<path id="SVGID_81_" d="M76.393,48.863v2.274c0,14.467-11.816,26.197-26.393,26.197c-14.574,0-26.393-11.73-26.393-26.197
					v-2.274c0,14.465,11.818,26.198,26.393,26.198C64.576,75.061,76.393,63.328,76.393,48.863z"/>
			</defs>
			<use xlink:href="#SVGID_81_"  overflow="visible" fill="#9D5025"/>
			<clipPath id="SVGID_2_">
				<use xlink:href="#SVGID_81_"  overflow="visible"/>
			</clipPath>
			<g clip-path="url(#SVGID_2_)" enable-background="new    ">
				<path fill="#9D5025" d="M73.162,61.432v2.273C68.68,71.826,59.986,77.334,50,77.334c-14.574,0-26.393-11.73-26.393-26.197
					v-2.274c0,14.465,11.818,26.198,26.393,26.198C59.986,75.061,68.68,69.547,73.162,61.432"/>
				<path fill="#9D5025" d="M76.393,48.863v2.274c0,1.273-0.09,2.521-0.268,3.744v-2.273C76.303,51.383,76.393,50.134,76.393,48.863
					"/>
				<path fill="#9D5025" d="M76.125,52.607v2.273c-0.211,1.447-0.535,2.857-0.973,4.223v-2.277
					C75.59,55.465,75.914,54.053,76.125,52.607"/>
				<path fill="#9D5025" d="M75.152,56.826v2.277c-0.521,1.605-1.186,3.146-1.99,4.602v-2.273
					C73.967,59.973,74.631,58.432,75.152,56.826"/>
			</g>
		</g>
		<polygon fill="#FFFFFF" points="31.883,36.477 31.883,38.389 34.258,38.389 34.258,59.336 31.883,59.336 31.883,61.25 
			36.473,61.25 36.473,36.477 		"/>
		<polygon fill="#FFFFFF" points="67.912,39.231 38.684,39.231 38.684,55.562 41.406,55.562 41.406,58.859 53.854,58.859 
			53.854,55.562 58.396,55.562 58.396,58.859 63.881,58.859 63.881,55.562 67.912,55.562 		"/>
		<g>
			<rect x="41.834" y="41.555" fill="#D9A741" width="22.475" height="11.423"/>
			<rect x="44.141" y="43.338" fill="#FFFFFF" width="7.834" height="7.724"/>
			<rect x="54.346" y="43.338" fill="#FFFFFF" width="7.834" height="7.724"/>
		</g>
	</g>
</g>
<g id="nyt_x5F_exporter_x5F_info" display="none">
</g>
</svg>
