<?xml version="1.0" encoding="utf-8"?>
<!-- Generator: Adobe Illustrator 16.0.4, SVG Export Plug-In . SVG Version: 6.00 Build 0)  -->
<!DOCTYPE svg PUBLIC "-//W3C//DTD SVG 1.1//EN" "http://www.w3.org/Graphics/SVG/1.1/DTD/svg11.dtd">
<svg version="1.1" xmlns="http://www.w3.org/2000/svg" xmlns:xlink="http://www.w3.org/1999/xlink" x="0px" y="0px" width="100px"
	 height="100px" viewBox="0 0 100 100" enable-background="new 0 0 100 100" xml:space="preserve">
<g id="Layer_1">
	<g>
		<path fill="#F58536" d="M50.853,21.379c15.272,0.458,27.281,13.102,26.826,28.263c-0.455,15.144-13.2,27.054-28.473,26.596
			c-15.259-0.458-27.268-13.111-26.813-28.255C22.848,32.821,35.594,20.921,50.853,21.379z"/>
	</g>
	<g>
		<defs>
			<path id="SVGID_91_" d="M77.679,49.642l-0.071,2.382c-0.455,15.146-13.201,27.056-28.474,26.598
				C33.875,78.163,21.867,65.51,22.321,50.364l0.071-2.382c-0.454,15.144,11.555,27.797,26.813,28.255
				C64.479,76.695,77.224,64.785,77.679,49.642z"/>
		</defs>
		<use xlink:href="#SVGID_91_"  overflow="visible" fill="#9D5025"/>
		<clipPath id="SVGID_2_">
			<use xlink:href="#SVGID_91_"  overflow="visible"/>
		</clipPath>
		<g clip-path="url(#SVGID_2_)" enable-background="new    ">
			<path fill="#9D5025" d="M76.124,57.937l-0.071,2.384c-0.588,1.669-1.337,3.259-2.226,4.758l0.071-2.384
				C74.787,61.195,75.537,59.605,76.124,57.937"/>
			<path fill="#9D5025" d="M73.898,62.694l-0.071,2.384c-4.95,8.363-14.229,13.856-24.693,13.543
				C33.875,78.163,21.867,65.51,22.321,50.364l0.071-2.382c-0.454,15.144,11.555,27.797,26.813,28.255
				C59.67,76.551,68.948,71.06,73.898,62.694"/>
			<path fill="#9D5025" d="M77.679,49.642l-0.071,2.382c-0.04,1.332-0.175,2.635-0.399,3.91l0.072-2.384
				C77.504,52.274,77.639,50.972,77.679,49.642"/>
			<path fill="#9D5025" d="M77.28,53.55l-0.072,2.384c-0.268,1.508-0.653,2.978-1.155,4.387l0.071-2.384
				C76.626,56.527,77.012,55.06,77.28,53.55"/>
		</g>
	</g>
	<path fill="#FFFFFF" d="M67.993,39.5h-9v-1.791l-2.795,3.525l-1.285-1.816L42.229,47.5h10.764v-1.922l6,2.244V44.5h9v9h-9v-3.322
		l-6,2.244V50.5H42.231l12.799,8.081l1.168-1.878l2.795,3.588V58.5h9v9h-9v-3.598l-6.218-1.496l0.85-1.805L37.993,50.488V56.5h-10
		v-15h10v6.01l15.748-10.112l-0.965-1.804l6.217-1.496V30.5h9V39.5z"/>
</g>
<g id="nyt_x5F_exporter_x5F_info" display="none">
</g>
</svg>
