<?xml version="1.0" encoding="utf-8"?>
<!-- Generator: Adobe Illustrator 16.0.4, SVG Export Plug-In . SVG Version: 6.00 Build 0)  -->
<!DOCTYPE svg PUBLIC "-//W3C//DTD SVG 1.1//EN" "http://www.w3.org/Graphics/SVG/1.1/DTD/svg11.dtd">
<svg version="1.1" xmlns="http://www.w3.org/2000/svg" xmlns:xlink="http://www.w3.org/1999/xlink" x="0px" y="0px" width="100px"
	 height="100px" viewBox="0 0 100 100" enable-background="new 0 0 100 100" xml:space="preserve">
<g id="Layer_1">
	<g>
		<polygon fill="#F58435" points="55.939,49.98 23.196,49.98 23.196,72.6 55.939,65.115 		"/>
		<polygon fill="#F58435" points="65.743,49.98 30.159,49.98 30.159,76.082 65.743,65.98 		"/>
		<polygon fill="#F58435" points="73.498,49.98 38.849,49.98 38.849,80.426 73.498,67.75 		"/>
		<polygon fill="#F58435" points="49.996,86 49.996,49.979 79.802,49.979 79.802,71.098 		"/>
		<polygon fill="#9D5025" points="23.196,49.98 23.196,72.6 20.208,71.105 20.208,49.98 		"/>
		<polygon fill="#9D5025" points="30.159,49.98 30.159,76.082 26.496,74.25 26.496,49.98 		"/>
		<polygon fill="#9D5025" points="38.849,49.98 38.849,80.426 34.249,78.127 34.249,49.98 		"/>
		<polygon fill="#9D5025" points="44.055,83.029 44.055,49.98 49.995,49.98 49.995,86 		"/>
		<polygon fill="#F58435" points="79.808,42.736 49.999,37.613 49.999,14 79.808,28.902 		"/>
		<polygon fill="#9D5025" points="20.192,42.736 50,37.613 50,14 20.192,28.902 		"/>
		<polygon fill="#6B3B19" points="79.808,42.736 49.999,44.857 20.192,42.736 49.999,37.613 		"/>
	</g>
</g>
<g id="nyt_x5F_exporter_x5F_info" display="none">
	<text transform="matrix(1 0 0 1 -427 0)" display="inline"><tspan x="0" y="0" font-family="'MyriadPro-Regular'" font-size="12">&lt;nyt_prefs&gt;</tspan><tspan x="0" y="14.4" font-family="'MyriadPro-Regular'" font-size="12">  &lt;nyt_prefix&gt;&lt;/nyt_prefix&gt;</tspan><tspan x="0" y="28.8" font-family="'MyriadPro-Regular'" font-size="12">  &lt;nyt_suffix&gt;&lt;/nyt_suffix&gt;</tspan><tspan x="0" y="43.2" font-family="'MyriadPro-Regular'" font-size="12">  &lt;nyt_base_path&gt;~/Desktop/wip/Architecture%20Icons%20-%20Update%20all%20customer-facing%20files%20/AWS-Simple-Icons%202/EPS&lt;/nyt_base_path&gt;</tspan><tspan x="0" y="57.6" font-family="'MyriadPro-Regular'" font-size="12">  &lt;nyt_scaling&gt;100&lt;/nyt_scaling&gt;</tspan><tspan x="0" y="72" font-family="'MyriadPro-Regular'" font-size="12">  &lt;nyt_transparency&gt;true&lt;/nyt_transparency&gt;</tspan><tspan x="0" y="86.4" font-family="'MyriadPro-Regular'" font-size="12">  &lt;nyt_format&gt;EPS&lt;/nyt_format&gt;</tspan><tspan x="0" y="100.8" font-family="'MyriadPro-Regular'" font-size="12">  &lt;nyt_export_code&gt;artboards&lt;/nyt_export_code&gt;</tspan><tspan x="0" y="115.2" font-family="'MyriadPro-Regular'" font-size="12">&lt;/nyt_prefs&gt;</tspan></text>
</g>
</svg>
