<?xml version="1.0" encoding="utf-8"?>
<!-- Generator: Adobe Illustrator 16.0.4, SVG Export Plug-In . SVG Version: 6.00 Build 0)  -->
<!DOCTYPE svg PUBLIC "-//W3C//DTD SVG 1.1//EN" "http://www.w3.org/Graphics/SVG/1.1/DTD/svg11.dtd">
<svg version="1.1" xmlns="http://www.w3.org/2000/svg" xmlns:xlink="http://www.w3.org/1999/xlink" x="0px" y="0px" width="100px"
	 height="100px" viewBox="0 0 100 100" enable-background="new 0 0 100 100" xml:space="preserve">
<g id="Layer_1">
	<g>
		<g enable-background="new    ">
			<defs>
				<path id="SVGID_57_" enable-background="new    " d="M61.271,23.545v2.525c0,0.357-0.021,0.729-0.021,1.049v-2.525
					C61.249,24.273,61.271,23.904,61.271,23.545z"/>
			</defs>
			<use xlink:href="#SVGID_57_"  overflow="visible" fill="#9D5125"/>
			<clipPath id="SVGID_2_">
				<use xlink:href="#SVGID_57_"  overflow="visible"/>
			</clipPath>
			<g clip-path="url(#SVGID_2_)" enable-background="new    ">
				<path fill="#9D5125" d="M61.271,23.545v2.525c0,0.357-0.021,0.729-0.021,1.049v-2.525
					C61.249,24.273,61.271,23.904,61.271,23.545"/>
			</g>
		</g>
		<g enable-background="new    ">
			<defs>
				<path id="SVGID_59_" enable-background="new    " d="M51.351,32.947v2.525c-0.17-0.287-0.299-0.625-0.299-0.99v-2.523
					C51.052,32.322,51.181,32.66,51.351,32.947z"/>
			</defs>
			<use xlink:href="#SVGID_59_"  overflow="visible" fill="#9D5125"/>
			<clipPath id="SVGID_4_">
				<use xlink:href="#SVGID_59_"  overflow="visible"/>
			</clipPath>
			<g clip-path="url(#SVGID_4_)" enable-background="new    ">
				<path fill="#9D5125" d="M51.351,32.947v2.525c-0.17-0.287-0.299-0.625-0.299-0.99v-2.523
					C51.052,32.322,51.181,32.66,51.351,32.947"/>
			</g>
		</g>
		<g>
			<polygon fill="#9D5125" points="58.431,33.547 58.431,36.072 53.108,36.072 52.329,33.211 			"/>
		</g>
		<g enable-background="new    ">
			<defs>
				<path id="SVGID_61_" enable-background="new    " d="M61.681,33.143v2.523c-0.326,0.406-0.654,0.678-1.217,0.717v-2.525
					C61.026,33.818,61.354,33.547,61.681,33.143z"/>
			</defs>
			<use xlink:href="#SVGID_61_"  overflow="visible" fill="#9D5125"/>
			<clipPath id="SVGID_6_">
				<use xlink:href="#SVGID_61_"  overflow="visible"/>
			</clipPath>
			<g clip-path="url(#SVGID_6_)" enable-background="new    ">
				<path fill="#9D5125" d="M61.681,33.143v2.523c-0.326,0.406-0.654,0.678-1.217,0.717v-2.525
					C61.026,33.818,61.354,33.547,61.681,33.143"/>
			</g>
		</g>
		<g>
			<polygon fill="#9D5125" points="65.614,36.031 65.614,38.555 61.681,35.666 60.851,32.049 			"/>
		</g>
		<g>
			<polygon fill="#9D5125" points="62.089,41.055 62.089,43.578 58.431,36.072 58.013,32.049 			"/>
		</g>
		<g>
			<polygon fill="#9D5125" points="65.614,41.848 65.614,44.371 64.579,44.814 64.579,42.291 			"/>
		</g>
		<g>
			<rect x="72.903" y="43.67" fill="#9D5125" width="2.438" height="2.523"/>
		</g>
		<g>
			<rect x="69.938" y="43.67" fill="#9D5125" width="0.041" height="2.523"/>
		</g>
		<g enable-background="new    ">
			<defs>
				<path id="SVGID_63_" enable-background="new    " d="M77.269,42.537v2.525c0,1.041-0.865,1.131-1.928,1.131l-0.428-2.941
					C75.976,43.252,77.269,43.578,77.269,42.537z"/>
			</defs>
			<use xlink:href="#SVGID_63_"  overflow="visible" fill="#9D5125"/>
			<clipPath id="SVGID_8_">
				<use xlink:href="#SVGID_63_"  overflow="visible"/>
			</clipPath>
			<g clip-path="url(#SVGID_8_)" enable-background="new    ">
				<path fill="#9D5125" d="M77.269,42.537v2.525c0,0.078-0.006,0.152-0.018,0.221V42.76C77.263,42.691,77.269,42.617,77.269,42.537
					"/>
				<path fill="#9D5125" d="M77.251,42.76v2.523c-0.006,0.07-0.02,0.133-0.041,0.191v-2.525
					C77.231,42.891,77.245,42.828,77.251,42.76"/>
				<path fill="#9D5125" d="M77.21,42.949v2.525c-0.016,0.059-0.043,0.113-0.068,0.162v-2.523
					C77.167,43.064,77.194,43.01,77.21,42.949"/>
			</g>
		</g>
		<g enable-background="new    ">
			<defs>
				<path id="SVGID_65_" enable-background="new    " d="M39.919,39.355v2.523c0,0.469-1.416,1.225-4.076,1.666
					c-1.232,0.209-2.742,0.338-4.512,0.338c-5.555,0-8.6-1.326-8.6-2.004v-2.523c0,0.676,3.045,2.004,8.6,2.004
					c1.77,0,3.279-0.131,4.512-0.338C38.503,40.578,39.919,39.824,39.919,39.355z"/>
			</defs>
			<use xlink:href="#SVGID_65_"  overflow="visible" fill="#9D5125"/>
			<clipPath id="SVGID_10_">
				<use xlink:href="#SVGID_65_"  overflow="visible"/>
			</clipPath>
			<g clip-path="url(#SVGID_10_)" enable-background="new    ">
				<path fill="#9D5125" d="M39.919,39.355v2.523c0,0.014,0,0.025-0.002,0.037v-2.523C39.919,39.379,39.919,39.367,39.919,39.355"/>
				<path fill="#9D5125" d="M39.917,39.393v2.523c-0.002,0.018-0.006,0.031-0.012,0.049v-2.525
					C39.911,39.424,39.915,39.408,39.917,39.393"/>
				<path fill="#9D5125" d="M39.905,39.439v2.525c-0.006,0.021-0.018,0.045-0.029,0.068v-2.525
					C39.888,39.484,39.899,39.463,39.905,39.439"/>
			</g>
		</g>
		<g>
			<path fill="#F48334" d="M31.331,37.363c1.77,0,3.279,0.131,4.512,0.34c2.66,0.43,4.076,1.197,4.076,1.652
				c0,0.469-1.416,1.223-4.076,1.666c-1.232,0.207-2.742,0.338-4.512,0.338c-5.555,0-8.6-1.328-8.6-2.004
				C22.731,38.678,25.776,37.363,31.331,37.363z"/>
		</g>
		<g enable-background="new    ">
			<defs>
				<path id="SVGID_67_" enable-background="new    " d="M67.62,44.424v2.525c-1.01-0.053-2.006-0.873-2.006-1.887v-2.525
					C65.614,43.553,66.61,44.371,67.62,44.424z"/>
			</defs>
			<use xlink:href="#SVGID_67_"  overflow="visible" fill="#9D5125"/>
			<clipPath id="SVGID_12_">
				<use xlink:href="#SVGID_67_"  overflow="visible"/>
			</clipPath>
			<g clip-path="url(#SVGID_12_)" enable-background="new    ">
				<path fill="#9D5125" d="M67.62,44.424v2.525c-1.01-0.053-2.006-0.873-2.006-1.887l-0.508-3.713
					C65.106,42.365,66.61,44.371,67.62,44.424"/>
			</g>
		</g>
		<g>
			<polygon fill="#9D5125" points="40.063,43.969 40.063,46.492 40.063,47.787 40.063,45.262 			"/>
		</g>
		<g>
			<polygon fill="#9D5125" points="69.938,43.67 69.938,46.193 67.896,50.645 67.896,48.121 			"/>
		</g>
		<g>
			<polygon fill="#9D5125" points="40.063,45.262 40.063,47.787 40.06,51.123 40.06,48.6 			"/>
		</g>
		<g>
			<polygon fill="#9D5125" points="53.108,33.547 53.108,36.072 40.06,51.123 40.06,48.6 			"/>
		</g>
		<g>
			<polygon fill="#9D5125" points="65.759,48.602 65.759,51.127 62.94,45.451 62.505,41.744 			"/>
		</g>
		<g>
			<polygon fill="#9D5125" points="62.94,42.928 62.94,45.451 40.313,53.455 40.313,50.932 			"/>
		</g>
		<g>
			<polygon fill="#9D5125" points="67.489,52.557 67.489,55.082 66.743,53.273 66.29,49.549 			"/>
		</g>
		<g>
			<polygon fill="#9D5125" points="40.06,48.764 40.06,51.289 40.054,55.246 40.054,52.723 			"/>
		</g>
		<g>
			<polygon fill="#9D5125" points="61.538,56.902 61.538,59.428 40.054,55.246 40.054,52.723 			"/>
		</g>
		<g>
			<polygon fill="#9D5125" points="40.054,53.154 40.054,55.68 40.052,57.951 40.052,55.426 			"/>
		</g>
		<g>
			<polygon fill="#9D5125" points="66.743,50.748 66.743,53.273 64.157,58.309 64.157,55.785 			"/>
		</g>
		<g>
			<polygon fill="#9D5125" points="40.052,55.426 40.052,57.762 40.052,60.287 40.052,57.951 			"/>
		</g>
		<g>
			<polygon fill="#9D5125" points="65.614,58.061 65.614,60.586 62.661,59.562 62.829,57.127 			"/>
		</g>
		<g enable-background="new    ">
			<defs>
				<path id="SVGID_69_" enable-background="new    " d="M24.806,58.92v2.525c-1.141-0.365-1.969-0.781-2.059-1.107v-2.523
					C22.837,58.139,23.665,58.557,24.806,58.92z"/>
			</defs>
			<use xlink:href="#SVGID_69_"  overflow="visible" fill="#9D5125"/>
			<clipPath id="SVGID_14_">
				<use xlink:href="#SVGID_69_"  overflow="visible"/>
			</clipPath>
		</g>
		<g enable-background="new    ">
			<defs>
				<path id="SVGID_71_" enable-background="new    " d="M40.052,57.762v2.525c0,0.689-2.389,1.99-8.168,1.99
					c-3.146,0-5.531-0.377-7.078-0.832l-0.643-3.193c1.547,0.455,4.574,1.502,7.721,1.502
					C37.663,59.754,40.052,58.451,40.052,57.762z"/>
			</defs>
			<use xlink:href="#SVGID_71_"  overflow="visible" fill="#9D5125"/>
			<clipPath id="SVGID_16_">
				<use xlink:href="#SVGID_71_"  overflow="visible"/>
			</clipPath>
			<g clip-path="url(#SVGID_16_)" enable-background="new    ">
				<path fill="#9D5125" d="M40.052,57.762v2.525c0,0.016-0.002,0.031-0.004,0.049v-2.525C40.05,57.795,40.052,57.777,40.052,57.762
					"/>
				<path fill="#9D5125" d="M40.048,57.811v2.525c-0.006,0.02-0.008,0.037-0.016,0.059v-2.525
					C40.04,57.85,40.042,57.83,40.048,57.811"/>
				<path fill="#9D5125" d="M40.032,57.869v2.525c-0.01,0.029-0.023,0.062-0.043,0.096v-2.525
					C40.009,57.932,40.022,57.9,40.032,57.869"/>
			</g>
		</g>
		<g>
			<polygon fill="#9D5125" points="75.341,62.471 75.341,64.996 67.923,64.996 67.394,62.16 			"/>
		</g>
		<g enable-background="new    ">
			<defs>
				<path id="SVGID_73_" enable-background="new    " d="M77.269,61.811v2.523c0,0.605-0.283,0.734-0.729,0.734
					c-0.33,0-0.746-0.072-1.199-0.072l-0.553-2.994c0.453,0,1.422,0.541,1.752,0.541C76.985,62.543,77.269,62.414,77.269,61.811z"/>
			</defs>
			<use xlink:href="#SVGID_73_"  overflow="visible" fill="#9D5125"/>
			<clipPath id="SVGID_18_">
				<use xlink:href="#SVGID_73_"  overflow="visible"/>
			</clipPath>
			<g clip-path="url(#SVGID_18_)" enable-background="new    ">
				<path fill="#9D5125" d="M77.269,61.811v2.523c0,0.076-0.004,0.146-0.014,0.207v-2.523
					C77.265,61.955,77.269,61.885,77.269,61.811"/>
				<path fill="#9D5125" d="M77.255,62.018v2.523c-0.008,0.055-0.02,0.104-0.033,0.146v-2.523
					C77.235,62.119,77.247,62.07,77.255,62.018"/>
				<path fill="#9D5125" d="M77.222,62.164v2.523c-0.014,0.041-0.027,0.078-0.045,0.109v-2.525
					C77.194,62.24,77.208,62.203,77.222,62.164"/>
			</g>
		</g>
		<g enable-background="new    ">
			<defs>
				<path id="SVGID_75_" enable-background="new    " d="M67.923,62.471v2.525c-0.342,0-1.02,0.32-1.432,0.32
					c-0.096,0-0.176-0.018-0.234-0.059l-0.439-2.859c0.059,0.041,0.578,0.393,0.674,0.393
					C66.903,62.791,67.581,62.471,67.923,62.471z"/>
			</defs>
			<use xlink:href="#SVGID_75_"  overflow="visible" fill="#9D5125"/>
			<clipPath id="SVGID_20_">
				<use xlink:href="#SVGID_75_"  overflow="visible"/>
			</clipPath>
		</g>
		<g>
			<polygon fill="#9D5125" points="63.294,57.346 63.294,59.869 60.147,66.441 60.147,63.916 			"/>
		</g>
		<g>
			<polygon fill="#9D5125" points="66.257,62.732 66.714,64.922 61.249,69.473 61.249,66.949 			"/>
		</g>
		<g>
			<polygon fill="#9D5125" points="51.052,67.521 51.052,70.047 40.052,57.951 40.052,55.426 			"/>
		</g>
		<g enable-background="new    ">
			<defs>
				<path id="SVGID_77_" enable-background="new    " d="M61.271,74.49v2.523c0,0.596-0.115,0.996-0.848,0.996v-2.525
					C61.155,75.484,61.271,75.086,61.271,74.49z"/>
			</defs>
			<use xlink:href="#SVGID_77_"  overflow="visible" fill="#9D5125"/>
			<clipPath id="SVGID_22_">
				<use xlink:href="#SVGID_77_"  overflow="visible"/>
			</clipPath>
			<g clip-path="url(#SVGID_22_)" enable-background="new    ">
				<path fill="#9D5125" d="M61.271,74.49v2.523c0,0.129-0.004,0.248-0.021,0.354v-2.523C61.267,74.736,61.271,74.617,61.271,74.49"
					/>
				<path fill="#9D5125" d="M61.249,74.844v2.523c-0.006,0.068-0.021,0.129-0.039,0.188v-2.525
					C61.228,74.973,61.243,74.908,61.249,74.844"/>
				<path fill="#9D5125" d="M61.21,75.029v2.525c-0.016,0.045-0.033,0.09-0.057,0.131v-2.523
					C61.177,75.121,61.194,75.076,61.21,75.029"/>
				<path fill="#9D5125" d="M61.153,75.162v2.523c-0.113,0.205-0.328,0.324-0.73,0.324v-2.525
					C60.825,75.484,61.04,75.365,61.153,75.162"/>
			</g>
		</g>
		<g>
			<polygon fill="#9D5125" points="60.423,75.484 60.423,78.01 53.001,78.01 52.163,75.002 			"/>
		</g>
		<g enable-background="new    ">
			<defs>
				<path id="SVGID_79_" enable-background="new    " d="M53.001,75.484v2.525c-1.047,0-1.949-0.834-1.949-1.887V73.6
					C51.052,74.652,51.954,75.484,53.001,75.484z"/>
			</defs>
			<use xlink:href="#SVGID_79_"  overflow="visible" fill="#9D5125"/>
			<clipPath id="SVGID_24_">
				<use xlink:href="#SVGID_79_"  overflow="visible"/>
			</clipPath>
			<g clip-path="url(#SVGID_24_)" enable-background="new    ">
				<path fill="#9D5125" d="M53.001,75.484v2.525c-1.047,0-1.949-0.834-1.949-1.887V73.6C51.052,74.652,51.954,75.484,53.001,75.484
					"/>
			</g>
		</g>
		<g>
			<path fill="#F48334" d="M75.341,43.67h-2.438v8.678h2.438c1.062,0,1.928,1.043,1.928,2.096v7.367
				c0,0.604-0.283,0.732-0.729,0.732c-0.33,0-0.746-0.072-1.199-0.072h-7.418c-0.342,0-1.02,0.32-1.432,0.32
				c-0.096,0-0.176-0.018-0.234-0.059l-5.008,4.217v6.65c0,1.053,0.236,1.885-0.826,1.885h-7.422c-1.047,0-1.949-0.832-1.949-1.885
				v-6.078l-11-12.096l-0.486-2.803l11.879,12.295c0.354-0.48,0.916-1.002,1.557-1.002h5.01l3.527-7.014l-21.484-4.18l0.006-3.959
				l22.029-7.709l-3.658-7.508h-5.322L40.06,48.6l-0.414-2.836l11.705-12.816c-0.17-0.287-0.299-0.625-0.299-0.988v-7.365
				c0-1.041,0.902-2.604,1.949-2.604h7.422c1.062,0,0.826,1.562,0.826,2.604V31.1l4.627,2.303c0.342-0.428,1.43-1.301,2.047-1.301
				h7.418c1.062,0,1.928,2.018,1.928,3.07v7.365C77.269,43.578,76.403,43.67,75.341,43.67z M40.313,50.932l22.102,4.463l3.344-6.793
				l-2.818-5.674L40.313,50.932 M65.614,61.549v-3.488l-2.32-0.715l-3.146,6.57h0.275c0.553,0,0.854,0.43,1.191,0.793L65.614,61.549
				 M60.464,33.857l3.25,6.715l1.9-0.742v-3.799l-3.934-2.889C61.354,33.547,61.026,33.818,60.464,33.857 M69.979,52.348V43.67
				h-0.041l-2.043,4.451l1.965,4.227H69.979 M65.614,54.443c0-0.988,0.906-1.795,1.875-1.887l-0.746-1.809l-2.586,5.037l1.457,0.338
				V54.443 M66.636,46.428l0.984-2.004c-1.01-0.053-2.006-0.871-2.006-1.887v-0.689l-1.035,0.443L66.636,46.428"/>
		</g>
		<g>
			<path fill="#F48334" d="M40.063,43.969v1.293L40.06,48.6v0.164l-0.006,3.959v0.432l-0.002,2.271v2.336
				c0,0.689-2.389,1.992-8.168,1.992c-3.146,0-5.531-0.379-7.078-0.834c-1.141-0.363-1.969-0.781-2.059-1.105V44.1
				c1.676,1.041,5.139,1.574,8.584,1.574h0.227c0.352,0,0.693-0.014,1.021-0.025h0.195c0.275-0.014,0.562-0.027,0.84-0.053
				c0.154-0.014,0.326-0.027,0.486-0.039c0.209-0.014,0.418-0.039,0.625-0.051c0.146-0.027,0.293-0.039,0.434-0.066
				c0.225-0.025,0.449-0.053,0.67-0.092C37.716,45.049,39.171,44.555,40.063,43.969z"/>
		</g>
	</g>
</g>
<g id="nyt_x5F_exporter_x5F_info" display="none">
</g>
</svg>
