<?xml version="1.0" encoding="utf-8"?>
<!-- Generator: Adobe Illustrator 16.0.4, SVG Export Plug-In . SVG Version: 6.00 Build 0)  -->
<!DOCTYPE svg PUBLIC "-//W3C//DTD SVG 1.1//EN" "http://www.w3.org/Graphics/SVG/1.1/DTD/svg11.dtd">
<svg version="1.1" xmlns="http://www.w3.org/2000/svg" xmlns:xlink="http://www.w3.org/1999/xlink" x="0px" y="0px" width="100px"
	 height="100px" viewBox="0 0 100 100" enable-background="new 0 0 100 100" xml:space="preserve">
<g id="Layer_1">
	<g>
		<defs>
			<path id="SVGID_83_" d="M73.156,44.669V42.36c0-5.391,3.852-9.9,4.059-10.144v2.308C77.008,34.769,73.156,39.276,73.156,44.669z"
				/>
		</defs>
		<use xlink:href="#SVGID_83_"  overflow="visible" fill="#9D5025"/>
		<clipPath id="SVGID_2_">
			<use xlink:href="#SVGID_83_"  overflow="visible"/>
		</clipPath>
		<g clip-path="url(#SVGID_2_)" enable-background="new    ">
			<path fill="#9D5025" d="M77.215,32.217v2.308c-0.1,0.118-1.064,1.244-2.025,2.991v-2.308
				C76.15,33.461,77.115,32.335,77.215,32.217"/>
			<path fill="#9D5025" d="M75.189,35.208v2.308c-0.496,0.898-0.992,1.962-1.369,3.136v-2.307
				C74.197,37.171,74.693,36.106,75.189,35.208"/>
			<path fill="#9D5025" d="M73.82,38.345v2.307c-0.234,0.729-0.422,1.5-0.539,2.299v-2.309
				C73.398,39.842,73.586,39.073,73.82,38.345"/>
			<path fill="#9D5025" d="M73.281,40.642v2.309c-0.08,0.558-0.125,1.134-0.125,1.719V42.36
				C73.156,41.776,73.201,41.201,73.281,40.642"/>
		</g>
	</g>
	<g>
		<defs>
			<path id="SVGID_85_" d="M25.982,42.96v2.308c0-4.772-3.84-9.591-4.047-9.851v-2.309C22.143,33.37,25.982,38.188,25.982,42.96z"/>
		</defs>
		<use xlink:href="#SVGID_85_"  overflow="visible" fill="#9D5025"/>
		<clipPath id="SVGID_4_">
			<use xlink:href="#SVGID_85_"  overflow="visible"/>
		</clipPath>
		<g clip-path="url(#SVGID_4_)" enable-background="new    ">
			<path fill="#9D5025" d="M25.982,42.96v2.308c0-4.772-3.84-9.591-4.047-9.851v-2.309C22.143,33.37,25.982,38.188,25.982,42.96"/>
		</g>
	</g>
	<g>
		<defs>
			<path id="SVGID_87_" d="M21.707,58.835v-2.308c0,0.808,0.07,1.69,0.229,2.679c2.457,15.438,22.324,8.957,28.76,16.725v2.308
				c-6.436-7.771-26.303-1.286-28.76-16.724C21.777,60.525,21.707,59.642,21.707,58.835z"/>
		</defs>
		<use xlink:href="#SVGID_87_"  overflow="visible" fill="#9D5025"/>
		<clipPath id="SVGID_6_">
			<use xlink:href="#SVGID_87_"  overflow="visible"/>
		</clipPath>
		<g clip-path="url(#SVGID_6_)" enable-background="new    ">
			<path fill="#9D5025" d="M50.695,75.931v2.308c-6.436-7.771-26.303-1.286-28.76-16.724c-0.158-0.989-0.229-1.873-0.229-2.68
				v-2.308c0,0.808,0.07,1.69,0.229,2.679C24.393,74.644,44.26,68.163,50.695,75.931"/>
		</g>
	</g>
	<g>
		<path fill="#F58536" d="M50.506,21.542c0.316,0,0.625,0.136,0.693,0.218c2.953,3.34,5.922,4.453,8.572,4.453
			c5.316,0,9.141-4.265,9.342-4.488l8.102,10.492c-0.213,0.251-4.277,5.008-4.051,10.597c0.266,6.566,6.4,8.947,4.891,16.393
			C75.322,72.622,62.211,67.2,51.596,75.931c-0.205,0.165-0.371,0.221-0.506,0.221c-0.268,0-0.387-0.211-0.395-0.221
			c-6.436-7.768-26.303-1.287-28.76-16.725c-1.355-8.457,3.75-9.492,4.039-15.844c0.225-4.9-3.826-9.986-4.039-10.254l9.43-11.384
			c0.207,0.208,4.135,4.14,9.65,4.14c2.76,0,5.865-1.033,8.973-4.14C50.133,21.587,50.318,21.542,50.506,21.542z"/>
	</g>
	<g>
		<defs>
			<path id="SVGID_89_" d="M78.293,56.935v2.307c0,0.705-0.076,1.458-0.238,2.273c-2.732,13.414-15.844,7.992-26.459,16.724
				c-0.205,0.167-0.371,0.22-0.506,0.22c-0.268,0-0.387-0.211-0.395-0.22v-2.308c0.008,0.01,0.127,0.221,0.395,0.221
				c0.135,0,0.301-0.056,0.506-0.221c10.615-8.73,23.727-3.309,26.459-16.725C78.217,58.392,78.293,57.639,78.293,56.935z"/>
		</defs>
		<use xlink:href="#SVGID_89_"  overflow="visible" fill="#9D5025"/>
		<clipPath id="SVGID_8_">
			<use xlink:href="#SVGID_89_"  overflow="visible"/>
		</clipPath>
		<g clip-path="url(#SVGID_8_)" enable-background="new    ">
			<path fill="#9D5025" d="M78.293,56.935v2.307c0,0.498-0.035,1.02-0.117,1.572v-2.309C78.258,57.954,78.293,57.432,78.293,56.935"
				/>
			<path fill="#9D5025" d="M78.176,58.505v2.309c-0.033,0.229-0.072,0.462-0.121,0.701c-0.137,0.666-0.299,1.285-0.482,1.861v-2.307
				c0.184-0.578,0.346-1.196,0.482-1.863C78.104,58.968,78.143,58.733,78.176,58.505"/>
			<path fill="#9D5025" d="M77.572,61.069v2.307c-0.281,0.873-0.617,1.649-1,2.343V63.41C76.955,62.718,77.291,61.942,77.572,61.069
				"/>
			<path fill="#9D5025" d="M76.572,63.41v2.309c-4.48,8.079-15.686,4.878-24.977,12.52c-0.205,0.167-0.371,0.22-0.506,0.22
				c-0.268,0-0.387-0.211-0.395-0.22v-2.308c0.008,0.01,0.127,0.221,0.395,0.221c0.135,0,0.301-0.056,0.506-0.221
				C60.887,68.288,72.092,71.489,76.572,63.41"/>
		</g>
	</g>
</g>
<g id="nyt_x5F_exporter_x5F_info" display="none">
</g>
</svg>
