<?xml version="1.0" encoding="utf-8"?>
<!-- Generator: Adobe Illustrator 16.0.4, SVG Export Plug-In . SVG Version: 6.00 Build 0)  -->
<!DOCTYPE svg PUBLIC "-//W3C//DTD SVG 1.1//EN" "http://www.w3.org/Graphics/SVG/1.1/DTD/svg11.dtd">
<svg version="1.1" xmlns="http://www.w3.org/2000/svg" xmlns:xlink="http://www.w3.org/1999/xlink" x="0px" y="0px" width="100px"
	 height="100px" viewBox="0 0 100 100" enable-background="new 0 0 100 100" xml:space="preserve">
<g id="Layer_1">
	<g>
		<rect x="16.532" y="19.105" fill="#F58536" width="66.936" height="15.996"/>
	</g>
	<g>
		<rect x="16.532" y="35.102" fill="#9D5025" width="66.936" height="2.615"/>
	</g>
	<g>
		<rect x="16.532" y="41.166" fill="#F58536" width="66.936" height="15.996"/>
	</g>
	<g>
		<rect x="16.532" y="57.162" fill="#9D5025" width="66.936" height="2.615"/>
	</g>
	<g>
		<rect x="16.532" y="62.283" fill="#F58536" width="66.936" height="15.996"/>
	</g>
	<g>
		<rect x="16.532" y="78.279" fill="#9D5025" width="66.936" height="2.615"/>
	</g>
	<path fill="#FFFFFF" d="M24.784,31.893h-1.537v-7.078h-1.983v-1.021h0.149c0.918,0,1.984-0.217,2.253-1.46v-0.191h1.118V31.893z
		 M33.404,23.577c-1.497,1.994-2.793,5.383-3.009,8.315h-1.619c0.216-2.906,1.619-6.154,3.143-8.151h-4.183v-1.407h5.668V23.577z
		 M40.241,31.893h-5.586c0-4.241,4.007-4.145,4.007-7.174c0-0.801-0.338-1.473-1.188-1.473c-1.147,0-1.334,1.046-1.334,2.038h-1.459
		c0-1.942,0.783-3.142,2.82-3.142c1.957,0,2.699,1.186,2.699,2.603c0,3.237-3.105,3.444-3.832,5.825h3.873V31.893z M43.474,31.893
		h-1.537v-1.816h1.537V31.893z M49.057,31.893h-1.538v-7.078h-1.982v-1.021h0.148c0.918,0,1.982-0.217,2.254-1.46v-0.191h1.118
		V31.893z M54.813,32.086c-2.415,0-2.874-1.873-2.874-4.668c0-2.92,0.527-5.275,3.05-5.275c1.676,0,2.577,0.771,2.577,2.369h-1.538
		c0-0.563-0.256-1.266-1.025-1.266c-1.443,0-1.524,1.94-1.524,3.359l0.042,0.027c0.375-0.701,1.022-1.033,1.859-1.033
		c1.31,0,2.361,0.965,2.361,2.905C57.741,30.75,56.838,32.086,54.813,32.086z M60.87,31.893h-1.538v-1.816h1.538V31.893z
		 M65.36,32.086c-1.836,0-2.861-1.184-2.861-4.973c0-3.785,1.025-4.971,2.861-4.971c1.834,0,2.859,1.186,2.859,4.971
		C68.22,30.902,67.194,32.086,65.36,32.086z M71.386,31.893h-1.537v-1.816h1.537V31.893z M75.877,32.086
		c-1.837,0-2.86-1.184-2.86-4.973c0-3.785,1.023-4.971,2.86-4.971c1.835,0,2.86,1.186,2.86,4.971
		C78.737,30.902,77.712,32.086,75.877,32.086z"/>
	<path fill="#FFFFFF" d="M75.877,44.219c1.835,0,2.86,1.184,2.86,4.973c0,3.785-1.025,4.971-2.86,4.971
		c-1.837,0-2.86-1.186-2.86-4.971C73.017,45.402,74.04,44.219,75.877,44.219z M69.849,52.15h1.537v1.818h-1.537V52.15z
		 M62.931,45.871h0.149c0.917,0,1.983-0.221,2.255-1.46v-0.192h1.117v9.75h-1.538V46.89h-1.983V45.871z M59.332,52.15h1.538v1.818
		h-1.538V52.15z M54.989,44.219c1.676,0,2.577,0.771,2.577,2.369h-1.538c0-0.564-0.256-1.269-1.025-1.269
		c-1.443,0-1.524,1.942-1.524,3.36l0.042,0.029c0.375-0.703,1.022-1.033,1.859-1.033c1.31,0,2.361,0.963,2.361,2.905
		c0,2.245-0.903,3.581-2.928,3.581c-2.415,0-2.874-1.874-2.874-4.669C51.939,46.573,52.467,44.219,54.989,44.219z M45.536,45.871
		h0.148c0.918,0,1.982-0.221,2.254-1.46v-0.192h1.118v9.75h-1.538V46.89h-1.982V45.871z M41.937,52.15h1.537v1.818h-1.537V52.15z
		 M37.474,45.319c-1.147,0-1.334,1.047-1.334,2.04h-1.459c0-1.942,0.783-3.141,2.82-3.141c1.957,0,2.699,1.184,2.699,2.602
		c0,3.236-3.105,3.443-3.832,5.824h3.873v1.324h-5.586c0-4.242,4.007-4.145,4.007-7.176C38.662,45.994,38.324,45.319,37.474,45.319z
		 M27.736,44.411h5.668v1.239c-1.497,1.996-2.793,5.386-3.009,8.318h-1.619c0.216-2.906,1.619-6.156,3.143-8.154h-4.183V44.411z
		 M21.264,45.871h0.149c0.918,0,1.984-0.221,2.253-1.46v-0.192h1.118v9.75h-1.537V46.89h-1.983V45.871z"/>
	<path fill="#FFFFFF" d="M75.877,65.346c1.835,0,2.86,1.185,2.86,4.971c0,3.787-1.025,4.973-2.86,4.973
		c-1.837,0-2.86-1.186-2.86-4.973C73.017,66.53,74.04,65.346,75.877,65.346z M69.849,73.277h1.537v1.818h-1.537V73.277z
		 M65.386,66.447c-1.146,0-1.334,1.047-1.334,2.038h-1.457c0-1.942,0.781-3.14,2.818-3.14c1.955,0,2.698,1.185,2.698,2.604
		c0,3.234-3.103,3.441-3.833,5.824h3.875v1.322h-5.587c0-4.241,4.007-4.146,4.007-7.176C66.573,67.123,66.237,66.447,65.386,66.447z
		 M59.332,73.277h1.538v1.818h-1.538V73.277z M54.989,65.346c1.676,0,2.577,0.771,2.577,2.368h-1.538
		c0-0.565-0.256-1.267-1.025-1.267c-1.443,0-1.524,1.941-1.524,3.359l0.042,0.029c0.375-0.703,1.022-1.034,1.859-1.034
		c1.31,0,2.361,0.966,2.361,2.905c0,2.246-0.903,3.582-2.928,3.582c-2.415,0-2.874-1.875-2.874-4.67
		C51.939,67.7,52.467,65.346,54.989,65.346z M45.536,66.998h0.148c0.918,0,1.982-0.22,2.254-1.459v-0.193h1.118v9.75h-1.538v-7.079
		h-1.982V66.998z M41.937,73.277h1.537v1.818h-1.537V73.277z M37.474,66.447c-1.147,0-1.334,1.047-1.334,2.038h-1.459
		c0-1.942,0.783-3.14,2.82-3.14c1.957,0,2.699,1.185,2.699,2.604c0,3.234-3.105,3.441-3.832,5.824h3.873v1.322h-5.586
		c0-4.241,4.007-4.146,4.007-7.176C38.662,67.123,38.324,66.447,37.474,66.447z M27.736,65.539h5.668v1.239
		c-1.497,1.995-2.793,5.384-3.009,8.317h-1.619c0.216-2.905,1.619-6.155,3.143-8.153h-4.183V65.539z M21.264,66.998h0.149
		c0.918,0,1.984-0.22,2.253-1.459v-0.193h1.118v9.75h-1.537v-7.079h-1.983V66.998z"/>
	<path fill="#F58536" d="M65.36,23.389c-1.054,0-1.322,1.033-1.322,3.869c0,2.837,0.269,3.869,1.322,3.869
		c1.053,0,1.32-1.032,1.32-3.869C66.681,24.422,66.413,23.389,65.36,23.389z"/>
	<path fill="#F58536" d="M75.877,23.389c-1.053,0-1.323,1.033-1.323,3.869c0,2.837,0.271,3.869,1.323,3.869
		c1.052,0,1.322-1.032,1.322-3.869C77.199,24.422,76.929,23.389,75.877,23.389z"/>
	<path fill="#F58536" d="M75.877,53.203c1.052,0,1.322-1.033,1.322-3.869c0-2.838-0.271-3.87-1.322-3.87
		c-1.053,0-1.323,1.032-1.323,3.87C74.554,52.17,74.824,53.203,75.877,53.203z"/>
	<path fill="#F58536" d="M54.937,53.203c0.943,0,1.266-0.951,1.266-2.095c0-1.349-0.391-2.106-1.266-2.106
		c-1.121,0-1.324,1.006-1.324,2.178C53.612,52.307,54.032,53.203,54.937,53.203z"/>
	<path fill="#F58536" d="M75.877,74.33c1.052,0,1.322-1.032,1.322-3.869c0-2.838-0.271-3.871-1.322-3.871
		c-1.053,0-1.323,1.033-1.323,3.871C74.554,73.298,74.824,74.33,75.877,74.33z"/>
	<path fill="#F58536" d="M54.937,74.33c0.943,0,1.266-0.95,1.266-2.094c0-1.349-0.391-2.107-1.266-2.107
		c-1.121,0-1.324,1.007-1.324,2.176C53.612,73.434,54.032,74.33,54.937,74.33z"/>
	<path fill="#F58536" d="M54.937,31.127c0.943,0,1.266-0.95,1.266-2.094c0-1.349-0.391-2.105-1.266-2.105
		c-1.121,0-1.324,1.005-1.324,2.177C53.612,30.232,54.032,31.127,54.937,31.127z"/>
</g>
<g id="nyt_x5F_exporter_x5F_info" display="none">
</g>
</svg>
